<?xml version="1.0" encoding="utf-8"?>
<!-- Generator: Adobe Illustrator 15.1.0, SVG Export Plug-In . SVG Version: 6.00 Build 0)  -->
<!DOCTYPE svg PUBLIC "-//W3C//DTD SVG 1.1//EN" "http://www.w3.org/Graphics/SVG/1.1/DTD/svg11.dtd">
<svg version="1.1" id="Layer_1" xmlns="http://www.w3.org/2000/svg" xmlns:xlink="http://www.w3.org/1999/xlink" x="0px" y="0px"
	 width="100%" height="100%" viewBox="1.75 256 840.25 233" enable-background="new 1.75 256 840.25 233" xml:space="preserve"
	>
<path fill="#B3A562" d="M808.366,376.767c-1.1-0.699-1.8-0.5-3.1-0.5c-1,0-1.5-0.699-2.601-0.699c-0.8,0.1-1.3-0.5-2-0.9
	c-0.6-0.3-1.399-0.3-2.1-0.7c-0.5-0.3-1.301-0.3-1.7-0.6c-0.7-0.601-0.8-1.4-1.4-2.101c-0.8-1.1-2.3-0.8-3.2-1.699
	c-0.6-0.4-1.3-0.4-1.899-0.7c-0.5-0.2-0.5-0.601-1-0.9s-1.3-0.2-1.7-0.8c-0.6-0.9-1.5-0.8-2.3-1.5c-0.5-0.4-1-0.7-1.7-0.7
	c-1-0.1-1.3-0.3-2.1-0.5c-0.9-0.2-2.9-0.5-3.801-0.3c-0.899,0.3-1.399,0.5-2.399,0.5s-1.4,0.1-2.3,0.5c-0.9,0.5-2.101,0.3-2.9,0.8
	c-0.4,0.3-0.7,0.7-1.2,0.8c-0.699,0.101-1.3-0.199-1.899-0.1c-1,0.1-2.301,0.6-3.101,1.2c-0.5,0.399-0.6,0.7-1,1.1
	c-0.6,0.601-1.6,0.8-2.3,1.2c-0.5,0.3-1,0.8-1.5,0.9c-0.3,0.1-0.5,0.1-0.8,0.1c-0.2-0.2-0.6-0.4-0.8-0.4
	c-0.3,0-0.601-0.899-0.601-0.899l-1.3-0.3l-1.2-0.2l-1.5,0.3c0,0-1.199-0.5-2.5-0.7c-1.399-0.2-2.1-0.2-2.1-0.2h-1.6
	c0,0-1,0.2-1.7-0.199c-0.7-0.4-1.7-0.7-1.7-0.7l-1.7-0.601h-0.5c0,0-0.2-0.399-2-0.199c-1.8,0.199-2.9,0-2.9,0s-0.6-1.601-1.8-0.4
	l-1,0.1l-0.899-0.5c0,0-0.8-0.899-2.5-0.899c-1.7,0.1-2.9,0-2.9,0l-1.899,0.3c0,0-1.9,0.4-2.4-0.3c-0.5-0.601,0-1.101,0-1.101
	l-0.4-0.6l-0.6-0.1c0,0,0-1.101-0.9-1.101c-0.899,0-0.899,0-0.899,0h-1.2l-0.8,0.5h-1.3c0,0-1.101,0.3-2.301,0.101
	c0,0-1.6-0.601-2.699-0.601l-2.7,0.2l-1.5-0.3c0,0-1.9,0.1-2.5-0.601l-1.8-0.699c0,0-0.2-0.101-1-1c-0.7-0.9-1-1.301-1-1.301
	s-0.5-0.6-1.5-0.6s-2.301,0.4-2.301,0.4l-0.6,0.6l-0.7,0.1c0,0,0.5-0.899-0.6-0.899c-1.101,0-1.601-0.101-1.601-0.101l-1,0.4
	l-1.3,0.1l-1.2-0.3l-0.899-0.5c0,0-1.2-0.899-2.9-0.899h-1.5l-0.899-0.101c0,0-1.2-0.6-1.801-0.6c-0.6,0-2.3-1-2.3-1
	s-0.5-0.101-1.5-0.2s-2.1-1-2.1-1l-1.7-0.3c0,0-1.1-0.5-2-0.5s-1.6-0.3-1.6-0.3l-1-0.301l-0.801,0.101c0,0-0.899,0-1.6,0.5
	c-0.8,0.399-1.6,0.899-1.6,0.899l-0.7,1c0,0-0.101-0.199-1.4,0.801c-1.3,1.1-2,1.1-2,1.1l-1-0.4c0,0-0.5-0.1-1.7,0.2
	c-1.199,0.3-1.899,1.2-1.899,1.2s0,1-0.601,0.9c-0.6-0.101-0.8,1-0.8,1l-1.2,0.6l-1.1,0.8l-0.7,0.101l-0.6,1.199
	c0,0-0.2,1.301-1.2,1.5c-1,0.2-1,0.801-1,0.801l-0.9,1l-0.6-0.101l-1,0.4c0,0-0.8,0.3-1.2,0.6c-0.399,0.3-0.7,1.7-0.7,1.7l-0.6,1.4
	l-1.1,0.5l-0.9,1.1c0,0-2.301,1.5-3.5,1.4l-2.4,0.199c0,0-1.8-0.399-2.4-0.199c-0.6,0.199-1.6,0.699-1.6,0.699l-1,0.601l-1,0.8
	l-1.199,1.5l-0.5,0.1c-0.201-0.1-0.4-0.199-0.4-0.199l-0.5,0.1c-0.801-0.1-1.1,0.2-1.1,0.2l-0.4,0.3l-1.2,0.2l-1-0.101l-1-0.399
	c0,0-0.5-0.5-1.2-0.4c-0.699,0.101-1.199-0.3-1.199-0.3l-1-0.3c0,0,0-0.4-0.9-0.5c-0.9,0-1-0.601-1-0.601l-0.6-0.3l-1.101-0.1
	c0,0-0.101-0.101-1.101-0.3c-0.899-0.2-1.199-0.801-1.199-0.801l-1.301-0.399l-1.5-0.5c0,0-0.6-0.2-1.1-0.601
	c-0.5-0.5-0.6-1-1.4-0.899c-0.799,0.1-1.699-0.2-1.699-0.2s-0.6-0.2-1.2,0.8s-1.101,0.601-1.101,0.601l-0.699,0.199l-1,0.4
	l-0.801,0.5l-0.6,0.5c0,0-0.1,0.5-1,0.4c-0.9-0.101-0.9-0.101-0.9-0.101s-0.5,0-1.1,0.5s-1.5,0.5-1.5,0.5l-1.5-0.1
	c0,0-2.1,0.1-2.9,0.6l-0.699,0.5h-0.6c0,0-0.9-0.7-1.101-0.2s-1.399,0.601-1.399,0.601l-1.101,0.3l-0.8,0.2l-1.301,0.1l-1.199-0.2
	l-1.301-0.199c0,0-1-0.5-1.5-0.5s-1.799,0-1.799,0l-1.601,0.699c0,0-0.899,0.7-1.899,0.5c-1-0.199-1-0.199-1-0.199l-1.4-0.5h-0.7
	l-2.2,1.399c0,0-0.5,0.3-1.3,0.3s-1.6-0.199-2.6,0.2c-1,0.4-2.101,0.3-2.101,0.3l-0.7-0.399l-1.199-0.5l-2-0.7l-0.4-0.4
	c0,0-0.4-0.199-1.3-0.199l-1,0.399l-0.8,0.9c0,0-0.5,0.3-1.5,0.1l-1,0.101l-1.2,0.6l-1.2,0.4l-1.5,0.3l-1,0.399l-1.1,0.101
	c0,0-0.9,0.5-1.301,0.1c0-0.1-0.1-0.1-0.199-0.2c-0.101-0.1-0.101-0.1-0.2-0.199c0,0-1.601-2.301-2.3-2.4c0,0-0.301-0.2-0.601-0.8
	c0,0,0.2-1.8-0.399-1.9l-0.301-2l-0.6-0.3c0,0-0.9-1-1.6-1l-1-0.2c0,0,0.199-0.6-0.5-0.8l-1.2-0.1l-1.3,0.1c0,0-1.4,0.3-1.9,0.8
	c0,0-1.9-0.1-2.1,0.2c0,0-1.2,0.5-1.2,0.9h-0.7c0,0-1.4-0.801-1.9,0l-1.199,0.6c0,0-0.801-0.2-1.5-0.9c-0.801-0.699-1.5-0.3-1.5-0.3
	l-0.601,0.7c0,0-0.6,0.7-1.2,0.4c-0.6-0.4-1-0.801-1-0.801l-0.3-0.699c0,0-0.1-0.801-0.6-0.801l-0.7-0.3l-0.1-0.399h-1.101l-1.1,0.6
	l-0.3,0.9l-0.7,0.6c0,0-0.7-0.6-1.601-0.6l-0.6-0.2c0,0-0.301-1.5-0.801-1.601h-0.5c0,0-0.5,0-0.899-0.3l-0.5-1.1
	c0,0-0.3-0.5-0.7-0.5c0,0-0.399-0.7-0.899-0.8c0,0-0.601-1.4-1-1.4c0,0-0.3-2.9-1.3-3l-0.601-0.5l-0.101-1c0,0-0.1-1.2-0.6-1.4
	l-0.9-0.699c0,0-0.6,0.1-1.199-0.601l-0.7-0.5c0,0,0-0.8-0.601-0.8c0,0-1-1.2-1.5-1.2c0,0-1.199-1.5-1.699-0.7
	c0,0-0.1,1.101-0.7,0.7l-0.101-0.7c0,0-0.299-0.8-0.799-0.899l-1-0.101c0,0-0.701,0.2-1.201,0c-0.5-0.199-1-0.199-1-0.199
	l-0.899-0.101c0,0-0.3-1.2-1.2-1.3l-0.899-0.2c0,0-0.3-0.7-1-0.8c0,0,0.1-1.3-0.4-1.6c0,0,0-1.601-0.399-1.601l-0.7-0.2
	c0,0-0.8-0.199-0.9-0.8l-0.399-1.1l-0.301-0.601c0,0-0.699-0.8-1.399-0.899c0,0-1.3,0.1-2.3-0.2l-0.7-0.4h-0.7
	c0,0-0.2-0.399-0.7-0.399s-0.899-0.8-2-0.7l-0.7,0.2c0,0-0.699,0.8-1.3,0.6c0,0-0.399,0.101-0.6,0.601s-0.2,0.5-0.2,0.5l-0.6,0.1
	c0,0-0.601-1.2-1-1.2c0,0-0.601-0.6-1.2-0.399l-1.2,0.899c0,0-1.1,0.8-0.8,2.601c0,0-0.601-0.601-0.7,0.199c0,0-0.9,1.101-0.7,2.4
	l-0.8,0.4c0,0-0.6,0.3-0.6,0.6s-0.601,0.7-0.601,0.7l-0.5,1.2c0,0-0.399,0.399-0.2,1.6l-0.699,0.6c0,0-0.601,1.801-0.301,3.301
	c0,0-0.3,1.3-0.8,1.3s-0.5,0-0.5,0l-0.6,0.7l-0.4,0.6h-0.5c0,0-0.1,0.1-1-0.1c0,0-0.5-0.601-1.1-0.2h-1l-0.8,0.7l-1.101,0.5
	c0,0-0.8,0.3-0.8,0.699l-0.8,0.9l-3.5,0.5c0,0-1.2-0.4-1.7-0.2c0,0-0.9,0.3-1,0.601l-1.2,0.399c0,0-0.6,0.7-1,0.601
	c0,0-0.899,0-1.5-0.2c-0.6-0.2-1.5-0.3-1.5-0.3s-0.5-0.5-1.1,0c-0.601,0.5-1.3,1.399-1.3,1.399s-0.101,0.7-0.7,0.7l-0.2,0.6l-0.7,1
	l-0.5,0.7l-0.5,0.7l-1,0.7c0,0-0.899,0.2-1.3,0.399c0,0-0.5,0-1.3,0.101c-0.8,0.1-1.601,0.2-1.601,0.2l-0.1,0.8c0,0-0.2,0-1.1-0.4
	l-1.2-0.3c0,0-0.2-1.4-1.3-1.5l-1,0.5l-0.7,0.2c0,0-1.101,0-1.7-0.2s-1.2,0.5-1.2,0.5s-0.5-0.2-0.7,0.1c0,0-0.199-0.5-0.6-0.3h-0.5
	c0,0-0.5-0.399-0.7,0l-0.3,0.7c0,0-0.5,0.4-0.6,2.4c0,0-0.301,0.6-0.601,0h-0.2l-0.5,0.199c0,0-0.199,0.601-0.699,0.4
	c0,0-0.601-0.3-0.7,0.2c0,0-0.3,0.2-0.7,0.1c-0.4-0.1-1.3-0.2-1.3-0.2s-0.3-0.1-0.4,0.101c0,0.1-0.7,0.2-0.7,0.2l-0.4-0.101h-0.5
	h-0.6l-0.4,0.2c0,0-0.4-0.3-0.5,0c0,0-0.5,0.1-0.6-0.1c-0.1-0.2-0.1-0.2-0.1-0.2s-0.5-1.3-0.6-1h-0.3l-0.3-0.3
	c0,0-0.2-0.101-0.3-0.4c0-0.3-0.4-0.3-0.4-0.3l-0.4-0.4c0,0-0.5-0.2-0.7,0s-0.7,0.2-0.7,0.2s-0.3-0.2-0.7,0.1
	c-0.4,0.301-0.8,0.301-0.8,0.301s0.1-0.2-0.2,0.1c-0.3,0.3-0.5,0.2-0.5,0.2h-0.5l-0.4-0.2c0,0-0.2-0.3-0.4,0.1l-0.5,0.2l-0.2,0.3
	l-0.3-0.399c0,0-0.5-0.4-0.8-0.2l-0.5,0.2c0,0-0.4,0.1-0.6,0.2l-0.3,0.199l-0.5,0.2c0,0-0.5-0.2-0.8,0h-0.5c0,0-0.6-0.3-0.7,0
	c0,0-0.6,0-0.9-0.3c0,0-0.2-0.3-0.8-0.1c-0.6,0.199-0.8-0.2-0.8-0.2s-0.8-0.3-1,0l-0.2,0.2l-0.4,0.199l-0.2,0.601l-1,0.1
	c0,0-0.6-0.1-0.8-0.1l-1.2-0.101c0,0-0.7-0.1-0.9-0.1l-0.6-0.2c0,0-0.5-0.2-0.6-0.5c0,0-0.1-0.5-0.4-0.5c0,0-0.3,0.101-0.7-0.2
	c-0.5-0.199-0.7,0-0.7,0l-0.3-0.3l-0.2-0.399h-0.4l-0.5-0.2c0,0-0.1-0.3-0.4-0.3h-0.6c0,0-0.1-0.5-0.3-0.4h-0.4c0,0-0.6,0.3-0.8,0
	c-0.2-0.2-1-0.1-1-0.1l-0.6-0.301l-0.5,0.101c0,0-0.6,0.1-1.1,0l-0.3-0.3c0,0-0.3-0.601-0.6-0.601c0,0-0.5-0.2-0.6-0.399
	c-0.1-0.301-0.5-1.101-0.5-1.101l-0.3-0.1c0,0-0.1-0.9-0.4-0.9l-0.3-0.3h-0.7c0,0-0.4-0.8-0.7-0.7h-0.5l-0.2,0.3
	c0,0-0.5,1.5-0.3,1.601c0,0-0.2,0.399-0.4,0.2c0,0-0.2-0.4-0.4-0.4c-0.2,0-0.2,0-0.2,0l-0.1-0.6h-0.3l-0.7,0.1c0,0-0.3-0.6-0.6-0.8
	h-0.5h-0.4c0,0-0.1,0.399-0.4,0.2c-0.3-0.2-0.3-0.2-0.3-0.2h-0.8c0,0-0.1,0.1-0.5,0.2c-0.4,0.1-0.6,0-0.6,0l-0.6-0.101
	c0,0-0.3-0.5-0.6-0.399l-0.7,0.1l-0.3,0.2l-0.2-0.3c0,0-0.5,0.1-0.8,0c-0.3-0.101-0.5,0.199-0.5,0.199s-0.1,0.4-0.4,0.2
	c-0.4-0.2-0.9-0.2-0.9-0.2l-0.3,0.2l-0.1,0.2l-0.6-0.3c0,0-0.4,0.3-0.8,0.2c-0.4-0.101-0.7,0.199-0.7,0.199l-0.4,2.5l-0.2,0.4
	c0,0-0.1-0.5-0.3-0.7c0,0-0.3-0.1-0.5,0.101h-0.8c0,0-1.1-0.101-1.8,0.199l-0.7,0.4c0,0-1.8,2.3-2.7,2.2c-0.9-0.101-1.2-0.2-1.5,0
	c0,0-0.2,0.2-0.1,0.399c0,0-0.1,0.301-0.4,0.301c-0.3,0-0.7,0.199-0.7,0.199l-0.5,0.4l-0.4,0.3l-0.2,0.2l-1.2,2.3
	c0,0-0.7,0.4-1.2,0.2l-1.3-0.4c0,0-1.1,1.601-2,1.601c0,0-0.3-0.101-0.7,0l-0.6-0.3l-0.4-0.4l-0.4,0.1l-0.1-0.3c0,0-0.2-0.2-0.5-0.2
	h-0.8c0,0,0.1,0.301-0.2,0.301c0,0,0-0.601-0.3-0.601l-0.6,0.101l-0.4,0.199l-0.9,1.9l-0.8,0.1c0,0-0.457,0.009-1.1,0.264v41.637
	h467v-41.962C809.535,377.438,808.933,377.106,808.366,376.767z"/>
</svg>
