<?xml version="1.0" encoding="utf-8"?>
<!-- Generator: Adobe Illustrator 15.1.0, SVG Export Plug-In . SVG Version: 6.00 Build 0)  -->
<!DOCTYPE svg PUBLIC "-//W3C//DTD SVG 1.1//EN" "http://www.w3.org/Graphics/SVG/1.1/DTD/svg11.dtd">
<svg version="1.1" id="Layer_1" xmlns="http://www.w3.org/2000/svg" xmlns:xlink="http://www.w3.org/1999/xlink" x="0px" y="0px"
	 width="100%" height="100%" viewBox="1.75 256 840.25 233" enable-background="new 1.75 256 840.25 233" xml:space="preserve"
	>
<path fill="#5E0000" d="M450.271,380.097c-1.101,0-1.7-0.399-3-0.399c-1,0-1.601-0.4-2.4-0.601c-0.8-0.199-1.7-0.1-2.5-0.399
	c-0.6-0.2-1.5-0.2-2-0.4c-0.8-0.399-1-0.899-1.6-1.3c-1-0.7-2.801-0.4-3.801-1c-0.699-0.2-1.399-0.2-2.199-0.4
	c-0.7-0.199-0.601-0.399-1.2-0.6c-0.7-0.2-1.601-0.1-2-0.5c-0.7-0.5-1.8-0.5-2.7-0.9c-0.6-0.3-1.2-0.399-2-0.399
	c-1.1,0-1.4-0.2-2.4-0.3c-1.1-0.2-3.5-0.4-4.5-0.2c-1.1,0.2-1.699,0.3-2.8,0.3c-1.1,0.1-1.7,0.1-2.7,0.4c-1.1,0.3-2.5,0.199-3.5,0.5
	c-0.5,0.199-0.899,0.399-1.5,0.5c-0.8,0-1.5-0.2-2.199-0.101c-1.2,0.101-2.801,0.4-3.7,0.8c-0.601,0.2-0.7,0.5-1.2,0.7
	c-0.7,0.3-2,0.4-2.8,0.7c-0.601,0.2-1.2,0.5-1.8,0.6c-0.301,0.101-0.601,0.101-0.9,0.101c-0.3-0.101-0.6-0.2-0.9-0.2
	c-0.399,0.1-0.699-0.5-0.699-0.5l-1.601-0.2l-1.399-0.1l-1.7,0.2c0,0-1.3-0.301-2.9-0.4c-1.5-0.1-2.399-0.1-2.399-0.1h-1.9
	c0,0-1.1,0.199-2-0.101c-0.9-0.2-2-0.399-2-0.399l-2-0.4h-0.6c0,0-0.2-0.2-2.301-0.1c-2.1,0.1-3.399,0-3.399,0s-0.8-0.9-2.2-0.2
	l-1.1,0.1l-1-0.3c0,0-0.9-0.6-2.9-0.6s-3.4,0-3.4,0l-2.3,0.199c0,0-2.3,0.301-2.899-0.1c-0.601-0.4,0-0.7,0-0.7l-0.4-0.3l-0.7-0.1
	c0,0,0-0.7-1-0.7s-1,0-1,0h-1.399l-1,0.3h-1.601c0,0-1.3,0.2-2.7,0.1c0,0-1.899-0.399-3.199-0.399l-3.101,0.1l-1.7-0.2
	c0,0-2.199,0-2.899-0.399l-2.2-0.4c0,0-0.3-0.1-1.2-0.6c-0.899-0.5-1.2-0.8-1.2-0.8s-0.6-0.4-1.699-0.4c-1.101,0.1-2.7,0.3-2.7,0.3
	l-0.7,0.4l-0.9,0.1c0,0,0.601-0.5-0.7-0.5c-1.3,0.101-1.899,0-1.899,0l-1.101,0.2l-1.6,0.1l-1.4-0.199l-1-0.301
	c0,0-1.399-0.6-3.399-0.6h-1.7h-1c0,0-1.5-0.4-2.2-0.4s-2.7-0.6-2.7-0.6s-0.6-0.1-1.699-0.1c-1.101-0.101-2.4-0.601-2.4-0.601
	l-2-0.2c0,0-1.3-0.3-2.3-0.3s-1.9-0.2-1.9-0.2l-1.1-0.199l-1,0.1c0,0-1,0-1.9,0.3c-0.8,0.3-1.8,0.601-1.8,0.601l-0.8,0.6
	c0,0-0.101-0.2-1.7,0.5c-1.5,0.7-2.4,0.7-2.4,0.7l-1.199-0.3c0,0-0.601-0.101-2,0.1c-1.5,0.1-2.301,0.7-2.301,0.7s0,0.7-0.699,0.6
	c-0.7-0.1-1,0.601-1,0.601l-1.4,0.399l-1.3,0.5l-0.9,0.101l-0.7,0.8c0,0-0.3,0.7-1.399,0.899c-1.101,0.2-1.101,0.5-1.101,0.5
	l-1.1,0.601l-0.7-0.101l-1.1,0.2c0,0-1,0.2-1.4,0.4c-0.399,0.3-0.8,1.1-0.8,1.1l-0.7,0.8l-1.3,0.301l-1.1,0.699
	c0,0-2.7,0.9-4.101,0.9l-2.899,0.1c0,0-2.2-0.3-2.9-0.1c-0.8,0.2-1.9,0.5-1.9,0.5l-1.1,0.4l-0.4,0.199l-1.399-0.199
	c0,0-2.2-1-3.4-0.601l-1.8,0.101c0,0-1.7,1.899-3.3,0.1c0,0-0.5-0.3-2-0.5c0,0-0.9,0.5-1.5,0.1c-0.6-0.399-2.7-0.3-2.7-0.3
	s-1.1,0-1.8-0.399c-0.8-0.4-2.3-0.2-2.3-0.2l-1.4-0.101c0,0-2.6-0.699-5.5-0.5c-2.899,0.101-6,0.101-6,0.101s-4.4,0.3-6.5,0.1
	s-6.3,0.4-6.3,0.4s-2.4,0.1-3-0.3c-0.6-0.4-4.7-0.301-4.7-0.301l-1.4,0.2c0,0-2.9,0.4-4.2,0c-1.3-0.399-5.5-0.7-5.5-0.7
	s-6.501-0.883-11.079-0.594l1.179-33.605l4.091-3.807l5.109,0.307v-0.5l-1.2-0.072v-0.661l0.4,0.033v-0.5h-1.1l-0.1,0.399
	l0.487,0.041l-0.061,0.664l-3.453-0.207l0.037-0.625l0.424,0.025l0.024-0.398l-1.198-0.072l-0.024,0.399l0.374,0.022l-0.037,0.625
	l-3.627-0.219l0.353-9.455h-1.3l-0.284,9.381l-2.458-0.147l0.045-0.712l0.435,0.026l0.024-0.399l-1.198-0.072l-0.024,0.4
	l0.364,0.021l-0.045,0.711l-3.487-0.209l0.041-0.7h0.387v-0.4l-1.2-0.1v0.5h0.412l-0.04,0.677l-1.272-0.077l-0.1,0.5l4.04,0.241
	l3.96,4.159l-1.185,33.917c-0.692,0.087-1.312,0.211-1.815,0.383c-3.7,1.2-6.3,0.6-6.3,0.6s-3.7-0.899-6-0.3
	c-2.2,0.601-5.5-0.7-5.5-0.7s-0.03,0.002-0.071,0.004c0.567-1.119,0.555-2.41,0.448-3.264c0.355-0.174,0.784-0.272,1.323-0.24
	c0,0-0.648-0.097-1.325,0.221c-0.07-0.553-0.175-0.92-0.175-0.92c0.081,0.324,0.131,0.631,0.165,0.925
	c-0.702,0.333-1.416,1.14-1.479,2.96c0.057-0.975,0.348-2.38,1.481-2.941c0.172,1.527-0.23,2.619-0.59,3.266
	c-0.196,0.008-0.506,0.016-0.902,0.016c-0.14,0-0.29-0.002-0.445-0.005c-0.218-1.204-0.43-3.442,0.87-4.021
	c0,0-1.277,0.295-1.135,3.03c-0.134-1.442-1.051-2.107-1.953-2.402c-0.438-0.469-1.006-0.915-1.744-1.306
	c0.452,0.252,1.061,0.666,1.613,1.269c-0.871-0.253-1.681-0.19-1.681-0.19c0.706,0,1.268,0.095,1.733,0.245
	c0.693,0.778,1.273,1.868,1.302,3.331c-0.278-0.019-0.559-0.041-0.835-0.076c-1.6-0.2-4.3-0.3-4.3-0.3s-1.482,0.111-3.23,0.165
	c0.015-1.374-0.033-2.709-0.082-3.663c2.908,1.014,4.412-5.802,4.412-5.802s0.5-1.5-0.5-1.801c-0.337-0.101-0.565-0.025-0.729,0.111
	c0.723-2.729,1.028-5.611,1.028-5.611s0.5-1.399-0.6-1.899s-1.4,1-1.4,1c-0.51,4.486-1.019,6.757-1.396,7.911
	c0.496-4.508,0.496-9.911,0.496-9.911s0-2.3-1.5-2.2s-1.1,2.3-1.1,2.3c0,1.5-0.2,8.7-0.4,11.3c-0.188,2.437-0.55,1.537-0.595,1.414
	c-0.002-0.006-0.003-0.009-0.005-0.014c-0.8-1.9,0.1-7.5,0.1-7.5s-0.1-1.7-1.2-1.8c-1.2-0.101-1.4,1.899-1.4,1.899s-0.7,4.4-0.1,7.7
	c0.226,1.242,0.565,1.931,0.9,2.308c0.366,0.509,0.962,1.095,1.906,1.727c0.077,0.989,0.081,1.836,0.046,2.559
	c-1.272-0.014-2.44-0.089-3.052-0.293c-1.8-0.6-9.3,0.601-9.3,0.601s-3.1,0.6-6.5,1.1h-1.3l-0.9,0.3c-1.6,0.2-3.2,0.301-4.4,0.2
	c-0.2-0.2-0.4-0.5-0.7-0.6h-0.6c0,0-0.6,0-1-0.2l-0.6-0.7c0,0-0.5-0.3-0.9-0.3c0,0-0.4-0.4-1-0.5c0,0-0.8-0.9-1.2-0.9
	c0,0-0.4-1.8-1.5-1.8l-0.7-0.3l-0.2-0.6c0,0-0.1-0.801-0.7-0.9l-1-0.4c0,0-0.7,0-1.4-0.399l-0.9-0.3c0,0,0-0.5-0.7-0.5
	c0,0-1.1-0.7-1.7-0.7c0,0-1.4-0.9-2-0.4c0,0-0.1,0.7-0.8,0.4l-0.2-0.4c0,0-0.3-0.399-0.9-0.5h-1.1c0,0-0.8,0.101-1.4,0
	c-0.5-0.1-1.1-0.1-1.1-0.1h-1c0,0-0.4-0.8-1.4-0.8l-1-0.101c0,0-0.3-0.399-1.2-0.5c0,0,0.2-0.8-0.4-1c0,0,0-1-0.4-1l-0.9-0.1
	c0,0-0.8-0.2-1-0.5l-0.4-0.7l-0.3-0.3c0,0-0.7-0.4-1.6-0.5c0,0-1.6,0.1-2.7-0.101l-0.9-0.3h-0.9c0,0-0.3-0.3-0.9-0.3
	c-0.6,0.1-1-0.5-2.3-0.4l-0.9,0.2c0,0-0.9,0.5-1.6,0.4c0,0-0.4,0.1-0.7,0.399c-0.3,0.301-0.3,0.301-0.3,0.301l-0.7,0.1
	c0,0-0.8-0.7-1.2-0.7c0,0-0.7-0.399-1.4-0.2l-1.4,0.601c0,0-1.3,0.5-1,1.6c0,0-0.8-0.3-0.9,0.2c0,0-1,0.7-0.8,1.5l-1,0.2
	c0,0-0.7,0.2-0.7,0.399c0,0.2-0.7,0.4-0.7,0.4l-0.6,0.8c0,0-0.5,0.2-0.3,1l-0.9,0.4c0,0-0.7,1.1-0.4,2c0,0-0.4,0.8-1,0.8
	c-0.6,0-0.6,0-0.6,0l-0.7,0.4l-0.4,0.399h-0.6c0,0-0.1,0.101-1.1,0c0,0-0.6-0.3-1.3-0.1h-1.1l-1,0.399l-1.3,0.301c0,0-1,0.1-1,0.399
	l-1,0.601l-0.947,0.092l-4.953-47.592l6.742-8.547l9.68-0.68l-0.07-0.997l-2.315,0.163l-0.089-1.276l0.735-0.052l-0.063-0.897
	l-2.195,0.153l0.063,0.898l0.761-0.054l0.089,1.276l-6.606,0.463l-0.103-1.465l0.648-0.046l-0.063-0.897l-2.195,0.154l0.063,0.897
	l0.848-0.06l0.103,1.465l-6.927,0.486l-1.907-18.787l-2.3,0.2l1.861,18.752l-4.735,0.332l-0.105-1.507l0.544-0.037l-0.063-0.898
	l-2.194,0.154l0.063,0.898l0.5-0.035c-0.437,0.365-1.144,0.936-2.106,1.66l-4.04,0.284l-0.1-1.431l0.732-0.052l-0.062-0.897
	l-2.195,0.153l0.063,0.897l0.764-0.053l0.042,0.601c-0.097,0.246-0.219,0.533-0.373,0.86l-2.156,0.151l0.07,0.997l1.555-0.108
	c-0.642,1.171-1.597,2.647-3.013,4.356c-4.613,2.708-10.586,5.743-17.819,8.478v0.153c7.158-2.725,13.083-5.747,17.671-8.457
	c-3.17,3.775-8.564,8.632-17.671,13.727v0.27c9.456-5.277,14.912-10.33,18.022-14.204c2.909-1.733,5.266-3.327,7.051-4.62
	l2.011-0.141l8.383,7.116l4.973,48.024l-0.772,0.075c0,0-1.4-0.3-2-0.1c0,0-1,0.2-1.1,0.399l-1.4,0.2c0,0-0.7,0.5-1.1,0.4
	c0,0-1,0-1.7-0.101c-0.7-0.199-1.7-0.199-1.7-0.199s-0.6-0.301-1.3,0c-0.8,0.3-1.6,0.899-1.6,0.899s-0.2,0.4-0.9,0.4l-0.3,0.399
	l-0.4,0.301c-2.7-0.101-6.3,0.3-6.3,0.3s-2.1,0.6-4.6,1.2c-0.2-0.2-0.6-0.5-1.2-0.5l-1.1,0.3l-0.9,0.2c0,0-1.3,0-2-0.101
	c-0.7-0.1-1.4,0.3-1.4,0.3s-0.4-0.1-0.6,0c-0.1,0-0.2,0-0.3,0c-0.1-0.1-0.3-0.199-0.5-0.1h-0.3c-0.1,0-0.2,0-0.3,0s-0.4-0.1-0.6,0
	c-2.275-0.071-4.797,0.11-6.068,0.221v31.779H452.87v-30.83C452.091,380.055,451.331,380.097,450.271,380.097z M172.299,338.854
	l3.375,0.202l-3.503,3.24L172.299,338.854z M23.442,318.175l0.054,0.774l-0.384,0.026C23.246,318.675,23.355,318.407,23.442,318.175
	z M19.851,324.183c1.292-1.628,2.167-3.041,2.757-4.168l4.114-0.289C24.966,320.979,22.669,322.515,19.851,324.183z M28.267,318.614
	c0.95-0.725,1.648-1.296,2.078-1.659l0.448-0.031l0.105,1.506L28.267,318.614z M30.049,319.492l6.381-0.448l0.641,6.453
	L30.049,319.492z M38.779,318.88l6.475-0.455l-5.783,7.272L38.779,318.88z M139.333,370.442c0.293-0.219,0.662-0.547,1.138-1.045
	c0.558-0.585,1.022-1.555,1.406-2.658c-0.507,3.417-2.012,4.16-2.724,4.316C139.216,370.864,139.276,370.661,139.333,370.442z
	 M148.155,376.604c-0.116-0.005-0.232-0.011-0.352-0.018c-0.037-0.812-0.286-2.107-1.348-3.288
	C148.245,373.965,148.302,375.612,148.155,376.604z M148.316,376.608c0.027-0.23,0.04-0.447,0.038-0.65
	c0.018,0.205,0.044,0.424,0.079,0.654C148.395,376.612,148.355,376.61,148.316,376.608z M167.635,338.575l3.437,0.206l-0.101,3.315
	L167.635,338.575z"/>
<g>
	<path fill="#5E0000" d="M161.799,338.158c0.166-0.064,0.332-0.127,0.498-0.193C162.131,338.031,161.965,338.094,161.799,338.158z"
		/>
	<path fill="#5E0000" d="M160.139,338.782c0.556-0.2,1.109-0.408,1.66-0.624C161.248,338.374,160.694,338.582,160.139,338.782z"/>
	<path fill="#5E0000" d="M159.667,338.948c0.157-0.055,0.314-0.11,0.472-0.166C159.981,338.838,159.824,338.894,159.667,338.948z"/>
	<path fill="#5E0000" d="M157.763,339.585c0.637-0.202,1.272-0.414,1.904-0.637C159.034,339.17,158.4,339.384,157.763,339.585z"/>
	<path fill="#5E0000" d="M162.296,337.965c0.693-0.277,1.385-0.563,2.071-0.868C163.681,337.4,162.99,337.688,162.296,337.965z"/>
	<path fill="#5E0000" d="M157.589,339.641c0.058-0.019,0.115-0.038,0.173-0.056C157.705,339.603,157.647,339.622,157.589,339.641z"
		/>
	<path fill="#5E0000" d="M74.395,327.841c18.751,6.843,44.478,13.956,70.373,13.956c1.409,0,2.819-0.025,4.23-0.069
		c-24.174,4.317-50.28-3.434-69.165-11.472c15.123,6.459,34.89,12.741,54.635,12.741c4.908,0,9.815-0.398,14.645-1.275
		c1.523-0.049,3.046-0.131,4.569-0.233c-1.465,0.095-2.933,0.159-4.401,0.204c2.801-0.515,5.576-1.193,8.309-2.052
		c-2.772,0.868-5.587,1.542-8.428,2.056c-27.654,0.818-55.616-6.904-75.495-14.193c-12.384-5.77-20.434-10.973-20.699-11.105
		c0.211,0.141,8.246,5.324,20.616,11.075c-16.677-6.12-27.645-11.921-27.916-12.075c0.238,0.143,11.521,6.158,28.638,12.411
		c1.374,0.632,2.804,1.271,4.276,1.909C77.14,329.091,75.743,328.463,74.395,327.841z"/>
	<path fill="#5E0000" d="M79.098,329.94c-0.173-0.074-0.344-0.148-0.516-0.223C78.753,329.792,78.925,329.866,79.098,329.94z"/>
	<path fill="#5E0000" d="M79.833,330.256c-0.246-0.104-0.491-0.21-0.735-0.315C79.342,330.046,79.585,330.151,79.833,330.256z"/>
	<path fill="#5E0000" d="M156.665,341.263c6.567-0.582,13.072-1.696,19.403-3.466C169.715,339.541,163.207,340.663,156.665,341.263z
		"/>
	<path fill="#5E0000" d="M155.871,341.324c0.265-0.022,0.529-0.038,0.793-0.062C156.4,341.286,156.136,341.302,155.871,341.324z"/>
	<path fill="#5E0000" d="M153.682,341.488c0.73-0.047,1.46-0.104,2.189-0.164C155.142,341.386,154.412,341.439,153.682,341.488z"/>
</g>
<path fill="#5E0000" d="M238.071,364.7c-33.101,0-57.9-26.4-58.2-26.7l0,0c0.3,0.3,29.6,31.2,66.4,26.2l0,0
	C243.47,364.5,240.771,364.7,238.071,364.7L238.071,364.7z"/>
<path fill="#5E0000" d="M247.47,364.8c-9.5,0-51-1.3-79.399-27.6l0,0c32,29.6,81.1,27.5,81.6,27.4l0,0
	C249.67,364.7,248.771,364.8,247.47,364.8L247.47,364.8z"/>
<g opacity="0.6">
	<path fill="#5E0000" d="M251.988,365.726l0.034-0.196l-0.472-0.084l0.049-0.278l0.059,0.011l0.035-0.196l-0.492-0.089l-0.035,0.197
		l0.236,0.042l-0.049,0.279l-1.47-0.262l0.049-0.271l0.024,0.005l0.035-0.196l-0.492-0.089l-0.035,0.197l0.271,0.048l-0.049,0.271
		h-0.002l-0.014-0.014l-0.012,0.009l-1.723-0.306l0.635-4.304h-0.5l-0.643,4.214l-1.081-0.192l0.05-0.296l0.021,0.003l0.034-0.197
		l-0.492-0.087l-0.035,0.196l0.276,0.05l-0.051,0.296l-1.614-0.286l0.052-0.307l0.183,0.033l0.035-0.197l-0.492-0.087l-0.035,0.196
		l0.112,0.02l-0.052,0.307l-0.587-0.104l-0.035,0.197l1.812,0.321l0.183,0.252c-0.712,1.27-4.056,5.768-14.201,5.413
		c-0.881-0.11-1.714-0.305-2.475-0.602c0.686,0.282,1.444,0.475,2.25,0.591c-0.645-0.026-1.312-0.068-2.012-0.137
		c0.788,0.082,1.541,0.141,2.257,0.172c0.636,0.08,1.285,0.132,1.941,0.132c4.582,0,9.886-1.655,13.505-3.063L243.97,387.4
		l0.601,0.1l3.074-20.427c1.664-0.67,2.882-1.25,3.378-1.52L251.988,365.726z M247.906,365.001l1.534,0.272l-1.77,1.327
		L247.906,365.001z M247.398,364.911l-0.228,1.489l-1.296-1.76L247.398,364.911z M231.799,370.274
		c0.327,0.012,0.657,0.025,0.972,0.025c9.232,0,12.279-4.236,12.943-5.465l1.357,1.865l-0.084,0.56
		C242.896,368.844,236.659,370.782,231.799,370.274z M247.656,366.997l0.015-0.097l2.145-1.561l1.168,0.208
		C250.469,365.798,249.273,366.351,247.656,366.997z"/>
	<path fill="#5E0000" d="M229.035,369.643c-0.261-0.107-0.528-0.208-0.764-0.343C228.516,369.427,228.771,369.54,229.035,369.643z"
		/>
	<path fill="#5E0000" d="M229.272,370.097c-0.26-0.027-0.524-0.056-0.793-0.088C228.745,370.039,229.014,370.072,229.272,370.097z"
		/>
	<path fill="#5E0000" d="M228.005,369.952c-0.558-0.072-1.133-0.156-1.734-0.252C226.868,369.8,227.442,369.881,228.005,369.952z"/>
	<path fill="#5E0000" d="M228.479,370.009c-0.158-0.02-0.313-0.035-0.474-0.057C228.167,369.974,228.32,369.989,228.479,370.009z"/>
</g>
<path opacity="0.4" fill="#5E0000" d="M228.449,369.736l0.937-0.112l-0.021-0.115l-0.279,0.033l-0.027-0.152l0.094-0.008
	l-0.021-0.115l-0.253,0.045l-0.007,0.096l0.114-0.01l0.014,0.155l-0.805,0.096l-0.017-0.146l0.099-0.012l-0.011-0.094l-0.279,0.033
	l0.011,0.094l0.087-0.012l0.018,0.146l-0.846,0.101l-0.312-2.194l-0.3,0.054l0.325,2.175l-0.572,0.068l-0.019-0.166l0.101-0.012
	l-0.011-0.094l-0.279,0.033l0.011,0.093l0.085-0.009l0.018,0.165l-0.812,0.097l-0.021-0.164l0.09-0.016l-0.017-0.093l-0.281,0.028
	l0.021,0.115l0.088-0.016c0,0.029,0,0.082-0.003,0.158l-0.267,0.032l-0.002,0.12l0.263-0.031c-0.06,0.945-0.485,3.913-3.387,6.236
	c-2.71,1.705-6.375,3.111-11.204,3.26c4.749-0.146,8.366-1.498,11.063-3.154c-1.346,1.04-3.199,1.941-5.764,2.454
	c2.678-0.53,4.583-1.473,5.942-2.556c2.531-1.59,4.208-3.43,5.222-4.773l1.425,9.87l0.277-0.05l-1.462-10.137
	C228.084,370.409,228.387,369.838,228.449,369.736z M228.195,369.767l0.25-0.029c-0.068,0.092-0.371,0.648-0.977,1.482l-0.059-0.406
	L228.195,369.767z M228.059,369.782l-0.673,0.893l-0.114-0.799L228.059,369.782z M226.985,369.91l0.115,0.769l-0.916-0.674
	L226.985,369.91z M225.371,369.825l0.008-0.002l0.018,0.157l-0.027,0.003C225.372,369.907,225.372,369.854,225.371,369.825z
	 M222.164,376.219c2.774-2.304,3.154-5.187,3.202-6.115l0.674-0.08l1.086,0.794l0.104,0.718
	C226.235,372.848,224.605,374.644,222.164,376.219z"/>
</svg>
