<?xml version="1.0" encoding="utf-8"?>
<!-- Generator: Adobe Illustrator 15.1.0, SVG Export Plug-In . SVG Version: 6.00 Build 0)  -->
<!DOCTYPE svg PUBLIC "-//W3C//DTD SVG 1.1//EN" "http://www.w3.org/Graphics/SVG/1.1/DTD/svg11.dtd">
<svg version="1.1" id="Layer_1" xmlns="http://www.w3.org/2000/svg" xmlns:xlink="http://www.w3.org/1999/xlink" x="0px" y="0px"
	 width="100%" height="100%" viewBox="1.75 256 840.25 233" enable-background="new 1.75 256 840.25 233" xml:space="preserve"
	>
<path fill="#5E0000" d="M842,389.491v-16.866l-0.058-0.028c-1,0.1-1.101,1.1-1.101,1.1l-1.1,0.2c-0.8,0.3-1,0.3-1,0.3l-0.1-0.6
	c0,0-0.7-0.101-1.4-0.101c-0.6,0-1.2-0.1-1.2-0.1c-0.3-0.2-1.2-0.3-1.2-0.3l-0.8-0.5l-0.399-0.5l-0.4-0.5l-0.6-0.8l-0.2-0.4
	c-0.5,0-0.601-0.5-0.601-0.5s-0.6-0.7-1.1-1s-1,0-1,0s-0.7,0.1-1.3,0.2c-0.5,0.1-1.3,0.1-1.3,0.1
	c-0.301,0.101-0.801-0.399-0.801-0.399l-1.1-0.301c-0.1-0.199-0.8-0.399-0.8-0.399c-0.4-0.2-1.5,0.1-1.5,0.1l-3.101-0.399
	l-0.699-0.7c0-0.3-0.7-0.5-0.7-0.5l-0.9-0.4l-0.7-0.5h-0.8c-0.5-0.3-1,0.101-1,0.101c-0.7,0.1-0.899,0.1-0.899,0.1h-0.4l-0.3-0.4
	l-0.5-0.5c0,0,0,0-0.4,0c-0.399,0-0.7-0.899-0.7-0.899c0.2-1.101-0.199-2.4-0.199-2.4l-0.601-0.399c0.101-0.9-0.2-1.101-0.2-1.101
	l-0.399-0.899c0,0-0.5-0.301-0.5-0.5c0-0.2-0.5-0.4-0.5-0.4l-0.7-0.3c0.1-1-0.6-1.7-0.6-1.7c-0.101-0.6-0.601-0.2-0.601-0.2
	c0.3-1.3-0.7-1.899-0.7-1.899l-1-0.7c-0.5-0.2-1.1,0.3-1.1,0.3c-0.3,0-0.9,0.9-0.9,0.9l-0.5-0.101c0,0,0,0-0.199-0.3
	c-0.201-0.3-0.5-0.4-0.5-0.4c-0.5,0.101-1.201-0.399-1.201-0.399l-0.6-0.2c-1-0.1-1.3,0.5-1.699,0.5c-0.4,0-0.601,0.3-0.601,0.3
	h-0.601l-0.6,0.3c-0.9,0.2-2,0.101-2,0.101c-0.6,0.1-1.199,0.6-1.199,0.6l-0.201,0.4l-0.299,0.8c-0.101,0.4-0.801,0.5-0.801,0.5
	l-0.6,0.1c-0.301,0-0.4,1.101-0.4,1.101c-0.4,0.2-0.4,1.1-0.4,1.1c-0.6,0.101-0.899,0.5-0.899,0.5l-0.7,0.101
	c-0.699,0.1-1.1,0.899-1.1,0.899l-0.7,0.101c0,0-0.399,0-0.899,0.1c-0.4,0.1-1.101,0-1.101,0l-0.899,0.1
	c-0.4,0.101-0.701,0.601-0.701,0.601l-0.1,0.5c-0.5,0.3-0.6-0.5-0.6-0.5c-0.4-0.601-1.5,0.5-1.5,0.5c-0.4,0-1.301,0.899-1.301,0.899
	c-0.5,0-0.5,0.601-0.5,0.601l-0.6,0.399c-0.5,0.5-1.1,0.5-1.1,0.5l-0.801,0.5c-0.399,0.2-0.6,1-0.6,1l-0.1,0.7l-0.5,0.4
	c-0.9,0.1-1.1,2.2-1.1,2.2c-0.301,0-0.9,1-0.9,1c-0.4,0.1-0.801,0.5-0.801,0.5c-0.299,0-0.6,0.399-0.6,0.399l-0.4,0.8
	c-0.299,0.2-0.799,0.2-0.799,0.2h-0.4c-0.4,0.101-0.7,1.101-0.7,1.101l-0.5,0.1c-0.7,0-1.399,0.4-1.399,0.4l-0.601-0.4l-0.3-0.7
	l-0.9-0.399h-1l-0.1,0.3l-0.6,0.2c-0.4,0-0.5,0.6-0.5,0.6l-0.201,0.5c0,0-0.299,0.3-0.899,0.5c-0.5,0.2-1.101-0.3-1.101-0.3
	l-0.5-0.5c0,0-0.6-0.3-1.299,0.2c-0.701,0.5-1.301,0.6-1.301,0.6l-1-0.4c-0.4-0.6-1.699,0-1.699,0h-0.601c0-0.3-1-0.699-1-0.699
	c-0.2-0.2-1.8-0.101-1.8-0.101c-0.4-0.3-1.7-0.6-1.7-0.6l-1.2-0.101h-1.1c-0.6,0.101-0.4,0.601-0.4,0.601l-0.9,0.1
	c-0.6,0-1.399,0.7-1.399,0.7l-0.5,0.2l-0.3,1.5c-0.5,0.1-0.4,1.399-0.4,1.399c-0.199,0.4-0.5,0.601-0.5,0.601c-0.6,0.1-2,1.7-2,1.7
	c0,0.1-0.1,0.1-0.1,0.199c-0.1,0.101-0.1,0.101-0.2,0.2c-0.3,0.3-1.2-0.1-1.2-0.1l-1-0.101l-0.8-0.3l-1.3-0.2l-1.1-0.3l-1-0.399
	l-0.801-0.101c-0.9,0.101-1.3-0.1-1.3-0.1l-0.7-0.7l-0.8-0.3c-0.7,0-1.2,0.1-1.2,0.1l-0.3,0.3l-1.7,0.5l-1.1,0.4l-0.6,0.3
	c0,0-0.4,0-1,0c0.1-0.2,0.199-0.399,0.199-0.399c0.7-4.9,0.5-11.801,0.301-15.5c6.399,2.6,9.6-12.4,9.6-12.4s0.9-3.3-1.1-3.9
	c-0.801-0.199-1.301,0-1.701,0.5c1.5-5.899,2.201-12.1,2.201-12.1s1.1-3.1-1.201-4.2c-2.299-1.1-2.899,2.2-2.899,2.2
	c-1.2,10.9-2.5,15.7-3.3,17.9c1.1-9.9,1.1-22.101,1.1-22.101s0-5.1-3.3-4.8c-3.2,0.3-2.3,5-2.3,5c0.1,1.9-0.1,8.4-0.301,14.4
	c-0.199-3-0.299-7.2-0.1-13.101c0,0,0.1-2.6-2.4-1.5c0,0-2.1,0.601-1.6,3.9c0.1,0.899,0.2,2.1,0.301,3.7
	c-0.101,0-0.201-0.101-0.301-0.101c-2.4-0.3-2.9,4-2.9,4s-1.6,9.5-0.199,16.601c0.5,2.399,1.1,3.8,1.8,4.699
	c0.7,1,2,2.301,3.899,3.601c0.601,7.1-0.399,11-1,12.5l-0.899-0.5h-0.601l-1.199,0.399c0,0,0,0-0.9,0.101
	c-0.9,0.1-1.699-0.4-1.699-0.4l-1.4-0.5c0,0-1.2,0-1.6,0c-0.4,0-1.301,0.4-1.301,0.4l-1.199,0.1l-1.101,0.101l-1.2-0.101l-0.699-0.2
	l-2.9,2.801c0,0-1.1-0.101-1.301-0.4c-0.199-0.3-1,0.1-1,0.1h-0.5l-0.6-0.3c-0.699-0.3-2.5-0.5-2.5-0.5h-1.3c0,0-0.7,0-1.3-0.399
	c-0.5-0.301-0.9-0.4-0.9-0.4s0,0-0.699,0.1c-0.701,0.101-0.801-0.3-0.801-0.3l-0.5-0.3l-0.699-0.3l-0.801-0.3l-0.6-0.2
	c0,0-0.4,0.3-0.9-0.4c-0.5-0.8-1-0.6-1-0.6s-0.8,0.2-1.5,0.1c-0.699-0.1-0.8,0.3-1.199,0.601c-0.4,0.3-1,0.5-1,0.5l-1.301,0.399
	l-1.199,0.3c0,0-0.201,0.4-1.101,0.5c-0.899,0.101-1,0.2-1,0.2l-1,0.101l-0.5,0.199c0,0-0.101,0.4-0.899,0.5
	c-0.701,0.101,1.199-2.6,1.199-2.6l-0.9,0.2c0,0-0.399,0.3-1.1,0.2c-0.6-0.101-1.1,0.3-1.1,0.3l-0.9,0.3l-0.8,0.1l-1.101-0.1
	l-0.299-0.2c0,0-0.301-0.2-1-0.1l-0.4-0.101c0,0-0.1,0.101-0.301,0.101l-0.399-0.101l-1-1.1l-0.8-0.6l-0.801-0.4
	c0,0-0.799-0.3-1.399-0.5c-0.5-0.2-2.101,0.1-2.101,0.1l-2.1-0.1c-1.1,0-3-1.1-3-1.1l-0.8-0.801l-0.899-0.399l-0.5-1
	c0,0-0.301-1-0.601-1.2c-0.3-0.3-1-0.4-1-0.4l-0.8-0.3l-0.5,0.101l-0.801-0.801c0,0,0-0.399-0.799-0.6c-0.801-0.2-1-1.1-1-1.1
	l-0.5-0.9l-0.601-0.1l-0.899-0.601l-1.101-0.399c0,0-0.2-0.801-0.7-0.801c-0.5,0.101-0.5-0.699-0.5-0.699s-0.6-0.7-1.699-0.9
	c-1.101-0.2-1.5-0.1-1.5-0.1l-0.9,0.3c0,0-0.6,0-1.801-0.8c-1.1-0.801-1.299-0.601-1.299-0.601l-0.601-0.8c0,0-0.7-0.4-1.399-0.7
	c-0.601-0.3-1.4-0.399-1.4-0.399l-0.7-0.101l-0.899,0.2c0,0-0.601,0.2-1.4,0.2c-0.7,0-1.7,0.399-1.7,0.399l-1.5,0.2
	c0,0-1,0.601-1.8,0.7c-0.801,0.1-1.301,0.1-1.301,0.1s-1.5,0.7-2,0.7s-1.6,0.4-1.6,0.4l-0.699,0.1h-1.301c-1.5,0-2.6,0.7-2.6,0.7
	l-0.801,0.4l-1.1,0.199l-1.199-0.1l-0.801-0.3c0,0-0.4,0.1-1.4,0c-1,0-0.5,0.6-0.5,0.6l-0.6-0.1l-0.5-0.4c0,0-1.199-0.3-2-0.3
	c-0.8,0-1.3,0.5-1.3,0.5s-0.2,0.3-0.899,1c-0.701,0.6-0.9,0.7-0.9,0.7l-1.6,0.5c-0.5,0.5-2.101,0.399-2.101,0.399l-1.3,0.2
	l-2.301-0.1c-1,0-2.299,0.399-2.299,0.399c-1.101,0.101-2-0.1-2-0.1h-1.201l-0.699-0.3h-1.1c0,0,0,0-0.7,0s-0.8,0.8-0.8,0.8
	l-0.5,0.1l-0.301,0.4c0,0,0.4,0.3,0,0.8c-0.399,0.5-2.1,0.2-2.1,0.2l-1.7-0.2c0,0-1.1,0.101-2.5,0c-1.5,0-2.1,0.7-2.1,0.7l-0.8,0.4
	l-0.801-0.101c-1-0.8-1.6,0.3-1.6,0.3s-1,0.101-2.5,0c-1.6-0.1-1.7,0.101-1.7,0.101h-0.399l-1.5,0.399c0,0-0.9,0.2-1.5,0.5
	c-0.601,0.301-1.5,0.101-1.5,0.101h-1.4c0,0-0.6,0-1.8,0.1c-1.2,0.101-2.101,0.5-2.101,0.5l-1.3-0.2l-1.1,0.101l-1.2,0.2
	c0,0-0.2,0.6-0.5,0.6c-0.2,0-0.5,0.2-0.7,0.3c-0.2,0-0.5,0-0.7-0.1c-0.5-0.101-0.899-0.4-1.3-0.601c-0.6-0.3-1.5-0.5-2-0.899
	c-0.399-0.3-0.399-0.5-0.899-0.8c-0.7-0.4-1.801-0.801-2.7-0.9c-0.5-0.1-1.101,0.2-1.601,0.1c-0.399-0.1-0.699-0.399-1.1-0.6
	c-0.7-0.4-1.8-0.3-2.6-0.6c-0.801-0.301-1.2-0.4-2-0.4c-0.801,0-1.301-0.2-2.101-0.4c-0.8-0.199-2.5,0-3.3,0.2
	c-0.7,0.2-1,0.3-1.8,0.3c-0.601,0-1.101,0.2-1.5,0.5c-0.7,0.5-1.5,0.4-2,1.101c-0.3,0.399-1,0.3-1.5,0.5s-0.4,0.5-0.9,0.7
	c-0.6,0.199-1.1,0.199-1.7,0.5c-0.8,0.699-2.1,0.399-2.8,1.199c-0.5,0.5-0.6,1.101-1.2,1.5c-0.399,0.2-1,0.2-1.5,0.4
	c-0.6,0.3-1.3,0.3-1.899,0.5c-0.601,0.2-1,0.7-1.8,0.7c-1,0-1.4,0.5-2.301,0.5c-1.1,0-1.8-0.101-2.699,0.3
	c-0.9,0.4-7.543,5.004-8.643,5.104c-0.7,7.9,30.942-1.203,44.542-0.804c2.601,0.101,5.101,0.2,7.7,0.2v0.1l111,3.301l32.3,0.899
	l5,2.601l66.2,1.1l31.7,0.9l11.899,1.3h14.801h5.6v0.1C839.242,390.696,840.478,390.426,842,389.491z M728.042,358.297
	c0.601-0.601,1.4-1.2,2.4-2.301c1.3-1.399,2.399-3.8,3.3-6.5c-1,7.9-4.4,9.601-6,10
	C727.842,359.097,727.942,358.696,728.042,358.297z M722.742,356.097c-0.7-1.8-0.8-5.3-0.6-8.5c0.399,2.1,1,4.2,1.699,6.5
	C723.442,358.396,722.742,356.097,722.742,356.097z"/>
</svg>
