<?xml version="1.0" encoding="utf-8"?>
<!-- Generator: Adobe Illustrator 15.1.0, SVG Export Plug-In . SVG Version: 6.00 Build 0)  -->
<!DOCTYPE svg PUBLIC "-//W3C//DTD SVG 1.1//EN" "http://www.w3.org/Graphics/SVG/1.1/DTD/svg11.dtd">
<svg version="1.1" id="Layer_1" xmlns="http://www.w3.org/2000/svg" xmlns:xlink="http://www.w3.org/1999/xlink" x="0px" y="0px"
	 width="100%" height="100%" viewBox="1.75 256 840.25 233" enable-background="new 1.75 256 840.25 233" xml:space="preserve"
	>
<g>
	<path fill="#762F2E" d="M798.4,381.3c-8.398,1.487-14.862,2.437-19.789,3.038c-8.757-0.34-17.69-0.656-26.764-0.951l0.053-1.087
		c-0.101-0.1-0.399-0.1-0.399-0.1H751.2h-0.4c-0.3-0.101-0.5-0.101-0.5-0.101H749.9h-0.4l-0.2-0.1H749c-0.101,0-0.101,0.2-0.101,0.2
		c-0.101,0-0.101-0.101-0.101-0.101h-0.399c-0.101,0-0.2,0.101-0.2,0.101l-0.101,0.1h-0.199l-0.2,0.101l-0.3,0.101
		c-0.2,0-0.301,0-0.301,0c-0.399,0-0.899,0.101-0.899,0.101l-0.601,0.101c-0.199,0.101-0.6-0.101-0.6-0.101l-0.601-0.101
		l-0.101-0.101l-0.2-0.101l-0.199-0.1c0,0-0.2-0.101-0.301-0.101c-0.1,0-0.199-0.101-0.199-0.101c0-0.101-0.101-0.2-0.101-0.2
		c-0.101-0.1-0.3-0.1-0.7,0c-0.399,0.102-1.3-0.1-1.3-0.1L741,381.6c-0.301-0.1-0.801-0.1-0.801-0.1H739.8c-0.101-0.1-0.2,0-0.2,0
		c-0.1,0.1-0.1,0.3-0.1,0.3v-0.2l-0.2-0.199c0,0-0.101-0.101-0.3-0.101c-0.2,0-0.4-0.101-0.4-0.101l-0.3,0.101v-0.101l-0.101-0.1
		c0,0-0.3,0-0.399,0.1c-0.101,0.101-0.2-0.1-0.2-0.1s-0.1-0.101-0.199-0.101c-0.101,0-0.399,0-0.399,0L736.9,381.1l-0.101-0.101
		l-0.3-0.101c-0.101,0-0.301,0.101-0.301,0.101h-0.3c0,0-0.101,0-0.301,0c-0.199,0-0.199-0.101-0.199-0.101H735c0,0,0,0-0.101,0.101
		s-0.2-0.101-0.2-0.101H734.5h-0.301c-0.101,0.101-0.3,0.299-0.3,0.299h-0.301h-0.1v0.201c0,0,0,0-0.101,0s-0.2,0.101-0.2,0.101
		c-0.101,0.101-0.199-0.101-0.199-0.101c0.1,0-0.101-0.601-0.101-0.601l-0.101-0.101h-0.3c-0.101,0-0.301,0.201-0.301,0.201h-0.3
		l-0.101,0.1c-0.101,0-0.2,0.3-0.2,0.3h-0.1c0,0-0.2,0.3-0.2,0.399c-0.035,0.035-0.082,0.055-0.128,0.07
		c-2.651-1.265-6.592-2.91-8.367-2.466c-2.801,0.7-9.801-1.3-9.801-1.3s-5.199-0.6-7.199,0s-8.801-0.8-8.801-0.8
		s-3.199-0.701-4-0.101c-0.114,0.086-0.252,0.14-0.398,0.178c0.093-0.595-0.102-1.279-0.102-1.279l-0.301-0.2
		c0.101-0.5-0.101-0.6-0.101-0.6l-0.199-0.5c0,0-0.301-0.101-0.301-0.3c0-0.102-0.3-0.2-0.3-0.2L690.9,374.1
		c0.101-0.5-0.301-0.899-0.301-0.899c0-0.3-0.3-0.101-0.3-0.101c0.101-0.699-0.399-1-0.399-1l-0.5-0.399
		c-0.301-0.101-0.601,0.2-0.601,0.2c-0.2,0-0.5,0.5-0.5,0.5L688,372.3c0,0,0,0-0.101-0.2c-0.101-0.199-0.301-0.199-0.301-0.199
		c-0.3,0.101-0.6-0.199-0.6-0.199l-0.301-0.102c-0.5-0.1-0.699,0.301-0.899,0.301s-0.3,0.199-0.3,0.199h-0.301l-0.3,0.2
		c-0.5,0.101-1.101,0.101-1.101,0.101c-0.3,0-0.601,0.301-0.601,0.301l-0.101,0.199l-0.199,0.399c-0.101,0.2-0.399,0.3-0.399,0.3
		l-0.301,0.102c-0.199,0-0.199,0.6-0.199,0.6c-0.2,0.102-0.2,0.602-0.2,0.602c-0.3,0-0.5,0.3-0.5,0.3l-0.399,0.1
		c-0.399,0-0.601,0.5-0.601,0.5h-0.399c0,0-0.2,0-0.399,0.101c-0.2,0.101-0.601,0-0.601,0H678.5c-0.2,0-0.301,0.301-0.301,0.301
		l-0.101,0.3c-0.3,0.2-0.3-0.3-0.3-0.3c-0.176-0.265-0.66,0.167-0.774,0.275c-0.526-0.009-1.184,0.062-2.023,0.32
		c-2.599,0.801-5.399,0.5-5.399,0.5s-2.6-0.699-4.899,1.5c-2.2,2.2-14.7,1.5-14.7,1.5s-2.6-0.701-4-0.1
		c-1.4,0.599-4.6-0.301-4.6-0.301s-4.4-1-7,0c-2.601,1-12.801-0.899-12.801-0.899s-6.6-1-8.199-0.399
		c-0.926,0.289-3.255,0.311-5.056,0.276l-0.047-0.077l-0.3-0.102l-0.5-0.299l-0.6-0.201c0,0-0.102-0.398-0.4-0.398
		s-0.3-0.398-0.3-0.398s-0.3-0.4-0.9-0.5c-0.6-0.102-0.8-0.301-0.8-0.301l-0.5,0.199c0,0-0.3,0-0.9-0.398
		c-0.6-0.4-0.699-0.301-0.699-0.301L602.1,375.7c0,0-0.398-0.2-0.699-0.4s-0.699-0.2-0.699-0.2l-0.4-0.1l-0.5,0.1
		c0,0-0.3,0.102-0.7,0.102c-0.398,0-0.898,0.199-0.898,0.199l-0.801,0.101c0,0-0.5,0.3-1,0.399c-0.399,0-0.699,0.101-0.699,0.101
		s-0.801,0.399-1.102,0.399c-0.3,0-0.8,0.199-0.8,0.199h-0.399H592.7c-0.801,0-1.4,0.301-1.4,0.301L590.9,377.1l-0.601,0.102
		l-0.6-0.102l-0.4-0.1c0,0-0.2,0-0.7,0s-0.3,0.3-0.3,0.3l-0.3-0.1l-0.3-0.2c0,0-0.602-0.1-1.102-0.2c-0.398,0-0.699,0.2-0.699,0.2
		s-0.101,0.2-0.5,0.5c-0.301,0.3-0.5,0.4-0.5,0.4l-0.801,0.299c-0.3,0.301-1.1,0.201-1.1,0.201l-0.5,0.199l-1.2-0.101
		c-0.5,0-1.2,0.2-1.2,0.2c-0.6,0.1-1.1,0-1.1,0H578.4L578,378.5h-0.6c0,0,0,0-0.399,0c-0.4,0-0.4,0.4-0.4,0.4h-0.3l-0.2,0.199
		c0,0,0.2,0.199,0,0.399c-0.199,0.3-1.1,0.101-1.1,0.101l-0.9-0.101c0,0-0.6,0-1.3,0c-0.8,0-1.1,0.399-1.1,0.399l-0.4,0.199
		l-0.399-0.1c-0.5-0.4-0.801,0.1-0.801,0.1s-0.5,0.102-1.3,0c-0.558-0.069-0.771,0.007-0.852,0.06
		c-4.365-0.026-8.735-0.051-13.112-0.071c-0.179-0.034-0.358-0.196-0.538-0.286c-0.399-0.2-0.899-0.1-1.399-0.3
		c-0.399-0.2-0.601-0.2-1.101-0.2c-0.399,0-0.7-0.1-1.1-0.2c-0.4-0.1-1.301,0-1.801,0.102c-0.399,0.1-0.5,0.199-0.899,0.199
		c-0.3,0-0.601,0.101-0.8,0.199c-0.335,0.168-0.667,0.209-0.943,0.449c-106.732-0.424-216.259,0.718-308.856,2.251
		c-1.6-0.3-3.3-0.1-4.6,0.101c-0.4,0-0.9,0-1.3,0c-0.9-0.101-3.9-0.399-8.101-0.399c-0.6-0.399-0.899-0.8-0.899-0.8
		c-2-1.5-4.601,0.398-5.5,1.1c-0.601,0.102-1.2,0.102-1.8,0.2c-2.5-0.2-5.4-0.399-7.7-0.5c-1-0.101-2-0.2-3-0.2
		c-1.101-0.1-1.7-0.1-1.7-0.1l-3.6-0.5c0,0-7.5,0.1-14.601,0.8c-1-0.101-1.899-0.101-2.899-0.101
		c-2.101,0.199-4.601,0.801-6.801,0.5c-1.899,0-4,0.101-5.899-0.101c-1.101-0.1-2.2-0.399-3.4-0.5c-1.2-0.1-4.1-0.6-5.1,0.5
		c0,0,0,0-0.101,0.101C145.7,381.5,93,378.8,80.2,383.1c-0.801,0.301-1.7,0.5-2.5,0.801c-15.7,1.5-38.1,2-40.7,2.1
		c-2.4-0.1-3.9-0.3-3.9-0.3s-17.1-1.429-31.413,1.776v4.001l0.014,0.022V489H842V380.997
		C837.445,380.023,821.222,377.258,798.4,381.3z"/>
	<path fill="#5E0000" d="M206.9,379.6c0,0,1.2,0.5,1.101,1.801h0.1C208.1,381.3,208.3,380.1,206.9,379.6z"/>
	<path fill="#5E0000" d="M208.1,381.3c0,0,0.5-1.3-1-1.3C207.1,380,208.5,379.9,208.1,381.3L208.1,381.3z"/>
	<path fill="#5E0000" d="M208.4,381.3c0,0-0.3-1.2,0.2-1.399C208.6,379.9,208,380,208.4,381.3L208.4,381.3z"/>
	<path fill="#5E0000" d="M208.5,381.3c0,0-0.2-1.3,0.899-1.3C209.3,380,208.3,379.9,208.5,381.3L208.5,381.3z"/>
	<path fill="#5E0000" d="M208.6,381.3c0,0,0.5-0.5,0.3-1.5C208.9,379.8,209.1,380.7,208.6,381.3L208.6,381.3z"/>
	<path opacity="0.3" fill="#FFFFFF" enable-background="new    " d="M690.3,395.2c-0.399-0.2-0.601-0.3-0.601-0.3
		C689.9,395,690.1,395.1,690.3,395.2z"/>
	<path opacity="0.28" enable-background="new    " d="M693.699,405.3h-0.101c0,0.2,0.101,0.4,0.101,0.7
		C693.699,405.7,693.699,405.5,693.699,405.3z"/>
	<path opacity="0.28" enable-background="new    " d="M703.8,407.6c-2.7-0.398,0.7-1.5,0.7-1.5s3.5-1.6-3.4-1
		c-0.399,0-0.8,0.102-1.199,0.102c0,0.898-0.2,2-0.5,3.2h-0.5c0,0,0.5-1.4,0.6-3.2c-0.3,0-0.6,0-0.899,0.1
		c0.301,1.8,0.101,3.102,0.101,3.102h-0.5c0.101-1.102,0.101-2.102,0-3.102c-1.899,0.102-2.8,0.102-3.899,0
		c-0.101,1.5-0.301,2.5-0.301,2.5H693.8c0,0.102,0,0.102,0,0.102h-0.5c0.101-1,0.101-1.9,0-2.602c-0.301,0-0.5,0-0.801,0
		c0.101,1.5-0.1,2.7-0.1,2.7h-0.5c0.1-1,0.199-1.9,0.1-2.7c-0.8,0-1.699-0.1-2.8-0.1c-6.601-0.102-1.5,1.2-1.5,1.2
		s6.5,0.1,1.7,2.198c-4.801,2.102,2,1.2,7.8,1.7s3.3-0.3,3.3-0.3s-2.6-0.5,4.7-0.9C712.4,408.6,703.8,407.6,703.8,407.6z"/>
	<path opacity="0.3" fill="#FFFFFF" enable-background="new    " d="M695.3,398.7c-0.601-0.7-1.399-1.3-2.2-1.9
		c-0.199-0.3-0.3-0.6-0.5-0.899c0.101,0.101,0.2,0.399,0.4,0.801c-0.801-0.5-1.601-1-2.601-1.4c0.601,0.301,1.601,0.8,2.699,1.7
		c0.101,0.4,0.301,0.8,0.4,1.4c-1.4-0.2-2.4-0.102-2.4-0.102c0.9,0,1.7,0.102,2.5,0.2c0.4,1.6,0.601,4.1,0.2,7.6
		c-0.2-2-0.8-5-2.899-6c-0.899-1.1-2.2-1.898-4.2-1.898c0.801,0,2.399,0.2,3.7,1.7c-0.7-0.2-1.601-0.302-2.601,0
		c0.601-0.102,1.7-0.2,2.8,0.3c1.101,1.398,1.801,3.8,1.301,7.8h0.5c0,0,0.601-4.6-1.301-7.5c1.301,0.9,2.5,3,2.2,7.5h0.5
		c0,0,0,0,0-0.1h0.2c0,0,0.899-5.5-0.2-9.5c0.5,0.1,0.899,0.198,1.3,0.3c1.9,2.1,3.5,5.3,3.101,9.7h0.5c0,0,0.801-5.102-3.101-9.5
		c6,2.398,3.4,9.5,3.4,9.5h0.5C701,402.1,698.1,399.6,695.3,398.7z M693.699,398.3c-0.101-0.5-0.3-0.898-0.5-1.3
		c0.601,0.4,1.101,1,1.7,1.5C694.5,398.4,694.1,398.3,693.699,398.3z"/>
	<path opacity="0.3" fill="#FFFFFF" enable-background="new    " d="M686.1,398.1c0.2,0,0.301,0,0.5,0
		C686.3,398.1,686.1,398.1,686.1,398.1z"/>
	<path opacity="0.3" fill="#FFFFFF" enable-background="new    " d="M692.5,395.8L692.5,395.8L692.5,395.8z"/>
	<path opacity="0.3" fill="#FFFFFF" enable-background="new    " d="M687.6,399.7c-0.199,0-0.3,0.1-0.3,0.1
		C687.4,399.8,687.5,399.7,687.6,399.7z"/>
	<path opacity="0.3" fill="#FFFFFF" enable-background="new    " d="M748.5,419.7c-0.7-0.4-1.101-0.602-1.101-0.602
		C747.8,419.3,748.1,419.5,748.5,419.7z"/>
	<path opacity="0.28" enable-background="new    " d="M753.4,436.6H753.3c0,0.2,0,0.5,0.101,0.7C753.3,437,753.4,436.8,753.4,436.6z
		"/>
	<path opacity="0.28" enable-background="new    " d="M768.199,440.4c-3.899-0.7,1-2.602,1-2.602s4.601-2.398-3.601-1.7
		c-0.1,3.5,0.7,5.602,0.7,5.602l-0.5-0.2c-0.601-1.8-0.8-3.6-0.7-5.4c0,0,0,0-0.1,0c-0.301,2.802,0,5.102,0,5.102l-0.5-0.102
		c-0.101-1.898,0-3.5,0.1-4.898c-0.199,0-0.3,0-0.5,0c-0.399,0-0.699,0.1-1.1,0.1c0.3,3.102,0.899,5.5,0.899,5.5h-0.801
		c-0.199-1.398-0.399-2.6-0.5-3.8c-0.1,1.2-0.3,2.4-0.6,3.8h-0.9c0,0,0.801-2.398,0.801-5.398c-0.5,0-1,0.1-1.5,0.1
		c0.399,3.1,0.101,5.3,0.101,5.3h-0.801c0.2-1.898,0.2-3.7,0-5.3c-1.899,0.1-3.101,0.2-4.199,0.1c0.1,2.4,0.3,4.302,0.3,4.302h-0.5
		c-0.101-1.602-0.2-3-0.3-4.302c-0.4,0-0.801,0-1.2-0.1c-0.101,2.4-0.399,4.1-0.399,4.1h-0.2c0,0.102,0,0.2,0,0.2l-0.8-0.1
		c0.101-1.602,0.101-3,0-4.3c-0.399,0-0.801-0.102-1.301-0.102c0.101,2.602-0.1,4.5-0.1,4.5l-0.7-0.1c0.2-1.602,0.2-3.102,0.2-4.4
		c-1.101-0.1-2.601-0.1-4.4-0.2c-9.699-0.198-2.199,2-2.199,2s9.699,0.2,2.5,3.7c-7.101,3.4,2.8,2,11.5,2.8
		c8.699,0.802,4.899-0.5,4.899-0.5s-3.899-0.6,7-1.398C780.9,442,768.199,440.4,768.199,440.4z"/>
	<path opacity="0.3" fill="#FFFFFF" enable-background="new    " d="M766.3,423.1c0,0-3.8,1-4,10c-0.8-3.898-3.2-6.1-5.601-7.198
		c0.601-1.102,1.399-1.602,2.601-1.102c0,0-1.601-1.1-2.8,1c-0.301-0.1-0.5-0.2-0.801-0.3c-0.899-1.1-2-2.2-3.3-3.2
		c-0.301-0.6-0.601-1.2-0.899-1.7c0,0,0.3,0.5,0.699,1.5c-1.101-0.8-2.3-1.6-3.699-2.398c0.899,0.5,2.3,1.398,3.8,2.7
		c0.2,0.6,0.399,1.398,0.601,2.398c-2-0.3-3.4-0.2-3.4-0.2c1.301,0,2.4,0.102,3.5,0.302c0.601,2.698,0.9,6.698,0.4,12.398
		c-0.301-3.398-1.2-8.1-4.4-9.8c-1.3-1.9-3.199-3.1-6.1-3.1c1.199,0,3.6,0.398,5.399,2.8c-1-0.4-2.3-0.4-3.8-0.102
		c0.8-0.198,2.5-0.3,4.1,0.5c1.601,2.302,2.7,6.302,2,13.2l0.7,0.102c0,0,0.899-7.9-2-12.802c2,1.602,3.8,5.102,3.3,12.7
		l0.801,0.102c0,0,0-0.102,0-0.2h0.199c0,0,1.301-9.102-0.3-15.8c0.7,0.1,1.399,0.3,2,0.6c0.3,0.3,0.5,0.7,0.8,1.1
		c-0.899,2.102-1.399,6.302-0.699,14.5h0.5c0,0-1.101-9.698,0.399-14.198c2.399,3.6,4.2,8.5,3.5,15.1h0.8c0-0.1,1.2-8.2-4.1-15.5
		c0.1-0.1,0.1-0.2,0.199-0.4c8.2,4.2,4.5,15.802,4.5,15.802h0.899c0.301-1.4,0.5-2.602,0.601-3.802c0.101,1.2,0.301,2.4,0.5,3.802
		H764C763.9,441.8,760.199,426.3,766.3,423.1z M753.3,424.8c-0.2-0.8-0.399-1.5-0.7-2.2c0.801,0.7,1.7,1.602,2.5,2.602
		C754.5,425,753.9,424.9,753.3,424.8z M756.3,426.1c-0.101-0.1-0.2-0.3-0.3-0.398c0.199,0.1,0.3,0.1,0.399,0.2
		C756.3,426,756.3,426,756.3,426.1z"/>
	<path opacity="0.3" fill="#FFFFFF" enable-background="new    " d="M767.1,428.3c0.7-1.898,1.601-3.898,2.9-5.898
		c0,0-2.101,2.8-3.5,6.898c-1.4,2.4-2.301,6.102-2,11.8l0.5,0.102c0,0-0.301-2.7,0.1-5.9c-0.199,2,0,4.102,0.7,6.2l0.5,0.2
		c0,0-1.7-5.102,0.3-12c1.4-2.9,3.801-5.102,8.101-4.8C774.699,424.9,770.1,424.1,767.1,428.3z"/>
	<path opacity="0.3" fill="#FFFFFF" enable-background="new    " d="M742.1,424.4c0.2,0,0.5,0,0.7,0
		C742.4,424.4,742.1,424.4,742.1,424.4z"/>
	<path opacity="0.3" fill="#FFFFFF" enable-background="new    " d="M744.4,427.1c-0.301,0.102-0.5,0.102-0.5,0.102
		C744.1,427.1,744.3,427.1,744.4,427.1z"/>
	<path opacity="0.3" fill="#FFFFFF" enable-background="new    " d="M676.699,417c-1.101-0.5-1.8-0.8-1.8-0.8
		C675.5,416.5,676.1,416.7,676.699,417z"/>
	<path opacity="0.28" enable-background="new    " d="M734.5,444c-10.2,0.2-13.5,0.8-17.7,0.9c-1,3-2.601,5.898-4.899,8.398
		l-1.101-0.2c0,0,2.7-2.8,4.8-8.198c-1.899,0-4.199-0.102-7.399-0.302c-0.5,4.602,0,8.302,0,8.302l-0.9-0.301
		c-0.2-3-0.101-5.6,0.101-8c-0.9-0.1-1.9-0.198-3-0.198c0.6,5.398,1.699,9.698,1.699,9.698h-1.5c-0.5-2.398-0.8-4.6-1-6.698
		c-0.199,2-0.5,4.3-1.199,6.698H700.8c0,0,1.601-4.5,1.601-9.8c-0.5,0-1-0.1-1.601-0.2c-0.5-0.1-1-0.1-1.5-0.1
		c1.101,5.9,0.399,10.1,0.399,10.1h-1.5c0.399-3.698,0.3-7.1-0.2-10.198c-15.6-1.2-6.8,3.1-6.8,3.1s9.399,3.3,2,4.5
		c0,0-24.101,2.9-3.5,4.3c20.601,1.4,13.2,2.602,13.2,2.602s-7.101,2.398,9.3,0.8c16.399-1.5,35.3,1.1,21.7-5
		c-13.601-6.102,4.699-6.602,4.699-6.602S752.9,443.6,734.5,444z"/>
	<path opacity="0.3" fill="#FFFFFF" enable-background="new    " d="M710.8,422.9c0,0-7.399,1.698-7.601,16.8
		c-1.699-7.5-7.101-11.102-12.399-12.9c-3.399-3.6-7.899-7-14.101-9.8c2.801,1.3,8.101,4.3,12.899,9.5
		c-5.6-1.6-10.699-1.2-10.699-1.2c4.399,0,8.101,0.602,11,1.5c5.399,6,9.8,14.8,8.399,27.2h1.5c0,0,2.399-14.4-8.601-26.7
		c17.101,6.5,9.7,26.7,9.7,26.7h1.601c0.6-2.4,1-4.6,1.199-6.7c0.2,2.102,0.601,4.3,1,6.7h1.5
		C706.199,454,699.199,428.2,710.8,422.9z"/>
	<path opacity="0.3" fill="#FFFFFF" enable-background="new    " d="M726.6,425.7c0,0-4.1-0.602-8.5,1.2c-0.5-3.602-1.199-6-1.199-6
		c0.5,2.1,0.8,4.198,1,6.1c-5.601,2.4-11.5,8.9-10.601,25.6l0.899,0.302c0,0-2.3-20,9.7-25.7c1.601,16.8-7.101,25.898-7.101,25.898
		l1.101,0.2c7.199-7.8,7.199-19.3,6.199-26.2C720.4,426,723.199,425.5,726.6,425.7z"/>
	<path fill="#762F2E" d="M780.742,384.067c0.516-0.067,1.047-0.139,1.593-0.213C781.789,383.929,781.258,384,780.742,384.067z"/>
	<path fill="#762F2E" d="M784.938,383.487c0.728-0.105,1.476-0.216,2.251-0.334C786.413,383.271,785.665,383.382,784.938,383.487z"
		/>
	<path fill="#762F2E" d="M787.31,383.135c0.713-0.108,1.45-0.224,2.205-0.343C788.76,382.911,788.022,383.026,787.31,383.135z"/>
	<path fill="#762F2E" d="M795.583,381.791c0.916-0.158,1.851-0.32,2.817-0.491C797.434,381.471,796.499,381.633,795.583,381.791z"/>
	<path fill="#762F2E" d="M790.242,382.676c0.578-0.092,1.166-0.188,1.767-0.286C791.408,382.488,790.82,382.584,790.242,382.676z"/>
	<path fill="#762F2E" d="M792.892,382.244c0.607-0.101,1.229-0.205,1.86-0.312C794.121,382.039,793.499,382.144,792.892,382.244z"/>
	<path fill="#762F2E" d="M782.826,383.787c0.546-0.076,1.107-0.155,1.683-0.238C783.934,383.632,783.371,383.711,782.826,383.787z"
		/>
	<path opacity="0.3" fill="#FFFFFF" enable-background="new    " d="M789.515,382.792c0.238-0.037,0.485-0.077,0.728-0.116
		C790,382.715,789.753,382.755,789.515,382.792z"/>
	<path opacity="0.3" fill="#FFFFFF" enable-background="new    " d="M792.009,382.39c0.292-0.048,0.586-0.096,0.883-0.146
		C792.595,382.294,792.301,382.342,792.009,382.39z"/>
	<path opacity="0.3" fill="#FFFFFF" enable-background="new    " d="M787.188,383.153c0.04-0.006,0.081-0.013,0.121-0.019
		C787.27,383.141,787.228,383.147,787.188,383.153z"/>
	<path opacity="0.3" fill="#FFFFFF" enable-background="new    " d="M794.752,381.932c0.277-0.047,0.549-0.093,0.831-0.141
		C795.301,381.839,795.029,381.885,794.752,381.932z"/>
	<path opacity="0.3" fill="#FFFFFF" enable-background="new    " d="M780.423,384.109c0.105-0.014,0.214-0.028,0.319-0.042
		C780.636,384.081,780.528,384.096,780.423,384.109z"/>
	<path opacity="0.3" fill="#FFFFFF" enable-background="new    " d="M784.509,383.549c0.144-0.021,0.283-0.04,0.429-0.062
		C784.792,383.509,784.652,383.528,784.509,383.549z"/>
	<path opacity="0.3" fill="#FFFFFF" enable-background="new    " d="M782.335,383.854c0.163-0.022,0.326-0.045,0.491-0.067
		C782.661,383.81,782.498,383.832,782.335,383.854z"/>
	<path opacity="0.3" fill="#FFFFFF" enable-background="new    " d="M842,380.997c-4.555-0.974-20.778-3.739-43.6,0.303
		c-0.967,0.171-1.901,0.333-2.817,0.491c-0.282,0.048-0.554,0.094-0.831,0.141c-0.631,0.107-1.253,0.212-1.86,0.312
		c-0.297,0.05-0.591,0.098-0.883,0.146c-0.601,0.099-1.188,0.194-1.767,0.286c-0.242,0.039-0.489,0.079-0.728,0.116
		c-0.755,0.119-1.492,0.234-2.205,0.343c-0.04,0.006-0.081,0.013-0.121,0.019c-0.775,0.118-1.523,0.229-2.251,0.334
		c-0.146,0.021-0.285,0.041-0.429,0.062c-0.575,0.083-1.137,0.162-1.683,0.238c-0.165,0.022-0.328,0.045-0.491,0.067
		c-0.546,0.074-1.077,0.146-1.593,0.213c-0.105,0.014-0.214,0.028-0.319,0.042c-12.418,1.61-16.123,1.19-16.123,1.19
		c-17-0.1-26.2,3.101-30.7,5.4c-0.199-0.101-0.6-0.101-1-0.2c-1.3-0.2-1.1-0.6-1.1-0.6s-0.5-1.801-1.9-2.102
		c-1.399-0.3-1.3,0.301-1.3,0.301s-1.101,0.801-2.399,1c-1.301,0.199-2.7,1.601-2.7,1.601l-2.5,2.6l-2.101-0.1L715.9,393.1
		l-1.301,0.399l-1.3-0.5c0,0-1.399,0.3-2.2,0.3c-0.8,0-1.199-1.898-1.199-1.898s-2.4-1.9-2.4-1.2c0,0.8-2.6,1.5-2.6,1.5
		s-1.2,0.1-0.9,0.899c0.301,0.801-2.5,1.5-2.5,1.5l-3.3,0.699c0,0,1.2,0.301,2.601,0.2c1.399-0.101,3.601,0.5,3.601,0.5l2,0.5
		l3.3,0.2c0,0,1.2,0.5,1.399,1.3c0.301,0.8-2.3,1.3-2.699,2.2c-0.301,1-0.9,2.7,0.399,1.398c1.3-1.3,6.8-3.398,6.8-3.398l0.7-0.102
		c5.5,0.2,6.199,2,6.199,2.102c1.101,2.2,4.601,0.2,4.601,0.2c0.899,1.8,2.801-1.5,2.801-1.5c0.899,2.698,14,0.8,14,0.8
		c0,2.6,10.8-3,10.8-3c3.3-0.801,19.2-1.102,19.2-1.102s17.699,0.4,30.6-1.3s10.101-3,10.101-3s-0.399-3.8,10.101-1.101
		c10.5,2.701,0,0,10.8-1.299c2.313-0.278,4.487-0.308,6.498-0.197V380.997z"/>
	<path opacity="0.3" fill="#FFFFFF" enable-background="new    " d="M265.7,386.9c0,0-9-2.2-12.4-2.2c-3.4,0.1-14.1-1.9-14.1-1.9
		c-2.301-1.1-5.7-0.7-7.601-0.3l0.101-0.1c0,0-3.301-0.5-8.4-0.4c-0.6-0.4-0.9-0.8-0.9-0.8c-2-1.5-4.6,0.399-5.5,1.1
		c-0.6,0.101-1.199,0.101-1.8,0.2c-2.5-0.2-5.399-0.4-7.7-0.5c-1-0.1-2-0.2-3-0.2c-1.1-0.1-1.699-0.1-1.699-0.1l-3.601-0.5
		c0,0-7.5,0.1-14.6,0.8c-1-0.1-1.9-0.1-2.9-0.1c-2.1,0.199-4.6,0.8-6.8,0.5c-1.9,0-4,0.1-5.9-0.102c-1.1-0.1-2.199-0.398-3.399-0.5
		c-1.2-0.1-4.101-0.6-5.101,0.5c0,0,0,0-0.1,0.102c-14.7-0.9-67.4-3.602-80.2,0.699c-0.8,0.301-1.7,0.5-2.5,0.801
		c-15.7,1.5-38.1,2-40.7,2.1c-2.4-0.1-3.9-0.3-3.9-0.3s-17.021-1.424-31.312,1.751v4.198L1.9,392c0,0,18.2-2.6,60.601-0.4
		C68.2,391.9,73,392,76.9,392.1c2.5,0.4,7.801,1.4,11,3.5c0,0,5.9,3.5,8.4,3.5s6.9,2.102,6.9,2.102s5.899,3.2,3.6,0.898
		c-2.3-2.3-4-3.6-4-3.6s-4.8-0.5-4.6-3.4c0.199-2.898-3-2-3-2s-6.2-0.5-4-1.8c6.8-1.3,2.6-3.6,2.6-3.6s-2.1-3,6.4,0
		c8.6,3,19.699-0.9,19.699-0.9s21.4-2.6,32.2,0.9c0,0,33.9,4.7,38.601,0c0,0,20.199-3,32.6,2.6c0,0,0.2-2.8,6.9-0.2
		c6.699,2.602,4.899-1.3,4.899-1.3s2.101,1.7,4.3,1.3C241.5,389.7,251.2,392,251.2,392s-17.9-7.8-19.2-4.4c0,0-14.7-2.3-26.8-3
		c1.199-0.1,2.399-0.398,3.399-0.8c0.2-0.1,0.4-0.2,0.5-0.3c1.601,0,3,0.1,3.9,0.1c2.7,0,5.5,1.102,5.5,1.102s2.399,1,1.399-0.4
		c-1-1.398,2.4-0.5,2.4-0.5s2.6,0.102,6,0.5c3.5,0.4,3.3,0.2,3.3,0.2c0.601-1.399,3.4-0.7,3.4-0.7s2.6,0.7,4.1,0.9
		c1.5,0.199,1.7-0.9,1.7-0.9c1.5,1.301,3.6,1.301,3.6,1.301s5-0.199,6.7,0.5c1.8,0.699,5.2,1.101,5.2,1.101s-4.4,0,4.5,0.399
		C269.8,387.4,265.7,386.9,265.7,386.9z"/>
	<path fill="#762F2E" d="M233.3,307.5c0,0-1.2-11.1-7.5-10.3c-0.276,0.035-0.526,0.104-0.78,0.17c0.274-3.649,0.48-6.624,0.78-8.771
		c1.2-8.6-4.1-10.1-4.1-10.1c-6.5-2.7-6.2,3.8-6.2,3.8c0.58,15.776,0.319,26.851-0.36,34.628
		c-0.612-15.878-0.989-33.379-0.739-38.326c0,0,2.4-11.801-5.899-12.601s-8.3,12.2-8.3,12.2s0,30.881,2.827,55.91
		c-2.126-5.579-5.262-17.906-8.43-45.111c0,0-1.6-8.3-7.5-5.5c-5.899,2.8-3.2,10.7-3.2,10.7s1.57,15.283,5.346,29.988
		c-0.862-0.673-2.04-0.992-3.645-0.488c-5.1,1.6-2.8,9.899-2.8,9.899s8.267,38.278,24.427,31.789
		c-0.536,9.538-1.117,26.745,0.673,39.211c0,0,1.4,7.602,12,1.102c0,0-3.438-10.741-1.009-34.493
		c8.391-5.595,11.61-10.5,12.728-13.993c0.771-1.961,1.485-4.415,2.081-7.515C237.3,331.5,233.3,307.5,233.3,307.5z M221.105,326.9
		c0.437,8.15,0.3,16.736-1.605,21.3c-0.145,0.342-0.258,0.666-0.385,0.998c-0.598,0.937-1.634,1.178-2.441-5.836
		C218.557,337.651,219.995,332.127,221.105,326.9z M192.158,333.906c2.064,5.851,4.561,10.935,7.542,13.994
		c2.865,2.966,5.035,4.862,6.678,6.043c0.241,0.924,0.492,1.8,0.751,2.634C203.219,355.732,195.111,351.805,192.158,333.906z"/>
</g>
</svg>
