<?xml version="1.0" standalone="no"?>
<!DOCTYPE svg PUBLIC "-//W3C//DTD SVG 1.1//EN" "http://www.w3.org/Graphics/SVG/1.1/DTD/svg11.dtd" >
<svg xmlns="http://www.w3.org/2000/svg">
<metadata>
This is a custom SVG webfont generated by Font Squirrel.
Copyright   : Copyright c 2009 by Eduardo Manso All rights reserved
Designer    : Eduardo Manso
Foundry     : Eduardo Manso
Foundry URL : httpwwwemtypenet
</metadata>
<defs>
<font id="webfontiAAb6lKV" horiz-adv-x="1073" >
<font-face units-per-em="2048" ascent="1536" descent="-512" />
<missing-glyph horiz-adv-x="458" />
<glyph unicode=" "  horiz-adv-x="458" />
<glyph unicode="&#x09;" horiz-adv-x="458" />
<glyph unicode="&#xa0;" horiz-adv-x="458" />
<glyph unicode="!" horiz-adv-x="520" d="M434 799l-69 -437q-6 -31 -33 -30h-62q-29 0 -24 30l39 437l67 563q4 31 35 31h88q29 0 27 -31zM356 190l-20 -159q-2 -31 -35 -31h-84q-29 0 -27 31l21 159q2 31 33 31h86q30 0 26 -31z" />
<glyph unicode="&#x22;" horiz-adv-x="751" d="M469 1362l-55 -350q-6 -31 -33 -31h-57q-29 0 -27 31l31 350q4 31 32 31h84q31 0 25 -31zM754 1362l-56 -350q-6 -31 -32 -31h-58q-29 0 -26 31l30 350q2 31 35 31h82q31 0 25 -31z" />
<glyph unicode="#" horiz-adv-x="1337" d="M264 553h168l90 223h-143q-31 0 -27 31l4 47q2 29 35 29h174l80 196q14 31 41 31h64q29 0 16 -31l-80 -196h313l78 196q14 31 43 31h62q31 0 18 -31l-80 -196h125q29 0 27 -29l-4 -47q-2 -31 -35 -31h-154l-92 -223h133q29 0 27 -29l-4 -45q-4 -31 -35 -30h-162l-78 -193 q-12 -33 -39 -33h-65q-31 0 -19 33l78 193h-311l-78 -193q-12 -33 -39 -33h-65q-31 0 -19 33l78 193h-137q-27 0 -25 30l4 45q2 29 33 29zM645 776l-90 -223h311l92 223h-313z" />
<glyph unicode="$" horiz-adv-x="1083" d="M907 926l6 43q2 16 2 37q0 47 -53 77.5t-157 30.5q-221 0 -238 -123l-6 -45q-2 -16 -2 -28q0 -72 88 -101l305 -100q74 -25 114 -69t40 -99q0 -18 -5 -43l-10 -111q-10 -90 -90 -148.5t-237 -70.5l-19 -145q-2 -31 -31 -31h-82q-33 0 -28 31l18 145q-137 12 -206.5 67.5 t-69.5 133.5q0 18 2 33l6 51q2 29 31 28h77q23 0 21 -28l-4 -33q-2 -12 -2 -39q0 -51 58.5 -79.5t164.5 -28.5q244 0 260 127l8 71q2 14 2 33q0 59 -106 94l-295 101q-66 23 -104.5 68.5t-38.5 109.5q0 14 2 33l8 75q23 205 315 224l19 145q2 31 35 31h81q29 0 25 -31 l-20 -148q129 -14 192.5 -70.5t63.5 -131.5q0 -14 -3 -37l-4 -49q-2 -27 -32 -27h-76q-27 0 -25 27z" />
<glyph unicode="%" horiz-adv-x="1589" d="M291 999l24 213q12 94 81 144.5t218 50.5q258 0 258 -164q0 -12 -4 -41l-24 -213q-12 -94 -80 -144t-217 -50q-260 0 -260 166q0 13 4 38zM889 184l24 215q12 94 80 144.5t217 50.5q260 0 260 -164q0 -8 -4 -41l-26 -213q-12 -94 -80 -144t-215 -50q-260 0 -260 165 q0 12 4 37zM1337 1362l-784 -1331q-18 -31 -45 -31h-80q-8 0 -12 5t-3 12.5t5 13.5l782 1331q16 31 47 31h78q30 0 12 -31zM725 993l23 207q2 14 2 23q0 86 -148 86q-154 0 -168 -101l-26 -211v-20q0 -84 147 -84q160 0 170 100zM1321 182l25 205q0 4 1 13.5t1 11.5 q0 84 -146 84q-160 0 -170 -101l-24 -207q-2 -16 -2 -22q0 -86 147 -86q156 0 168 102z" />
<glyph unicode="&#x26;" horiz-adv-x="1376" d="M696 797h660q29 0 26 -31l-6 -61q-2 -29 -35 -29h-151l-49 -395q-37 -297 -500 -297q-225 0 -330.5 69.5t-105.5 188.5q0 25 2 39l29 221q12 98 61 154.5t162 82.5q-156 41 -156 181q0 2 4 47l19 149q8 68 30.5 116t70.5 91t132 64.5t203 21.5q176 0 276.5 -60.5 t100.5 -185.5q0 -29 -2 -55l-4 -41q-2 -29 -35 -29h-84q-29 0 -25 29l4 49v21q0 152 -243 151q-129 0 -199 -43t-84 -151l-14 -107q-4 -29 -4 -45q0 -74 56 -109.5t191 -35.5zM653 104q326 0 348 195l46 377h-379q-156 0 -217.5 -46t-73.5 -145l-23 -186q-2 -14 -2 -31 q0 -164 301 -164z" />
<glyph unicode="'" horiz-adv-x="464" d="M469 1362l-55 -350q-6 -31 -33 -31h-57q-29 0 -27 31l31 350q4 31 32 31h84q31 0 25 -31z" />
<glyph unicode="(" horiz-adv-x="724" d="M154 -172l168 1358q16 135 105 199.5t294 64.5h27q29 0 26 -31l-6 -59q-2 -31 -35 -31h-10q-131 0 -188.5 -40t-67.5 -118l-166 -1331q-4 -20 -4 -33q0 -133 221 -133h12q29 0 27 -30l-8 -60q-2 -31 -33 -30h-10q-180 0 -268 61t-88 172q0 12 4 41z" />
<glyph unicode=")" horiz-adv-x="724" d="M690 1176l-168 -1358q-16 -135 -105 -199.5t-294 -64.5h-27q-29 0 -26 30l6 60q2 31 35 30h10q129 0 188.5 40t69.5 118l164 1331q4 33 4 35q0 131 -221 131h-13q-27 0 -24 31l6 59q2 31 33 31h10q180 0 268 -61.5t88 -171.5q0 -12 -4 -41z" />
<glyph unicode="*" horiz-adv-x="1044" d="M588 717q-31 0 -25 31l43 264l-248 -150q-27 -16 -39 12l-16 39q-12 27 16 41l244 125l-211 129q-25 14 -10 39l25 39q20 29 45 12l211 -149l22 274q2 31 35 31h45q31 0 25 -31l-45 -272l241 149q29 16 41 -10l19 -43q12 -25 -17 -39l-248 -129l215 -125q25 -14 9 -41 l-25 -39q-18 -29 -43 -10l-209 146l-22 -262q-2 -31 -33 -31h-45z" />
<glyph unicode="+" horiz-adv-x="1185" d="M610 293v340h-340q-31 0 -30 31v61q0 31 30 31h340v338q0 33 29 32h59q31 0 31 -32v-338h342q31 0 31 -31v-61q0 -31 -31 -31h-342v-340q0 -29 -31 -29h-59q-29 0 -29 29z" />
<glyph unicode="," horiz-adv-x="487" d="M195 66l16 124q2 31 33 31h86q27 0 24 -31l-16 -131q-20 -184 -236 -249q-27 -8 -34 18l-17 59q-6 27 25 39q61 27 87 59t32 81z" />
<glyph unicode="-" horiz-adv-x="933" d="M258 651h549q31 0 31 -28v-60q0 -31 -31 -31h-549q-31 0 -31 31v60q0 28 31 28z" />
<glyph unicode="." horiz-adv-x="452" d="M319 190l-18 -159q-2 -31 -33 -31h-84q-29 0 -26 31l18 159q4 31 33 31h88q26 0 22 -31z" />
<glyph unicode="/" horiz-adv-x="755" d="M848 1401l-649 -1673q-12 -31 -39 -31h-94q-33 0 -19 31l647 1673q10 31 37 31h94q35 0 23 -31z" />
<glyph unicode="0" horiz-adv-x="1110" d="M166 289l100 821q12 90 51 151.5t139.5 104.5t262.5 43q395 0 395 -254q0 -14 -4 -51l-98 -821q-16 -139 -118.5 -219t-336.5 -80q-395 0 -395 252q0 20 4 53zM866 305l97 774q2 16 2 43q0 162 -254 162q-154 0 -221.5 -50t-79.5 -147l-93 -753q-8 -61 -8 -64 q0 -162 258 -161q152 0 219.5 50t79.5 146z" />
<glyph unicode="1" horiz-adv-x="1110" d="M338 1292l455 107q12 4 20 -3t6 -24l-155 -1247h325q29 0 27 -29l-8 -65q-2 -31 -35 -31h-795q-27 0 -24 31l6 65q2 29 33 29h325l141 1128l-335 -86q-14 -4 -21.5 3.5t-5.5 23.5l6 66q2 26 35 32z" />
<glyph unicode="2" horiz-adv-x="1110" d="M328 125h643q31 0 26 -29l-6 -65q-2 -31 -35 -31h-759q-29 0 -25 31l49 399q6 45 26.5 79t54.5 54.5t54.5 29.5t55.5 21l399 129q121 39 135 142l25 198q2 16 2 45q0 158 -252 158q-154 0 -217.5 -49t-77.5 -150l-14 -94q-6 -33 -31 -32h-84q-31 0 -27 32l15 117 q12 90 50 151.5t137 104.5t259 43q389 0 389 -252q0 -20 -4 -53l-26 -221q-23 -193 -213 -252l-363 -113q-139 -41 -152 -133z" />
<glyph unicode="3" horiz-adv-x="1110" d="M463 797h170q154 0 214 46t75 144l14 107q2 16 2 39q0 76 -55.5 115.5t-186.5 39.5q-147 0 -213.5 -50t-72.5 -144l-2 -27q-2 -29 -33 -29h-82q-31 0 -27 29l4 45q12 137 110.5 217t330.5 80q375 0 374 -246q0 -14 -4 -55l-18 -143q-12 -94 -55 -147.5t-148 -78.5 q164 -43 164 -190q0 -18 -4 -55l-27 -220q-16 -137 -115.5 -213.5t-330.5 -76.5q-391 0 -391 252q0 29 2 45l6 45q2 29 33 28h84q29 0 24 -28l-2 -27q-2 -14 -2 -39q0 -156 254 -156q150 0 217.5 49.5t79.5 145.5l22 186q4 41 5 45q0 72 -56.5 109t-189.5 37h-184 q-31 0 -27 29l6 61q2 31 35 31z" />
<glyph unicode="4" horiz-adv-x="1110" d="M702 1362l-383 -797h541l98 797q4 31 35 31h88q25 0 23 -31l-162 -1331q-4 -31 -31 -31h-88q-29 0 -26 31l51 409h-668q-29 0 -26 29l6 59q2 12 12 39l381 795q16 31 43 31h88q32 0 18 -31z" />
<glyph unicode="5" horiz-adv-x="1110" d="M381 1393h684q33 0 27 -31l-9 -64q-2 -31 -32 -30h-566l-53 -418h219q184 0 282.5 -64.5t98.5 -177.5q0 -10 -4 -51l-33 -278q-8 -66 -30.5 -116t-70.5 -93t-133 -65.5t-206 -22.5q-375 0 -375 251q0 31 2 46l6 45q2 31 31 30h84q29 0 27 -30l-2 -25q-2 -10 -2 -41 q0 -76 53 -115t188 -39q150 0 210.5 48.5t72.5 146.5l29 236l4 45q0 150 -246 149h-336q-27 0 -25 31l74 602q2 31 31 31z" />
<glyph unicode="6" horiz-adv-x="1110" d="M178 283l103 837q33 289 440 289q203 0 290 -69.5t87 -178.5q0 -27 -4 -51l-4 -27q-6 -31 -33 -30h-84q-27 0 -25 30l2 19q2 20 2 31q0 156 -243 155q-264 0 -287 -186l-47 -375q86 102 301 102q190 0 277 -68.5t87 -182.5q0 -20 -4 -54l-26 -241q-16 -139 -115.5 -219 t-333.5 -80q-387 0 -387 249q0 21 4 50zM866 301l25 211q4 33 4 39q0 158 -254 158q-268 0 -289 -181l-26 -219q-4 -37 -4 -47q0 -78 57 -118t192 -40q152 0 216.5 50.5t78.5 146.5z" />
<glyph unicode="7" horiz-adv-x="1110" d="M307 1393h840q29 0 27 -31l-9 -62q-4 -20 -10 -32l-676 -1237q-18 -31 -41 -31h-102q-37 0 -19 31l676 1237h-700q-31 0 -29 30l8 64q2 31 35 31z" />
<glyph unicode="8" horiz-adv-x="1110" d="M274 983l15 127q16 143 105 221t323 78q371 0 370 -248q0 -18 -4 -51l-16 -133q-12 -98 -58 -154.5t-157 -81.5q176 -45 176 -198q0 -12 -4 -45l-25 -215q-16 -141 -113.5 -220t-330.5 -79q-385 0 -385 252q0 6 4 47l27 221q12 96 63 153.5t164 83.5q-158 39 -158 189 q0 12 4 53zM858 301l23 176q2 16 2 45q0 78 -57.5 118t-192.5 40q-152 0 -215.5 -49t-75.5 -148l-23 -182q-4 -33 -4 -41q0 -76 56.5 -116t191.5 -40q154 0 218.5 50.5t76.5 146.5zM928 997l12 95q4 37 4 43q0 76 -52 114.5t-185 38.5q-150 0 -206.5 -48t-70.5 -148l-12 -95 q-4 -37 -4 -43q0 -78 51 -116.5t182 -38.5q150 0 208.5 49t72.5 149z" />
<glyph unicode="9" horiz-adv-x="1110" d="M1098 1110l-103 -838q-14 -129 -109 -208.5t-325 -79.5q-205 0 -294 69.5t-89 177.5q0 27 4 52l4 26q6 31 33 31h82q29 0 27 -31l-2 -18q-2 -20 -2 -31q0 -156 245 -156q147 0 210 49.5t73 137.5l47 375q-82 -102 -299 -103q-190 0 -277 68.5t-87 183.5q0 20 4 53l28 242 q16 139 113.5 219t331.5 80q389 0 389 -250q0 -20 -4 -49zM410 1092l-25 -211q-4 -33 -4 -37q0 -78 57.5 -119t194.5 -41q270 0 291 180l26 219q4 37 4 47q0 78 -56 118t-191 40q-154 0 -219.5 -50t-77.5 -146z" />
<glyph unicode=":" horiz-adv-x="452" d="M319 190l-18 -159q-2 -31 -33 -31h-86q-16 0 -21 6t-3 25l18 159q4 31 35 31h84q28 0 24 -31zM418 981l-21 -162q-2 -29 -32 -28h-86q-27 0 -25 28l20 162q4 31 33 31h86q29 0 25 -31z" />
<glyph unicode=";" horiz-adv-x="552" d="M518 981l-18 -162q-2 -29 -33 -28h-86q-29 0 -27 28l19 162q4 31 37 31h84q26 0 24 -31zM262 66l14 124q2 31 35 31h86q29 0 25 -31l-16 -131q-12 -96 -69.5 -156.5t-166.5 -92.5q-29 -10 -35 18l-14 59q-6 27 22 39q109 48 119 140z" />
<glyph unicode="&#x3c;" horiz-adv-x="1103" d="M989 961l-608 -265l608 -264q31 -14 31 -33v-82q0 -16 -8 -24t-23 -2l-721 325q-29 14 -28 35v92q0 18 28 33l721 326q14 6 22.5 -2t8.5 -25v-82q0 -18 -31 -32z" />
<glyph unicode="=" horiz-adv-x="1204" d="M246 922h819q31 0 31 -29v-62q0 -31 -31 -30h-819q-31 0 -31 30v62q0 29 31 29zM246 555h819q31 0 31 -29v-61q0 -29 -31 -29h-819q-31 0 -31 29v61q0 29 31 29z" />
<glyph unicode="&#x3e;" horiz-adv-x="1103" d="M838 696l-611 262q-31 14 -30 35v84q0 16 8 24.5t22 2.5l723 -326q27 -12 27 -35v-94q0 -23 -27 -35l-723 -325q-14 -6 -22 2t-8 24v84q0 8 2 13.5t7 9.5t8 6t13 6z" />
<glyph unicode="?" horiz-adv-x="1161" d="M524 362l21 160q18 131 160 197l149 74q113 55 125 157l18 137q2 18 2 41q0 158 -264 158q-152 0 -221.5 -50t-83.5 -149l-14 -94q-6 -33 -31 -32h-84q-29 0 -27 32l15 117q16 139 119.5 219t339.5 80q209 0 303 -71.5t94 -188.5q0 -29 -2 -45l-21 -156 q-25 -180 -200 -260l-117 -53q-106 -51 -119 -146l-16 -127q-2 -31 -33 -30h-86q-31 -1 -27 30zM647 190l-18 -159q-2 -31 -33 -31h-86q-29 0 -27 31l19 157q2 33 35 33h88q26 0 22 -31z" />
<glyph unicode="@" horiz-adv-x="1744" d="M1217 -250h-373q-188 0 -319.5 24.5t-201 69.5t-99 98.5t-29.5 120.5q0 20 6 76l96 781q10 80 44 138t109.5 111.5t220 81t353.5 27.5q188 0 319.5 -23.5t202 -68.5t100 -98.5t29.5 -120.5q0 -14 -4 -56l-72 -573q-16 -129 -84.5 -199.5t-211.5 -70.5q-184 0 -216 131 q-178 -131 -342 -131q-219 0 -219 182q0 45 9 80l77 346q31 129 99.5 195.5t206.5 66.5q147 0 282 -115l19 70q8 29 34 29h72q31 0 25 -29l-121 -531q-12 -57 -12 -79q0 -106 104 -107q123 0 143 178l68 551q2 14 2 39q0 104 -117 160.5t-403 56.5q-309 0 -437 -63.5 t-143 -184.5l-96 -776q-6 -43 -6 -51q0 -106 116.5 -161.5t405.5 -55.5h377q29 0 24 -29l-4 -59q-1 -31 -34 -31zM745 651l-67 -299q-8 -33 -8 -55q0 -100 141 -100q129 0 268 100q0 16 4 37l86 373q-104 104 -225 104q-164 0 -199 -160z" />
<glyph unicode="A" horiz-adv-x="1077" d="M664 1393h88q29 0 34 -31l244 -1331q1 -5 1 -10q0 -21 -23 -21h-90q-27 0 -33 31l-68 364h-469l-155 -364q-12 -31 -39 -31h-82q-25 0 -25 15q0 6 4 16l570 1331q12 31 43 31zM799 512l-88 479l-23 252q-2 -2 -33.5 -105.5t-48.5 -142.5l-209 -483h402z" />
<glyph unicode="B" horiz-adv-x="1191" d="M629 0h-414q-29 0 -27 31l164 1331q4 31 33 31h350q215 0 314.5 -69t99.5 -185q0 -12 -4 -45l-17 -127q-23 -182 -215 -238q106 -25 160.5 -84t54.5 -139q0 -27 -2 -41l-22 -176q-37 -289 -475 -289zM707 659h-295l-66 -538h291q303 0 326 192l18 144q2 14 2 37 q0 165 -276 165zM727 1272h-240l-61 -498h256q276 0 303 195l14 106q2 12 2 37q0 160 -274 160z" />
<glyph unicode="C" horiz-adv-x="1130" d="M1075 414l-14 -131q-33 -299 -467 -299q-401 0 -401 256q0 12 4 49l98 821q37 299 465 299q403 0 403 -256q0 -16 -4 -49l-12 -98q-2 -33 -31 -33h-84q-31 0 -26 33l10 75q2 12 2 39q0 164 -266 164q-289 0 -314 -197l-94 -774q-2 -14 -2 -41q0 -164 264 -163 q291 0 316 196l12 109q4 31 33 30h82q30 1 26 -30z" />
<glyph unicode="D" horiz-adv-x="1232" d="M635 0h-422q-29 0 -25 31l164 1331q4 31 33 31h408q215 0 315 -72t100 -191q0 -23 -4 -51l-94 -780q-37 -299 -475 -299zM784 1268h-297l-141 -1143h297q297 0 322 197l92 737q2 16 2 41q-1 168 -275 168z" />
<glyph unicode="E" d="M940 0h-725q-31 0 -27 31l164 1331q4 31 33 31h700q29 0 27 -31l-8 -64q-2 -31 -33 -30h-584l-59 -477h547q33 0 26 -31l-8 -60q-6 -31 -32 -30h-547l-68 -545h606q31 0 29 -29l-8 -65q-2 -31 -33 -31z" />
<glyph unicode="F" horiz-adv-x="1081" d="M385 1393h754q29 0 26 -31l-8 -64q-2 -31 -35 -30h-635l-61 -480h600q31 0 27 -30l-9 -66q-4 -31 -32 -30h-598l-80 -631q-2 -31 -31 -31h-88q-31 0 -27 31l164 1331q4 31 33 31z" />
<glyph unicode="G" horiz-adv-x="1161" d="M690 670h385q33 0 29 -29l-43 -358q-16 -139 -121.5 -219t-345.5 -80q-401 0 -401 256q0 16 4 49l98 821q37 299 465 299q403 0 403 -260q0 -10 -4 -47l-10 -90q-2 -29 -33 -29h-84q-29 0 -24 29l8 75q2 12 2 35q0 162 -266 162q-289 0 -314 -197l-94 -774q-4 -29 -4 -41 q0 -164 264 -163q293 0 316 194l30 242h-274q-29 0 -25 30l6 66q2 29 33 29z" />
<glyph unicode="H" horiz-adv-x="1255" d="M498 1362l-68 -563h594l68 563q2 31 36 31h86q27 0 25 -31l-164 -1331q-2 -31 -31 -31h-86q-33 0 -28 31l80 645h-596l-80 -645q-2 -31 -31 -31h-88q-31 0 -27 31l164 1331q4 31 33 31h88q27 0 25 -31z" />
<glyph unicode="I" horiz-adv-x="516" d="M498 1362l-164 -1331q-2 -31 -31 -31h-88q-31 0 -27 31l164 1331q4 31 33 31h88q27 0 25 -31z" />
<glyph unicode="J" horiz-adv-x="1015" d="M248 375l-8 -66q-4 -25 -4 -45q0 -156 229 -155q137 0 195.5 50t70.5 146l131 1057q2 31 33 31h88q29 0 25 -31l-131 -1079q-18 -141 -110.5 -220t-311.5 -79q-365 0 -365 252q0 23 4 59l10 80q2 33 35 33h84q29 0 25 -33z" />
<glyph unicode="K" horiz-adv-x="1124" d="M602 707l483 -676q8 -10 3 -20.5t-19 -10.5h-111q-23 0 -45 31l-438 610h-67l-76 -610q-4 -31 -31 -31h-86q-31 0 -29 31l164 1331q2 31 35 31h86q29 0 25 -31l-74 -610h59l549 612q29 29 53 29h99q20 0 20 -13q0 -8 -10 -18z" />
<glyph unicode="L" horiz-adv-x="1003" d="M498 1362l-152 -1237h574q29 0 26 -29l-8 -65q-2 -31 -33 -31h-692q-29 0 -25 31l164 1331q4 31 33 31h88q27 0 25 -31z" />
<glyph unicode="M" horiz-adv-x="1486" d="M1466 1362l-161 -1331q-2 -31 -33 -31h-82q-31 0 -29 31l131 1056q-25 -68 -55 -126l-387 -717q-14 -31 -45 -31h-72q-29 0 -39 31l-219 735q-10 31 -20 106l-131 -1054q-4 -31 -31 -31h-78q-31 0 -29 31l164 1331q4 31 33 31h76q20 0 26 -17l275 -905q14 -45 26 -106 q18 49 50 104l491 907q8 16 29 17h86q28 0 24 -31z" />
<glyph unicode="N" horiz-adv-x="1255" d="M1233 1362l-164 -1331q-4 -31 -31 -31h-73q-23 0 -29 14l-426 963q-27 59 -53 135l-133 -1081q-4 -31 -31 -31h-78q-31 0 -29 31l164 1331q2 31 35 31h72q23 0 26 -13l432 -977q41 -90 50 -122l131 1081q2 31 32 31h80q29 0 25 -31z" />
<glyph unicode="O" horiz-adv-x="1210" d="M197 289l98 821q37 299 475 299q215 0 314.5 -71.5t99.5 -188.5q0 -29 -2 -45l-101 -821q-37 -299 -477 -299q-215 0 -313 70.5t-98 187.5q0 10 4 47zM938 305l96 774q2 14 2 37q0 168 -276 168q-297 0 -322 -197l-94 -774q-4 -29 -4 -37q0 -168 276 -167q297 -1 322 196 z" />
<glyph unicode="P" horiz-adv-x="1159" d="M690 537h-293l-63 -506q-2 -31 -31 -31h-88q-31 0 -27 31l164 1331q4 31 33 31h401q215 0 313.5 -74t98.5 -197q0 -8 -4 -49l-29 -244q-16 -141 -123.5 -216.5t-351.5 -75.5zM778 1268h-291l-73 -606h286q301 0 324 188l25 205q2 14 2 39q0 86 -63 130t-210 44z" />
<glyph unicode="Q" horiz-adv-x="1208" d="M197 289l98 821q37 299 475 299q215 0 314.5 -71.5t99.5 -188.5q0 -29 -2 -45l-101 -821q-33 -252 -342 -291l244 -250q18 -23 -2 -43l-49 -47q-14 -12 -25 -12q-10 0 -18 10l-320 336q-197 6 -286.5 74.5t-89.5 181.5q0 10 4 47zM938 305l96 774q2 14 2 37 q0 168 -276 168q-297 0 -322 -197l-94 -774q-4 -29 -4 -37q0 -168 276 -167q297 -1 322 196z" />
<glyph unicode="R" horiz-adv-x="1208" d="M692 567h-293l-65 -536q-2 -31 -31 -31h-88q-29 0 -27 31l164 1331q4 31 33 31h399q215 0 314.5 -75t99.5 -198q0 -29 -2 -43l-27 -221q-29 -221 -286 -272l196 -553q4 -14 -4 -22.5t-24 -8.5h-88q-20 0 -33 31l-189 536h-49zM778 1268h-291l-71 -578h289q301 0 323 189 l21 176q2 14 2 37q-1 176 -273 176z" />
<glyph unicode="S" horiz-adv-x="1157" d="M989 1014l10 78q2 16 2 34q0 162 -262 162q-154 0 -223.5 -50t-81.5 -144l-8 -70q-2 -12 -2 -27q0 -86 102 -125l361 -145q188 -74 188 -240q0 -27 -2 -41l-18 -163q-33 -299 -471 -299q-215 0 -312.5 70.5t-97.5 187.5q0 29 2 47l12 106q2 31 33 31h84q31 0 27 -31 l-10 -88q-2 -16 -3 -39q0 -164 273 -164q295 0 319 197l17 131q2 12 2 27q0 55 -40 88t-110 61l-323 131q-176 72 -176 228q0 25 2 39l12 104q16 139 117.5 219t337.5 80q395 0 395 -256q0 -29 -2 -43l-10 -96q-2 -31 -35 -31h-84q-31 0 -25 31z" />
<glyph unicode="T" horiz-adv-x="989" d="M236 1393h851q29 0 27 -31l-6 -64q-2 -31 -33 -30h-354l-154 -1237q-2 -31 -30 -31h-88q-31 0 -27 31l153 1237h-354q-29 0 -26 30l6 64q2 31 35 31z" />
<glyph unicode="U" horiz-adv-x="1232" d="M483 1362l-129 -1036q-4 -41 -4 -50q0 -168 277 -167q297 0 321 196l131 1057q2 31 31 31h88q29 0 27 -31l-133 -1079q-37 -299 -476 -299q-213 0 -313 71.5t-100 190.5q0 16 4 49l131 1067q2 31 33 31h86q28 0 26 -31z" />
<glyph unicode="V" horiz-adv-x="1077" d="M584 0h-88q-31 0 -37 31l-246 1331q-6 31 29 31h92q27 0 33 -31l174 -961q20 -109 20 -217q25 98 74 213l412 965q12 31 40 31h89q24 0 23 -17q0 -6 -3 -14l-571 -1331q-12 -31 -41 -31z" />
<glyph unicode="W" horiz-adv-x="1640" d="M1069 1362l125 -963q12 -102 12 -161q8 45 54 161l362 963q12 31 41 31h78q22 0 22 -16q0 -6 -4 -15l-499 -1331q-12 -31 -41 -31h-86q-31 0 -33 31l-127 979q-11 98 -11 135q0 6 1 10q-20 -84 -45 -147l-371 -977q-12 -31 -41 -31h-86q-31 0 -33 31l-174 1331 q-4 31 29 31h86q29 0 32 -31l125 -963q4 -27 15 -151q12 49 51 151l364 963q12 31 39 31h82q29 0 33 -31z" />
<glyph unicode="X" horiz-adv-x="1130" d="M727 707l317 -676q16 -31 -18 -31h-100q-25 0 -41 31l-260 549l-381 -549q-18 -31 -45 -31h-99q-18 0 -18 17q0 9 8 18l475 676l-303 649q-16 33 19 33h100q25 0 39 -31l250 -528l364 528q20 31 49 31h97q20 0 20 -11q0 -7 -10 -20z" />
<glyph unicode="Y" horiz-adv-x="1058" d="M365 1362l227 -594q14 -35 20 -78q23 49 41 78l381 594q18 31 41 31h90q25 0 25 -13q0 -7 -8 -18l-510 -795l-66 -536q-4 -31 -33 -31h-86q-29 0 -26 31l63 520l-315 811q-3 8 -3 13q0 17 27 18h99q23 0 33 -31z" />
<glyph unicode="Z" horiz-adv-x="1030" d="M340 1393h715q29 0 26 -31l-6 -59q-4 -20 -14 -35l-764 -1143h635q29 0 26 -29l-8 -65q-2 -31 -30 -31h-785q-31 0 -29 29l9 63q2 12 14 33l762 1143h-565q-29 0 -27 30l8 64q2 31 33 31z" />
<glyph unicode="[" horiz-adv-x="749" d="M127 -401l221 1802q2 31 35 31h381q29 0 27 -31l-9 -64q-2 -31 -34 -30h-265l-200 -1614h266q29 0 26 -31l-6 -63q-2 -31 -32 -31h-383q-29 0 -27 31z" />
<glyph unicode="\" horiz-adv-x="755" d="M487 -272l-235 1673q-4 31 27 31h88q29 0 34 -31l234 -1671q4 -33 -27 -33h-88q-29 0 -33 31z" />
<glyph unicode="]" horiz-adv-x="749" d="M743 1401l-223 -1802q-2 -31 -33 -31h-381q-29 0 -26 31l8 63q2 31 33 31h266l199 1614h-264q-29 0 -27 30l6 64q2 31 33 31h383q28 0 26 -31z" />
<glyph unicode="^" horiz-adv-x="1140" d="M909 643l-264 606l-262 -606q-12 -33 -33 -33h-84q-37 0 -24 33l323 721q14 29 35 29h92q18 0 33 -29l328 -721q12 -33 -27 -33h-82q-23 0 -35 33z" />
<glyph unicode="_" horiz-adv-x="886" d="M41 -174h733q31 0 31 -29v-61q0 -29 -31 -29h-733q-31 0 -31 29v61q0 29 31 29z" />
<glyph unicode="`" horiz-adv-x="677" d="M498 1182l-133 237q-16 31 20 31h86q23 0 37 -29l108 -229q12 -29 -18 -29h-66q-24 1 -34 19z" />
<glyph unicode="a" d="M778 31l6 75q-170 -123 -362 -122q-127 0 -192.5 58t-65.5 161q0 14 4 43l63 520q35 262 314 262q197 0 338 -125l14 78q6 31 33 31h76q27 0 24 -31l-117 -950q-4 -31 -32 -31h-76q-27 0 -27 31zM371 745l-62 -479q-2 -10 -2 -28q0 -127 166 -127q160 0 322 114l69 559 q-129 117 -293 117q-177 0 -200 -156z" />
<glyph unicode="b" d="M266 0h-76q-29 0 -24 31l168 1370q2 31 33 31h84q29 0 24 -31l-59 -494q170 121 356 121q127 0 193.5 -59.5t66.5 -163.5q0 -27 -2 -39l-65 -520q-35 -262 -316 -262q-197 0 -336 122l-14 -75q-6 -31 -33 -31zM823 266l62 479q2 12 2 29q0 127 -164 127q-162 0 -324 -117 l-67 -559q129 -115 293 -114q180 -1 198 155z" />
<glyph unicode="c" horiz-adv-x="980" d="M633 1028q344 0 344 -225q0 -29 -2 -41l-6 -37q-6 -31 -33 -31h-78q-27 0 -24 31l2 31q0 2 1 14t1 16q0 125 -213 125q-131 0 -187.5 -40t-66.5 -115l-62 -486q-2 -14 -2 -41q0 -63 49.5 -96t165.5 -33q131 0 187.5 40t66.5 118l6 45q2 31 33 31h76q31 0 27 -31l-7 -55 q-14 -125 -106 -194.5t-297 -69.5q-344 0 -344 225q0 25 2 39l63 516q14 127 106.5 195.5t297.5 68.5z" />
<glyph unicode="d" d="M778 31l4 75q-170 -123 -360 -122q-127 0 -192.5 58t-65.5 161q0 14 4 43l63 520q31 262 314 262q190 0 334 -121l59 494q4 31 35 31h84q29 0 24 -31l-168 -1370q-4 -31 -32 -31h-76q-31 0 -27 31zM371 745l-60 -475q-4 -25 -4 -32q0 -127 166 -127q160 0 322 114l69 559 q-129 117 -293 117q-182 0 -200 -156z" />
<glyph unicode="e" horiz-adv-x="1007" d="M977 764l-31 -252q-4 -29 -31 -29h-581l-29 -217q-2 -18 -2 -39q0 -131 219 -131q244 0 258 152l4 43q2 29 35 28h72q31 0 27 -28l-7 -43q-18 -129 -106 -196.5t-291 -67.5q-350 0 -350 225q0 27 2 39l63 516q14 127 107.5 195.5t298.5 68.5q344 0 344 -225q0 -27 -2 -39 zM369 760l-23 -168h475l23 160q2 14 2 32q0 131 -221 131q-236 1 -256 -155z" />
<glyph unicode="f" horiz-adv-x="659" d="M324 1008h18l20 168q31 264 412 264h17q29 0 26 -31l-6 -59q-2 -31 -37 -31h-10q-242 0 -262 -158l-19 -153h224q31 0 28 -29l-8 -57q-2 -31 -33 -31h-223l-160 -1282q-2 -31 -32 -31h-84q-27 0 -25 31l160 1282h-129q-29 0 -27 31l6 49q2 29 33 30z" />
<glyph unicode="g" d="M424 -16q-127 0 -193.5 59t-66.5 162q0 16 4 41l63 520q35 262 314 262q197 0 338 -125l14 78q6 31 33 31h76q29 0 24 -31l-139 -1139q-14 -127 -109.5 -195.5t-304.5 -68.5h-278q-31 0 -29 29l6 61q2 29 35 29h278q240 0 261 158l30 247q-172 -118 -356 -118zM371 745 l-60 -471q-4 -25 -4 -34q0 -129 166 -129q156 0 324 114l67 559q-129 117 -293 117q-92 0 -142 -43t-58 -113z" />
<glyph unicode="h" horiz-adv-x="1083" d="M475 1401l-59 -494q156 121 356 121q123 0 191.5 -59.5t68.5 -157.5q0 -23 -2 -35l-90 -745q-2 -31 -35 -31h-82q-29 0 -26 31l86 714q2 10 2 29q0 127 -164 127q-162 0 -322 -115l-90 -755q-2 -31 -35 -31h-84q-27 0 -24 31l168 1370q2 31 33 31h84q28 0 24 -31z" />
<glyph unicode="i" horiz-adv-x="466" d="M426 981l-117 -950q-2 -31 -35 -31h-84q-27 0 -24 31l119 950q4 31 30 31h82q33 0 29 -31zM475 1401l-22 -191q-2 -31 -33 -30h-84q-29 0 -25 30l23 191q2 31 33 31h84q26 0 24 -31z" />
<glyph unicode="j" horiz-adv-x="464" d="M473 1401l-22 -191q-4 -31 -33 -30h-82q-29 0 -27 30l23 191q4 31 33 31h84q26 0 24 -31zM422 981l-141 -1139q-16 -129 -110.5 -196.5t-295.5 -67.5h-18q-29 0 -27 29l8 61q2 29 33 29h12q238 0 258 158l140 1126q4 31 32 31h84q29 0 25 -31z" />
<glyph unicode="k" horiz-adv-x="940" d="M905 0h-92q-20 0 -43 31l-336 483h-69l-60 -483q-2 -31 -33 -31h-84q-29 0 -24 31l168 1370q4 31 33 31h84q27 0 24 -31l-94 -778h61l394 358q35 31 51 31h98q16 0 21 -11q1 -3 1 -5q0 -8 -10 -15l-440 -408l369 -542q8 -12 1.5 -21.5t-20.5 -9.5z" />
<glyph unicode="l" horiz-adv-x="466" d="M475 1401l-168 -1370q-4 -31 -33 -31h-84q-27 0 -24 31l168 1370q2 31 33 31h84q28 0 24 -31z" />
<glyph unicode="m" horiz-adv-x="1691" d="M315 1012h76q31 0 27 -31l-6 -76q156 123 348 123q98 0 163.5 -38t84.5 -101q53 41 80.5 59.5t113.5 49t176 30.5q123 0 192.5 -58.5t69.5 -154.5q0 -25 -2 -39l-92 -745q-2 -31 -35 -31h-81q-29 0 -27 31l88 706q2 14 2 35q0 129 -164 129q-174 0 -313 -119v-37 l-88 -714q-2 -31 -33 -31h-84q-29 0 -27 31l86 704q4 33 4 37q0 129 -163 129q-158 0 -312 -115l-90 -755q-2 -31 -33 -31h-86q-27 0 -24 31l119 950q1 31 30 31z" />
<glyph unicode="n" horiz-adv-x="1083" d="M315 1012h76q31 0 27 -31l-6 -78q166 125 360 125q123 0 191.5 -59.5t68.5 -157.5q0 -27 -2 -41l-90 -739q-2 -31 -35 -31h-82q-33 0 -26 31l88 706q0 6 1 18.5t1 16.5q0 129 -164 129t-324 -115l-90 -755q-2 -31 -35 -31h-84q-26 0 -25 21q0 4 1 10l119 950q1 31 30 31z " />
<glyph unicode="o" horiz-adv-x="1050" d="M166 248l63 516q31 264 416 264q182 0 270.5 -60.5t88.5 -166.5q0 -25 -3 -37l-63 -516q-31 -264 -416 -264q-182 0 -270 60t-88 167q0 25 2 37zM797 258l63 496v22q0 135 -225 135q-244 0 -264 -157l-62 -496q-2 -8 -2 -25q0 -133 228 -133q242 0 262 158z" />
<glyph unicode="p" d="M391 1012q29 0 27 -31l-8 -78q180 125 362 125q127 0 193.5 -58.5t66.5 -162.5q0 -27 -2 -41l-65 -520q-35 -262 -312 -262q-193 0 -338 118l-59 -493q-2 -31 -33 -31h-82q-29 0 -26 31l168 1372q4 31 32 31h76zM823 266l60 475q4 25 4 33q0 127 -164 127 q-166 0 -322 -117l-69 -559q129 -115 293 -114q180 -1 198 155z" />
<glyph unicode="q" d="M881 903l14 78q6 31 35 31h76q29 0 24 -31l-168 -1372q-2 -31 -33 -31h-84q-29 0 -24 31l59 493q-172 -119 -356 -118q-127 0 -193.5 59t-66.5 162q0 16 4 41l63 520q31 262 314 262q195 0 336 -125zM371 745l-60 -471q-4 -25 -4 -34q0 -129 166 -129q156 0 324 114 l67 559q-129 117 -293 117q-92 0 -142 -43t-58 -113z" />
<glyph unicode="r" horiz-adv-x="706" d="M762 1026q35 0 29 -31l-9 -67q-2 -27 -34 -29q-174 -8 -351 -137l-88 -731q-2 -31 -35 -31h-84q-27 0 -24 31l119 950q2 31 30 31h76q31 0 27 -31l-8 -100q178 145 352 145z" />
<glyph unicode="s" horiz-adv-x="952" d="M799 735l6 43q2 16 2 37q0 47 -53.5 78t-157.5 31q-223 0 -238 -123l-6 -45q-2 -16 -2 -29q0 -72 88 -100l305 -101q74 -25 114 -68.5t40 -99.5q0 -18 -4 -43l-10 -110q-10 -98 -108.5 -159.5t-289.5 -61.5q-172 0 -260 57t-88 145q0 18 2 33l6 51q2 29 31 29h78 q23 0 20 -29l-4 -32q-2 -12 -2 -39q0 -51 58.5 -80t165.5 -29q244 0 260 127l8 72q2 14 2 33q0 59 -107 94l-295 100q-66 23 -104.5 69t-38.5 109q0 14 2 33l8 76q27 225 377 225q166 0 250 -59.5t84 -147.5q0 -14 -2 -37l-4 -49q-2 -27 -33 -26h-76q-26 -1 -24 26z" />
<glyph unicode="t" horiz-adv-x="710" d="M455 891l-74 -606q-2 -14 -2 -35q0 -129 219 -129h35q31 0 26 -31l-6 -59q-2 -31 -35 -31h-53q-178 0 -255 54.5t-77 160.5q0 33 3 49l77 627h-123q-31 0 -26 31l6 49q2 29 33 30l123 7h2l26 217q2 31 35 30h82q29 0 25 -30l-27 -217h231q29 0 25 -29l-4 -59 q-2 -29 -35 -29h-231z" />
<glyph unicode="u" horiz-adv-x="1071" d="M776 31l4 73q-152 -121 -346 -120q-125 0 -192.5 58t-67.5 157q0 23 2 34l92 748q2 31 33 31h82q29 0 27 -31l-88 -715q-2 -10 -3 -30q0 -125 164 -125q156 0 312 112l90 758q4 31 35 31h84q29 0 24 -31l-117 -950q-2 -31 -32 -31h-76q-29 0 -27 31z" />
<glyph unicode="v" horiz-adv-x="884" d="M487 0h-94q-23 0 -28 29l-207 950q-1 6 -2 11q0 22 30 22h86q23 0 29 -31l145 -678q0 -2 17 -129q33 98 45 127l315 680q14 31 39 31h80q28 0 29 -17q0 -6 -4 -14l-445 -952q-15 -29 -35 -29z" />
<glyph unicode="w" horiz-adv-x="1343" d="M1327 1012h70q16 0 23 -8q4 -4 4 -11q0 -5 -3 -12l-385 -952q-12 -29 -35 -29h-98q-25 0 -29 29l-96 692q-8 66 -8 96l-37 -98l-280 -690q-12 -29 -37 -29h-97q-25 0 -26 29l-141 952q-4 31 30 31h82q27 0 31 -31l102 -713q8 -57 9 -84q10 37 28 84l285 713q14 31 37 31 h90q27 0 31 -31l94 -713l8 -82l12 36q10 30 17 46l280 713q14 31 39 31z" />
<glyph unicode="x" horiz-adv-x="948" d="M864 0h-92q-23 0 -41 31l-215 381l-303 -381q-27 -31 -49 -31h-84q-20 0 -20 15q0 8 8 16l389 485l-258 465q-18 31 18 31h92q20 0 39 -31l211 -367l283 367q23 31 49 31h88q17 0 17 -14q0 -9 -9 -17l-375 -471l271 -477q16 -33 -19 -33z" />
<glyph unicode="y" horiz-adv-x="884" d="M301 981l148 -680q17 -68 17 -108q0 -8 -1 -15q31 90 45 119l317 684q14 31 37 31h78q29 0 29 -16q0 -6 -4 -15l-637 -1374q-14 -31 -37 -31h-66q-39 0 -22 31l172 385l-219 989q-6 31 28 31h84q25 0 31 -31z" />
<glyph unicode="z" horiz-adv-x="929" d="M287 1012h614q27 0 25 -29l-6 -57q-4 -20 -13 -29l-616 -778h528q29 0 27 -31l-6 -57q-2 -31 -35 -31h-672q-27 0 -24 31l6 57q4 18 20 39l606 766h-471q-33 0 -26 31l8 59q2 29 35 29z" />
<glyph unicode="{" horiz-adv-x="917" d="M457 727l55 459q16 127 110.5 195.5t297.5 68.5h18q31 0 27 -31l-7 -59q-2 -31 -32 -31h-13q-129 0 -187 -40t-69 -118l-57 -458q-20 -164 -190 -203q143 -39 143 -170q0 -16 -4 -53l-55 -434q-4 -33 -5 -50q0 -129 220 -129h14q29 0 25 -30l-9 -60q-2 -31 -32 -30h-9 q-356 0 -356 231q0 31 4 55l55 434q4 33 5 48q0 127 -205 127h-2q-31 0 -27 30l8 60q6 31 33 30h4q220 0 240 158z" />
<glyph unicode="|" horiz-adv-x="516" d="M373 1401v-1802q0 -31 -29 -31h-86q-31 0 -31 31v1802q0 31 31 31h86q29 0 29 -31z" />
<glyph unicode="}" horiz-adv-x="917" d="M692 1167l-53 -424q-4 -29 -4 -45q0 -129 205 -129h2q29 0 24 -30l-6 -60q-2 -31 -35 -30h-2q-219 0 -239 -156l-58 -475q-35 -264 -407 -264h-19q-31 0 -26 30l4 60q2 31 35 30h14q129 0 186.5 40t67.5 118l57 473q20 162 193 205q-143 33 -144 170q0 14 7 57l51 424 q4 33 4 41q0 127 -219 127h-13q-31 0 -26 31l8 59q6 31 33 31h10q352 0 352 -231q0 -36 -2 -52z" />
<glyph unicode="~" horiz-adv-x="995" d="M379 580q-33 0 -42 -17.5t-15 -77.5l-3 -18q-2 -27 -32 -27h-43q-31 0 -27 33l4 57q6 90 46 133.5t100 43.5q43 0 100 -29l176 -92q57 -29 86 -29q33 0 44 23.5t11 74.5v17q0 27 33 26h45q29 0 27 -34l-4 -56q-14 -176 -142 -176q-55 0 -112 31l-180 92q-45 25 -72 25z " />
<glyph unicode="&#xa1;" horiz-adv-x="520" d="M209 213l70 436q6 31 32 31h62q29 0 24 -31l-39 -436l-67 -563q-4 -31 -35 -31h-88q-29 0 -27 31zM287 821l20 160q2 31 35 31h84q29 0 27 -31l-21 -160q-2 -31 -33 -30h-86q-30 -1 -26 30z" />
<glyph unicode="&#xa2;" horiz-adv-x="1083" d="M776 1362l-16 -148q270 -23 270 -221q0 -29 -2 -41l-6 -37q-6 -31 -33 -30h-78q-27 0 -24 30l2 31q0 2 1 14.5t1 16.5q0 125 -213 125q-131 0 -187.5 -40t-66.5 -116l-62 -485q-2 -14 -2 -41q0 -63 49.5 -96t165.5 -33q131 0 187.5 40t66.5 118l7 45q2 31 32 30h76 q31 0 27 -30l-6 -56q-14 -115 -90 -182.5t-244 -79.5l-19 -145q-2 -31 -30 -31h-84q-31 0 -27 31l18 145q-272 23 -272 223q0 25 2 39l64 516q27 242 333 263l19 145q4 31 33 31h84q26 0 24 -31z" />
<glyph unicode="&#xa3;" horiz-adv-x="1355" d="M557 758h313q33 0 29 -29l-8 -61q-2 -31 -35 -31h-313l-66 -516h402q94 0 148 46t63 161l2 30q2 33 32 33h78q31 0 27 -33l-2 -39q-8 -170 -100.5 -244.5t-229.5 -74.5h-700q-29 0 -25 31l6 61q2 29 35 29h119l65 516h-121q-27 0 -24 31l6 61q2 29 33 29h121l45 364 q12 90 47 148.5t131 98.5t256 40q379 0 379 -238q0 -12 -4 -49l-9 -59q-4 -31 -30 -31h-82q-29 0 -25 33l4 35q2 14 2 43q0 72 -55 106.5t-190 34.5q-150 0 -210.5 -44t-72.5 -140z" />
<glyph unicode="&#xa4;" horiz-adv-x="1175" d="M203 618h135l18 156h-135q-29 0 -26 31l4 37q2 29 32 28h136l30 240q37 299 465 299q403 0 404 -256q0 -16 -4 -49l-13 -98q-2 -33 -30 -33h-84q-31 0 -27 33l10 75q2 12 2 39q0 164 -266 164q-289 0 -313 -197l-27 -217h277q29 0 26 -28l-2 -37q-2 -31 -35 -31h-278 l-19 -156h277q29 0 26 -30l-4 -35q-2 -31 -32 -31h-279l-25 -209q-2 -14 -2 -41q0 -164 265 -163q291 0 315 196l12 109q4 31 33 30h82q31 0 27 -30l-15 -131q-33 -299 -467 -299q-401 0 -401 256q0 12 4 49l27 233h-136q-29 0 -26 31l4 35q2 30 35 30z" />
<glyph unicode="&#xa5;" horiz-adv-x="1071" d="M227 635h271l-62 156h-188q-31 0 -27 30l2 37q2 29 35 29h141l-184 475q-12 31 25 31h98q23 0 33 -31l227 -594q14 -35 20 -78q23 49 41 78l381 594q18 31 41 31h90q37 0 17 -31l-305 -475h145q31 0 29 -29l-4 -37q-4 -31 -35 -30h-197l-100 -156h276q31 0 29 -29l-4 -37 q-2 -31 -35 -30h-313l-62 -508q-2 -31 -32 -31h-86q-31 0 -27 31l61 508h-311q-29 0 -27 30l5 37q1 29 32 29z" />
<glyph unicode="&#xa6;" horiz-adv-x="466" d="M375 1362v-688q0 -31 -29 -31h-82q-31 0 -31 31v688q0 31 31 31h82q29 0 29 -31zM375 287v-688q0 -31 -29 -31h-82q-31 0 -31 31v688q0 31 31 30h82q29 1 29 -30z" />
<glyph unicode="&#xa7;" horiz-adv-x="1124" d="M963 354q-6 -31 -35 -30h-74q-29 0 -27 30l23 174q4 25 4 39q0 82 -100 111l-269 82q-180 55 -180 201q0 16 4 45l17 143q29 260 405 260q350 0 350 -221q0 -8 -2 -39l-2 -25q-2 -31 -35 -30h-73q-29 0 -27 30l2 21q0 8 2 19.5t2 17.5q0 127 -223 127q-131 0 -189.5 -39 t-68.5 -115l-18 -141q-2 -12 -3 -33q0 -78 121 -113l264 -82q66 -20 111 -67t45 -123q0 -31 -2 -47zM256 428l25 195q2 31 32 30h74q29 0 27 -30l-23 -174q-2 -12 -2 -39q0 -84 98 -111l269 -82q182 -57 182 -199q0 -18 -4 -47l-16 -141q-31 -262 -406 -262q-350 0 -350 221 q0 20 2 41l2 25q2 31 35 30h71q29 0 27 -32l-2 -21q-2 -20 -2 -31q0 -135 221 -135q129 0 188.5 40t69.5 118l19 139q2 12 2 33q0 82 -121 115l-264 79q-156 47 -156 191q0 31 2 47z" />
<glyph unicode="&#xa8;" horiz-adv-x="663" d="M446 1409l-24 -199q-2 -29 -33 -28h-49q-29 0 -27 28l25 199q2 31 33 31h51q28 0 24 -31zM666 1409l-23 -199q-2 -29 -35 -28h-49q-29 0 -27 28l25 199q4 31 33 31h51q27 0 25 -31z" />
<glyph unicode="&#xa9;" horiz-adv-x="1490" d="M1341 1042v-692q0 -61 -11 -110.5t-48 -99.5t-96.5 -82.5t-162.5 -53t-243 -20.5q-172 0 -287.5 29.5t-172 85t-78 113.5t-21.5 138v692q0 80 21.5 138.5t78 114t172 85t287.5 29.5q139 0 242.5 -20.5t163 -53t96.5 -83t48 -100t11 -110.5zM1235 334v727q0 254 -455 254 q-451 0 -450 -256v-725q0 -121 102.5 -187.5t347.5 -66.5q455 0 455 254zM782 1126q168 0 231.5 -64.5t63.5 -191.5v-30q0 -31 -30 -31h-68q-29 0 -29 31v28q0 78 -34.5 117t-133.5 39q-100 0 -133 -38t-33 -118v-344q0 -82 33 -119.5t133 -37.5q98 0 133 38.5t35 118.5v43 q0 33 29 33h68q31 0 30 -33v-47q0 -127 -63.5 -191.5t-231.5 -64.5t-231.5 64.5t-63.5 191.5v350q0 127 63.5 191.5t231.5 64.5z" />
<glyph unicode="&#xaa;" horiz-adv-x="720" d="M614 809v45q-100 -74 -215 -74q-76 0 -119.5 36t-43.5 97q0 20 2 35l38 303q20 158 197 158q113 0 203 -74l8 41q6 23 23 23h63q20 0 16 -21l-69 -569q-4 -18 -21 -18h-67q-15 0 -15 18zM383 1233l-33 -258q-2 -18 -2 -37q0 -72 92 -72q104 0 183 72l39 311 q-72 72 -164 72q-105 0 -115 -88z" />
<glyph unicode="&#xab;" horiz-adv-x="1234" d="M743 500l267 -215q29 -23 26 -45l-12 -86q-6 -35 -33 -17l-344 285q-23 18 -20 39l8 84q2 18 33 41l413 284q10 8 20.5 3t8.5 -19l-12 -92q-2 -23 -35 -45zM324 500l266 -215q29 -23 26 -45l-12 -86q-6 -35 -33 -17l-344 285q-23 18 -20 39l8 84q2 18 33 41l414 284 q10 8 20 3t8 -19l-12 -92q-2 -23 -35 -45z" />
<glyph unicode="&#xac;" horiz-adv-x="776" d="M156 643q0 96 67.5 163.5t161.5 67.5q96 0 163.5 -67.5t67.5 -163.5t-67.5 -162.5t-163.5 -66.5q-94 0 -161.5 67.5t-67.5 161.5z" />
<glyph unicode="&#xad;" horiz-adv-x="933" d="M258 651h549q31 0 31 -28v-60q0 -31 -31 -31h-549q-31 0 -31 31v60q0 28 31 28z" />
<glyph unicode="&#xae;" horiz-adv-x="1273" d="M1180 1126v-366q0 -283 -453 -283t-453 283v366q0 283 453 283t453 -283zM1081 750v385q0 184 -354 184t-354 -184v-383q0 -186 354 -186t354 184zM952 1012q0 -104 -98 -135l80 -191q8 -23 -21 -22h-59q-12 0 -23 22l-73 176h-129v-176q0 -23 -23 -22h-57q-20 0 -21 22 v502q0 23 21 22h201q203 0 202 -151v-47zM741 1133h-112v-195h112q53 0 82 22.5t29 55.5v37q0 80 -111 80z" />
<glyph unicode="&#xaf;" horiz-adv-x="851" d="M332 1333h512q16 0 23 -6t5 -20l-6 -54q-2 -31 -35 -30h-514q-29 0 -26 30l6 52q2 28 35 28z" />
<glyph unicode="&#xb0;" horiz-adv-x="829" d="M254 1026l22 186q12 96 80 145.5t228 49.5q262 0 262 -168q0 -27 -2 -39l-23 -186q-12 -96 -78.5 -145.5t-224.5 -49.5q-266 0 -266 166q0 25 2 41zM700 1020l23 176v23q0 90 -152 90q-162 0 -172 -101l-20 -180q-2 -18 -2 -24q0 -86 149 -86q162 0 174 102z" />
<glyph unicode="&#xb1;" horiz-adv-x="1185" d="M557 467v252h-340q-31 0 -31 31v61q0 29 31 29h340v250q0 31 29 30h59q31 0 31 -30v-250h342q31 0 31 -29v-61q0 -31 -31 -31h-342v-252q0 -31 -31 -31h-59q-29 0 -29 31zM217 313h801q31 0 31 -30v-60q0 -31 -31 -30h-801q-31 0 -31 30v60q0 30 31 30z" />
<glyph unicode="&#xb2;" horiz-adv-x="765" d="M326 655h379q20 0 18 -22l-6 -47q-2 -23 -25 -23h-467q-20 0 -18 23l29 231q8 76 110 111l244 84q70 25 76 80l12 104q2 14 2 31q0 90 -141 90q-82 0 -118 -27.5t-42 -81.5l-6 -55q-4 -25 -25 -25h-67q-23 0 -19 25l8 70q23 186 279 186q127 0 185.5 -46t58.5 -118 q0 -20 -2 -37l-15 -112q-14 -119 -133 -158l-225 -78q-70 -27 -74 -61z" />
<glyph unicode="&#xb3;" horiz-adv-x="763" d="M408 1049h94q84 0 120.5 25.5t41.5 80.5l4 43q2 23 2 31q0 47 -30 69.5t-103 22.5q-78 0 -113 -26.5t-43 -82.5l-2 -14q-2 -20 -23 -20h-65q-18 0 -19 20l2 31q12 182 277 182q236 0 235 -154q0 -12 -4 -40l-8 -78q-6 -57 -32.5 -87t-86.5 -44q94 -29 95 -115 q0 -8 -5 -41l-14 -119q-23 -178 -278 -178q-127 0 -185.5 43t-58.5 111q0 16 2 34l2 25q2 20 25 20h65q23 0 21 -20l-2 -18v-13q0 -92 139 -92q150 0 162 109l10 88q4 29 4 32q0 43 -32 63.5t-105 20.5h-103q-23 0 -20 23l4 45q2 23 27 23z" />
<glyph unicode="&#xb4;" horiz-adv-x="677" d="M659 1419l-190 -237q-14 -18 -39 -19h-72q-33 0 -10 29l164 229q18 29 43 29h92q16 0 19 -9.5t-7 -21.5z" />
<glyph unicode="&#xb5;" horiz-adv-x="1071" d="M778 31l6 75q-154 -123 -331 -122q-131 0 -166 59l-45 -436q-2 -29 -31 -29h-84q-29 0 -27 29l170 1374q4 31 35 31h80q29 0 27 -31l-84 -692q-2 -12 -4 -30.5t-2 -22.5q0 -129 165 -130q156 0 310 115l92 760q4 31 35 31h82q27 0 24 -31l-117 -950q-2 -31 -32 -31h-76 q-29 0 -27 31z" />
<glyph unicode="&#xb6;" horiz-adv-x="1320" d="M975 1364l-217 -1755q-2 -31 -33 -31h-86q-29 0 -27 31l119 969h-92q-365 0 -365 229q0 23 5 51l32 266q16 129 109.5 199t318.5 70h209q31 0 27 -29zM1292 1362l-215 -1753q-4 -31 -35 -31h-86q-31 0 -24 31l215 1753q4 31 33 31h88q28 0 24 -31z" />
<glyph unicode="&#xb7;" horiz-adv-x="452" d="M371 623l-19 -160q-2 -31 -33 -31h-83q-29 0 -27 31l18 160q2 31 33 30h88q25 1 23 -30z" />
<glyph unicode="&#xb8;" horiz-adv-x="378" d="M172 -109h74q63 0 107 -35.5t44 -107.5q0 -92 -54 -136t-136 -44h-238q-29 0 -24 31l4 30q2 29 31 29h217q96 0 96 82q0 61 -78 61h-125q-51 0 -37 39l68 170q12 29 37 27l41 -6q29 -2 14 -37z" />
<glyph unicode="&#xb9;" horiz-adv-x="768" d="M309 1346l283 61q10 2 16 -3t4 -18l-90 -727h185q20 0 18 -20l-6 -49q-2 -23 -23 -23h-483q-23 0 -20 23l6 47q2 23 24 22h187l77 639l-186 -43q-12 -4 -18.5 0.5t-3.5 16.5l4 51q1 17 26 23z" />
<glyph unicode="&#xba;" horiz-adv-x="733" d="M242 971l34 272q20 166 259 166q111 0 170 -39t59 -104q0 -8 -4 -41l-35 -281q-20 -164 -260 -164q-113 0 -171 38t-58 106q0 16 6 47zM616 954l35 273q2 18 2 24q0 72 -125 72q-133 0 -143 -84l-33 -264q-4 -33 -4 -35q0 -74 125 -74q131 0 143 88z" />
<glyph unicode="&#xbb;" horiz-adv-x="1253" d="M1014 520l-266 215q-29 23 -27 45l12 86q6 35 33 17l344 -285q23 -18 20 -39l-8 -84q-2 -18 -32 -41l-414 -284q-10 -8 -20.5 -3t-8.5 19l12 92q2 23 35 45zM573 520l-266 215q-29 23 -26 45l12 86q6 35 33 17l344 -285q23 -18 20 -39l-8 -84q-2 -18 -33 -41l-413 -284 q-10 -8 -20.5 -3t-8.5 19l12 92q2 23 35 45z" />
<glyph unicode="&#xbc;" horiz-adv-x="1710" d="M1440 813l-213 -467h293l57 467q4 23 25 23h67q25 0 21 -23l-99 -790q-2 -23 -24 -23h-70q-23 0 -18 23l28 231h-393q-18 0 -18 22l2 35q0 8 12 39l215 463q10 23 33 23h69q23 0 13 -23zM1337 1470l-594 -1548q-10 -23 -26 -22h-74q-27 0 -16 22l596 1548q8 23 26 23h76 q22 0 12 -23zM371 1346l282 61q10 2 16.5 -3t4.5 -18l-90 -727h184q20 0 18 -20l-6 -49q-2 -23 -22 -23h-484q-23 0 -20 23l6 47q2 23 25 22h186l78 639l-187 -43q-12 -4 -18 0.5t-4 16.5l4 51q2 17 27 23z" />
<glyph unicode="&#xbd;" horiz-adv-x="1742" d="M1327 1470l-596 -1548q-10 -23 -26 -22h-72q-27 0 -17 22l596 1548q8 23 27 23h74q24 0 14 -23zM1294 92h379q20 0 19 -22l-6 -47q-2 -23 -25 -23h-467q-20 0 -18 23l28 231q8 76 111 111l244 84q70 25 75 79l13 105q2 14 2 31q0 90 -142 90q-82 0 -117.5 -28t-41.5 -81 l-7 -55q-2 -25 -24 -25h-68q-20 0 -18 25l8 69q23 186 279 187q127 0 185 -46t58 -118q0 -20 -2 -37l-14 -113q-14 -119 -133 -157l-226 -78q-70 -27 -73 -61zM371 1346l282 61q10 2 16.5 -3t4.5 -18l-90 -727h184q20 0 18 -20l-6 -49q-2 -23 -22 -23h-484q-23 0 -20 23 l6 47q2 23 25 22h186l78 639l-187 -43q-12 -4 -18 0.5t-4 16.5l4 51q2 17 27 23z" />
<glyph unicode="&#xbe;" horiz-adv-x="1714" d="M1442 813l-213 -467h293l55 467q4 23 27 23h67q25 0 21 -23l-97 -790q-2 -23 -26 -23h-68q-25 0 -20 23l28 231h-391q-25 0 -20 22l4 35q4 23 10 39l217 463q10 23 31 23h70q22 0 12 -23zM1337 1470l-594 -1548q-10 -23 -26 -22h-74q-25 0 -14 22l594 1548q8 23 28 23h72 q24 0 14 -23zM467 1049h94q84 0 121 25.5t41 80.5l4 43q2 23 2 31q0 47 -29.5 69.5t-103.5 22.5q-78 0 -112.5 -26.5t-43.5 -82.5l-2 -14q-2 -20 -22 -20h-66q-18 0 -18 20l2 31q12 182 276 182q236 0 236 -154q0 -12 -4 -40l-8 -78q-6 -57 -33 -87t-86 -44q94 -29 94 -115 q0 -8 -4 -41l-14 -119q-23 -178 -279 -178q-127 0 -185.5 43t-58.5 111q0 16 2 34l2 25q2 20 25 20h65q23 0 21 -20l-2 -18v-13q0 -92 139 -92q150 0 162 109l10 88q4 29 4 32q0 43 -31.5 63.5t-105.5 20.5h-102q-23 0 -21 23l4 45q2 23 27 23z" />
<glyph unicode="&#xbf;" horiz-adv-x="1161" d="M758 649l-21 -160q-18 -131 -159 -196l-150 -74q-113 -55 -125 -158l-18 -137q-2 -18 -2 -41q0 -158 264 -157q152 0 221.5 50t83.5 148l14 94q6 33 31 33h84q29 0 27 -33l-15 -116q-16 -139 -119.5 -219t-338.5 -80q-209 0 -303.5 71.5t-94.5 188.5q0 29 2 45l21 155 q25 180 200 261l117 53q106 51 119 145l16 127q2 31 33 31h86q31 0 27 -31zM635 821l18 160q2 31 33 31h86q29 0 27 -31l-19 -158q-2 -33 -35 -32h-88q-26 -1 -22 30z" />
<glyph unicode="&#xc0;" horiz-adv-x="1077" d="M664 1393h88q29 0 34 -31l244 -1331q6 -31 -22 -31h-90q-27 0 -33 31l-68 364h-469l-155 -364q-12 -31 -39 -31h-82q-35 0 -21 31l570 1331q12 31 43 31zM799 512l-88 479l-23 252q-2 -2 -33.5 -105.5t-48.5 -142.5l-209 -483h402zM627 1530l-133 237q-14 31 20 31h86 q27 0 39 -26l106 -232q12 -29 -18 -29h-65q-25 1 -35 19z" />
<glyph unicode="&#xc1;" horiz-adv-x="1077" d="M664 1393h88q29 0 34 -31l244 -1331q6 -31 -22 -31h-90q-27 0 -33 31l-68 364h-469l-155 -364q-12 -31 -39 -31h-82q-35 0 -21 31l570 1331q12 31 43 31zM799 512l-88 479l-23 252q-2 -2 -33.5 -105.5t-48.5 -142.5l-209 -483h402zM973 1767l-189 -237q-18 -18 -39 -19 h-71q-35 0 -12 29l165 229q20 29 43 29h93q37 0 10 -31z" />
<glyph unicode="&#xc2;" horiz-adv-x="1077" d="M664 1393h88q29 0 34 -31l244 -1331q6 -31 -22 -31h-90q-27 0 -33 31l-68 364h-469l-155 -364q-12 -31 -39 -31h-82q-35 0 -21 31l570 1331q12 31 43 31zM799 512l-88 479l-23 252q-2 -2 -33.5 -105.5t-48.5 -142.5l-209 -483h402zM731 1708l-129 -168q-20 -29 -43 -29 h-67q-37 0 -15 29l185 227q27 31 53 31h51q25 0 43 -29l131 -229q8 -12 3 -20.5t-21 -8.5h-64q-27 0 -41 29z" />
<glyph unicode="&#xc3;" horiz-adv-x="1077" d="M664 1393h88q29 0 34 -31l244 -1331q6 -31 -22 -31h-90q-27 0 -33 31l-68 364h-469l-155 -364q-12 -31 -39 -31h-82q-35 0 -21 31l570 1331q12 31 43 31zM799 512l-88 479l-23 252q-2 -2 -33.5 -105.5t-48.5 -142.5l-209 -483h402zM567.5 1677q-28.5 0 -41 -17.5 t-20.5 -66.5l-6 -30q-6 -27 -35 -27h-43q-29 0 -23 35l11 49q18 88 57 127t104 39q63 0 113 -41l84 -66q41 -33 66 -32q33 0 45 19.5t20 76.5l2 18q2 27 35 27h45q29 0 23 -35l-9 -47q-29 -168 -164 -168q-59 0 -114 43l-84 66q-37 30 -65.5 30z" />
<glyph unicode="&#xc4;" horiz-adv-x="1077" d="M664 1393h88q29 0 34 -31l244 -1331q6 -31 -22 -31h-90q-27 0 -33 31l-68 364h-469l-155 -364q-12 -31 -39 -31h-82q-35 0 -21 31l570 1331q12 31 43 31zM799 512l-88 479l-23 252q-2 -2 -33.5 -105.5t-48.5 -142.5l-209 -483h402zM682 1753l-25 -199q-2 -31 -32 -30h-52 q-27 0 -24 30l22 199q2 29 35 29h51q27 0 25 -29zM901 1753l-24 -199q-2 -31 -33 -30h-51q-27 0 -25 30l25 199q2 29 32 29h52q26 0 24 -29z" />
<glyph unicode="&#xc5;" horiz-adv-x="1077" d="M664 1393h88q29 0 34 -31l244 -1331q6 -31 -22 -31h-90q-27 0 -33 31l-68 364h-469l-155 -364q-12 -31 -39 -31h-82q-35 0 -21 31l570 1331q12 31 43 31zM799 512l-88 479l-23 252q-2 -2 -33.5 -105.5t-48.5 -142.5l-209 -483h402zM913 1665l-4 -53q-10 -135 -198 -135 q-86 0 -133.5 34.5t-47.5 87.5q0 16 2 39l5 39q14 139 202 140q82 0 129 -35t47 -86q0 -6 -2 -31zM827 1626l2 25v26q0 63 -98 64q-109 0 -115 -76l-2 -27v-22q0 -66 97 -66q110 0 116 76z" />
<glyph unicode="&#xc6;" horiz-adv-x="1718" d="M1047 1393h688q29 0 26 -29l-8 -61q-4 -31 -35 -31h-581l-60 -484h545q31 0 29 -28l-9 -58q-6 -31 -32 -30h-547l-70 -551h609q29 0 26 -29l-8 -61q-2 -31 -33 -31h-708q-18 0 -27.5 7t-7.5 26l45 362h-434l-256 -364q-23 -31 -41 -31h-84q-41 0 -21 31l940 1331 q21 31 54 31zM899 1028l-360 -516h364l80 641q-16 -29 -49 -75t-35 -50z" />
<glyph unicode="&#xc7;" horiz-adv-x="1130" d="M551 -109h74q63 0 107 -35.5t44 -107.5q0 -92 -54 -136t-136 -44h-238q-29 0 -24 31l4 30q2 29 30 29h217q96 0 97 82q0 61 -78 61h-125q-51 0 -37 39l60 150q-299 31 -299 250q0 12 4 49l98 821q37 299 465 299q403 0 403 -256q0 -16 -4 -49l-12 -98q-2 -33 -31 -33h-84 q-31 0 -26 33l10 75q2 12 2 39q0 164 -266 164q-289 0 -314 -197l-94 -774q-2 -14 -2 -41q0 -164 264 -163q291 0 316 196l12 109q4 31 33 30h82q31 0 26 -30l-14 -131q-33 -299 -467 -299h-6z" />
<glyph unicode="&#xc8;" d="M670 1530l-133 237q-16 31 20 31h86q25 0 39 -26l106 -232q12 -29 -18 -29h-65q-25 1 -35 19zM940 0h-725q-31 0 -27 31l164 1331q4 31 33 31h700q29 0 27 -31l-8 -64q-2 -31 -33 -30h-584l-59 -477h547q33 0 26 -31l-8 -60q-6 -31 -32 -30h-547l-68 -545h606 q31 0 29 -29l-8 -65q-2 -31 -33 -31z" />
<glyph unicode="&#xc9;" d="M940 0h-725q-31 0 -27 31l164 1331q4 31 33 31h700q29 0 27 -31l-8 -64q-2 -31 -33 -30h-584l-59 -477h547q33 0 26 -31l-8 -60q-6 -31 -32 -30h-547l-68 -545h606q31 0 29 -29l-8 -65q-2 -31 -33 -31zM985 1767l-188 -237q-18 -18 -39 -19h-72q-35 0 -12 29l166 229 q20 29 43 29h92q37 0 10 -31z" />
<glyph unicode="&#xca;" d="M764 1708l-129 -168q-20 -29 -43 -29h-68q-37 0 -14 29l184 227q27 31 54 31h51q25 0 43 -29l131 -229q8 -12 3 -20.5t-22 -8.5h-63q-27 0 -41 29zM940 0h-725q-31 0 -27 31l164 1331q4 31 33 31h700q29 0 27 -31l-8 -64q-2 -31 -33 -30h-584l-59 -477h547q33 0 26 -31 l-8 -60q-6 -31 -32 -30h-547l-68 -545h606q31 0 29 -29l-8 -65q-2 -31 -33 -31z" />
<glyph unicode="&#xcb;" d="M940 0h-725q-31 0 -27 31l164 1331q4 31 33 31h700q29 0 27 -31l-8 -64q-2 -31 -33 -30h-584l-59 -477h547q33 0 26 -31l-8 -60q-6 -31 -32 -30h-547l-68 -545h606q31 0 29 -29l-8 -65q-2 -31 -33 -31zM725 1753l-25 -199q-2 -31 -32 -30h-52q-27 0 -24 30l22 199 q2 29 35 29h51q27 0 25 -29zM944 1753l-24 -199q-2 -31 -33 -30h-51q-27 0 -25 30l25 199q2 29 32 29h52q26 0 24 -29z" />
<glyph unicode="&#xcc;" horiz-adv-x="516" d="M498 1362l-164 -1331q-2 -31 -31 -31h-88q-31 0 -27 31l164 1331q4 31 33 31h88q27 0 25 -31zM369 1530l-133 237q-14 31 20 31h86q27 0 39 -26l106 -232q12 -29 -18 -29h-66q-24 1 -34 19z" />
<glyph unicode="&#xcd;" horiz-adv-x="516" d="M498 1362l-164 -1331q-2 -31 -31 -31h-88q-31 0 -27 31l164 1331q4 31 33 31h88q27 0 25 -31zM698 1767l-188 -237q-18 -18 -39 -19h-72q-35 0 -12 29l166 229q20 29 43 29h92q37 0 10 -31z" />
<glyph unicode="&#xce;" horiz-adv-x="516" d="M498 1362l-164 -1331q-2 -31 -31 -31h-88q-31 0 -27 31l164 1331q4 31 33 31h88q27 0 25 -31zM463 1708l-129 -168q-20 -29 -43 -29h-68q-35 0 -14 29l184 227q27 31 53 31h52q25 0 43 -29l131 -229q8 -12 3 -20.5t-22 -8.5h-63q-27 0 -41 29z" />
<glyph unicode="&#xcf;" horiz-adv-x="516" d="M498 1362l-164 -1331q-2 -31 -31 -31h-88q-31 0 -27 31l164 1331q4 31 33 31h88q27 0 25 -31zM416 1753l-25 -199q-2 -31 -33 -30h-51q-27 0 -24 30l22 199q2 29 35 29h51q27 0 25 -29zM635 1753l-25 -199q-2 -31 -32 -30h-52q-27 0 -24 30l24 199q2 29 33 29h51 q27 0 25 -29z" />
<glyph unicode="&#xd0;" horiz-adv-x="1232" d="M635 0h-422q-29 0 -25 31l76 618h-143q-29 0 -27 29l6 53q2 29 35 29h141l76 602q4 31 33 31h408q215 0 315 -72t100 -191q0 -23 -4 -51l-94 -780q-37 -299 -475 -299zM784 1268h-297l-63 -508h260q29 0 27 -29l-6 -53q-2 -29 -35 -29h-260l-64 -524h297q297 0 322 197 l92 737q2 16 2 41q-1 168 -275 168z" />
<glyph unicode="&#xd1;" horiz-adv-x="1255" d="M1233 1362l-164 -1331q-4 -31 -31 -31h-73q-23 0 -29 14l-426 963q-27 59 -53 135l-133 -1081q-4 -31 -31 -31h-78q-31 0 -29 31l164 1331q2 31 35 31h72q23 0 26 -13l432 -977q35 -74 50 -122l131 1081q2 31 32 31h80q29 0 25 -31zM692.5 1677q-28.5 0 -41 -17.5 t-20.5 -66.5l-6 -30q-6 -27 -35 -27h-43q-29 0 -23 35l11 49q18 88 57 127t104 39q63 0 113 -41l84 -66q41 -33 65 -32q33 0 45.5 19.5t20.5 76.5l2 18q2 27 35 27h45q29 0 22 -35l-8 -47q-29 -168 -164 -168q-59 0 -114 43l-84 66q-37 30 -65.5 30z" />
<glyph unicode="&#xd2;" horiz-adv-x="1210" d="M715 1530l-133 237q-16 31 20 31h86q25 0 39 -26l107 -232q12 -29 -19 -29h-65q-25 1 -35 19zM197 289l98 821q37 299 475 299q215 0 314.5 -71.5t99.5 -188.5q0 -29 -2 -45l-101 -821q-37 -299 -477 -299q-215 0 -313 70.5t-98 187.5q0 10 4 47zM938 305l96 774 q2 14 2 37q0 168 -276 168q-297 0 -322 -197l-94 -774q-4 -29 -4 -37q0 -168 276 -167q297 -1 322 196z" />
<glyph unicode="&#xd3;" horiz-adv-x="1210" d="M1036 1767l-188 -237q-18 -18 -39 -19h-72q-35 0 -12 29l166 229q23 29 43 29h92q37 0 10 -31zM197 289l98 821q37 299 475 299q215 0 314.5 -71.5t99.5 -188.5q0 -29 -2 -45l-101 -821q-37 -299 -477 -299q-215 0 -313 70.5t-98 187.5q0 10 4 47zM938 305l96 774 q2 14 2 37q0 168 -276 168q-297 0 -322 -197l-94 -774q-4 -29 -4 -37q0 -168 276 -167q297 -1 322 196z" />
<glyph unicode="&#xd4;" horiz-adv-x="1210" d="M807 1708l-129 -168q-20 -29 -43 -29h-68q-35 0 -14 29l184 227q27 31 54 31h51q25 0 43 -29l131 -229q8 -12 3 -20.5t-22 -8.5h-63q-27 0 -41 29zM197 289l98 821q37 299 475 299q215 0 314.5 -71.5t99.5 -188.5q0 -29 -2 -45l-101 -821q-37 -299 -477 -299 q-215 0 -313 70.5t-98 187.5q0 10 4 47zM938 305l96 774q2 14 2 37q0 168 -276 168q-297 0 -322 -197l-94 -774q-4 -29 -4 -37q0 -168 276 -167q297 -1 322 196z" />
<glyph unicode="&#xd5;" horiz-adv-x="1210" d="M197 289l98 821q37 299 475 299q215 0 314.5 -71.5t99.5 -188.5q0 -29 -2 -45l-101 -821q-37 -299 -477 -299q-215 0 -313 70.5t-98 187.5q0 10 4 47zM938 305l96 774q2 14 2 37q0 168 -276 168q-297 0 -322 -197l-94 -774q-4 -29 -4 -37q0 -168 276 -167q297 -1 322 196 zM667.5 1677q-28.5 0 -41 -17.5t-20.5 -66.5l-6 -30q-6 -27 -35 -27h-43q-29 0 -22 35l10 49q18 88 57 127t105 39q63 0 112 -41l84 -66q41 -33 66 -32q33 0 45 19.5t20 76.5l2 18q2 27 35 27h45q29 0 23 -35l-8 -47q-29 -168 -164 -168q-59 0 -115 43l-84 66 q-37 30 -65.5 30z" />
<glyph unicode="&#xd6;" horiz-adv-x="1210" d="M197 289l98 821q37 299 475 299q215 0 314.5 -71.5t99.5 -188.5q0 -29 -2 -45l-101 -821q-37 -299 -477 -299q-215 0 -313 70.5t-98 187.5q0 10 4 47zM938 305l96 774q2 14 2 37q0 168 -276 168q-297 0 -322 -197l-94 -774q-4 -29 -4 -37q0 -168 276 -167q297 -1 322 196 zM760 1753l-25 -199q-2 -31 -33 -30h-51q-27 0 -24 30l22 199q2 29 35 29h51q27 0 25 -29zM979 1753l-25 -199q-2 -31 -32 -30h-52q-27 0 -24 30l24 199q2 29 33 29h51q27 0 25 -29z" />
<glyph unicode="&#xd7;" horiz-adv-x="1114" d="M768 317l-170 293l-295 -170q-27 -14 -41 13l-29 53q-14 27 11 41l295 168l-170 297q-14 27 10 41l51 30q25 14 41 -12l170 -295l297 170q29 16 41 -10l29 -51q16 -29 -11 -43l-297 -172l170 -293q12 -25 -12 -41l-49 -31q-27 -15 -41 12z" />
<glyph unicode="&#xd8;" horiz-adv-x="1210" d="M197 289l98 821q37 299 475 299q168 0 272 -49l35 59q18 31 41 31h37q29 0 10 -31l-59 -98q78 -70 78 -172q0 -29 -2 -45l-101 -821q-37 -299 -477 -299q-172 0 -272 47l-31 -54q-23 -35 -43 -34h-37q-29 0 -6 34l55 93q-78 63 -77 172q0 10 4 47zM938 305l96 774 q2 14 2 37q0 39 -14 66l-616 -1030q66 -43 210 -43q297 -1 322 196zM340 276q0 -39 12 -67l619 1032q-74 43 -211 43q-297 0 -322 -197l-94 -774q-4 -29 -4 -37z" />
<glyph unicode="&#xd9;" horiz-adv-x="1232" d="M727 1530l-133 237q-16 31 20 31h86q25 0 39 -26l107 -232q12 -29 -19 -29h-65q-25 1 -35 19zM483 1362l-129 -1036q-4 -41 -4 -50q0 -168 277 -167q297 0 321 196l131 1057q2 31 31 31h88q29 0 27 -31l-133 -1079q-37 -299 -476 -299q-213 0 -313 71.5t-100 190.5 q0 16 4 49l131 1067q2 31 33 31h86q28 0 26 -31z" />
<glyph unicode="&#xda;" horiz-adv-x="1232" d="M483 1362l-129 -1036q-4 -41 -4 -50q0 -168 277 -167q297 0 321 196l131 1057q2 31 31 31h88q29 0 27 -31l-133 -1079q-37 -299 -476 -299q-213 0 -313 71.5t-100 190.5q0 16 4 49l131 1067q2 31 33 31h86q28 0 26 -31zM1049 1767l-189 -237q-18 -18 -39 -19h-71 q-35 0 -13 29l166 229q23 29 43 29h92q38 0 11 -31z" />
<glyph unicode="&#xdb;" horiz-adv-x="1232" d="M817 1708l-129 -168q-20 -29 -43 -29h-67q-37 0 -15 29l185 227q27 31 53 31h51q25 0 43 -29l131 -229q8 -12 3 -20.5t-21 -8.5h-64q-27 0 -41 29zM483 1362l-129 -1036q-4 -41 -4 -50q0 -168 277 -167q297 0 321 196l131 1057q2 31 31 31h88q29 0 27 -31l-133 -1079 q-37 -299 -476 -299q-213 0 -313 71.5t-100 190.5q0 16 4 49l131 1067q2 31 33 31h86q28 0 26 -31z" />
<glyph unicode="&#xdc;" horiz-adv-x="1232" d="M483 1362l-129 -1036q-4 -41 -4 -50q0 -168 277 -167q297 0 321 196l131 1057q2 31 31 31h88q29 0 27 -31l-133 -1079q-37 -299 -476 -299q-213 0 -313 71.5t-100 190.5q0 16 4 49l131 1067q2 31 33 31h86q28 0 26 -31zM766 1753l-25 -199q-2 -31 -32 -30h-52 q-27 0 -24 30l22 199q2 29 35 29h51q27 0 25 -29zM985 1753l-24 -199q-2 -31 -33 -30h-51q-27 0 -25 30l25 199q2 29 32 29h52q26 0 24 -29z" />
<glyph unicode="&#xdd;" horiz-adv-x="1058" d="M365 1362l227 -594q14 -35 20 -78q23 49 41 78l381 594q18 31 41 31h90q39 0 17 -31l-510 -795l-66 -536q-4 -31 -33 -31h-86q-29 0 -26 31l63 520l-315 811q-12 31 24 31h99q23 0 33 -31zM971 1767l-189 -237q-18 -18 -39 -19h-71q-35 0 -13 29l166 229q23 29 43 29h93 q37 0 10 -31z" />
<glyph unicode="&#xde;" horiz-adv-x="1159" d="M496 1362l-41 -350h284q215 0 313.5 -72t98.5 -188q0 -29 -2 -41l-27 -207q-37 -297 -475 -297h-293l-22 -176q-4 -31 -31 -31h-86q-31 0 -29 31l164 1331q2 31 35 31h86q29 0 25 -31zM727 889h-289l-69 -561h290q297 0 322 198l20 164q2 10 3 31q-1 168 -277 168z" />
<glyph unicode="&#xdf;" horiz-adv-x="1234" d="M500 1180l-142 -1149q-2 -31 -32 -31h-84q-27 0 -25 31l105 860h-127q-29 0 -27 29l6 51q2 31 33 30l127 7h2l22 178q31 264 433 264q365 0 364 -227q0 -27 -2 -49l-8 -62q-14 -127 -176 -180l-135 -41q-2 0 -15.5 -4t-17.5 -5t-17.5 -6.5t-19.5 -9.5l-16 -11 q-10 -7 -15.5 -14t-9.5 -18.5t-6 -23.5l-2 -19v-12q0 -23 19.5 -45.5t39 -33.5t37.5 -17l231 -94q164 -70 164 -179q0 -16 -2 -37l-14 -120q-16 -127 -96 -192.5t-273 -65.5q-166 0 -235.5 52t-69.5 152q0 14 2 43l2 29q2 33 35 33h57q31 0 27 -33l-2 -27q-2 -16 -2 -30 q0 -59 44 -91t150 -32q119 0 170.5 40t59.5 113l10 95q2 14 2 39q0 10 -2 19t-6 16.5t-10 14.5t-11.5 12t-14.5 11l-15 10l-17 8q-10 5 -13 6t-13 5l-11 4l-221 86q-147 57 -147 180q0 18 2 35l4 27q14 121 176 172l113 33q123 35 131 114l4 47q2 23 2 39q0 139 -242 140 q-260 0 -280 -166z" />
<glyph unicode="&#xe0;" d="M778 31l6 75q-170 -123 -362 -122q-127 0 -192.5 58t-65.5 161q0 14 4 43l63 520q35 262 314 262q197 0 338 -125l14 78q6 31 33 31h76q27 0 24 -31l-117 -950q-4 -31 -32 -31h-76q-27 0 -27 31zM371 745l-62 -479q-2 -10 -2 -28q0 -127 166 -127q160 0 322 114l69 559 q-129 117 -293 117q-177 0 -200 -156zM596 1182l-133 237q-16 31 20 31h86q23 0 37 -29l109 -229q12 -29 -19 -29h-65q-25 1 -35 19z" />
<glyph unicode="&#xe1;" d="M778 31l6 75q-170 -123 -362 -122q-127 0 -192.5 58t-65.5 161q0 14 4 43l63 520q35 262 314 262q197 0 338 -125l14 78q6 31 33 31h76q27 0 24 -31l-117 -950q-4 -31 -32 -31h-76q-27 0 -27 31zM371 745l-62 -479q-2 -10 -2 -28q0 -127 166 -127q160 0 322 114l69 559 q-129 117 -293 117q-177 0 -200 -156zM897 1419l-190 -237q-14 -18 -39 -19h-72q-33 0 -10 29l164 229q18 29 43 29h92q16 0 19 -9.5t-7 -21.5z" />
<glyph unicode="&#xe2;" d="M778 31l6 75q-170 -123 -362 -122q-127 0 -192.5 58t-65.5 161q0 14 4 43l63 520q35 262 314 262q197 0 338 -125l14 78q6 31 33 31h76q27 0 24 -31l-117 -950q-4 -31 -32 -31h-76q-27 0 -27 31zM371 745l-62 -479q-2 -10 -2 -28q0 -127 166 -127q160 0 322 114l69 559 q-129 117 -293 117q-177 0 -200 -156zM670 1360l-129 -168q-20 -29 -45 -29h-68q-35 0 -12 29l184 227q27 31 51 31h54q25 0 43 -29l131 -229q8 -12 3 -20.5t-22 -8.5h-63q-27 0 -41 29z" />
<glyph unicode="&#xe3;" d="M778 31l6 75q-170 -123 -362 -122q-127 0 -192.5 58t-65.5 161q0 14 4 43l63 520q35 262 314 262q197 0 338 -125l14 78q6 31 33 31h76q27 0 24 -31l-117 -950q-4 -31 -32 -31h-76q-27 0 -27 31zM371 745l-62 -479q-2 -10 -2 -28q0 -127 166 -127q160 0 322 114l69 559 q-129 117 -293 117q-177 0 -200 -156zM532 1317q-31 0 -43 -17.5t-20 -66.5l-6 -29q-6 -29 -35 -28h-43q-29 0 -23 34l11 52q29 166 162 165q59 0 112 -41l84 -67q45 -33 66 -33q33 0 45 19.5t20 76.5l2 19q6 27 35 26h45q31 0 25 -32l-11 -49q-33 -166 -163 -166 q-63 0 -115 41l-84 67q-39 29 -64 29z" />
<glyph unicode="&#xe4;" d="M778 31l6 75q-170 -123 -362 -122q-127 0 -192.5 58t-65.5 161q0 14 4 43l63 520q35 262 314 262q197 0 338 -125l14 78q6 31 33 31h76q27 0 24 -31l-117 -950q-4 -31 -32 -31h-76q-27 0 -27 31zM371 745l-62 -479q-2 -10 -2 -28q0 -127 166 -127q160 0 322 114l69 559 q-129 117 -293 117q-177 0 -200 -156zM623 1409l-25 -199q-2 -29 -33 -28h-49q-29 0 -27 28l25 199q2 31 33 31h51q29 0 25 -31zM842 1409l-23 -199q-2 -29 -35 -28h-49q-29 0 -26 28l24 199q4 31 33 31h51q27 0 25 -31z" />
<glyph unicode="&#xe5;" d="M778 31l6 75q-170 -123 -362 -122q-127 0 -192.5 58t-65.5 161q0 14 4 43l63 520q35 262 314 262q197 0 338 -125l14 78q6 31 33 31h76q27 0 24 -31l-117 -950q-4 -31 -32 -31h-76q-27 0 -27 31zM371 745l-62 -479q-2 -10 -2 -28q0 -127 166 -127q160 0 322 114l69 559 q-129 117 -293 117q-177 0 -200 -156zM877 1323l-5 -53q-10 -135 -198 -135q-86 0 -133 34.5t-47 87.5q0 16 2 39l4 39q14 139 202 140q82 0 129.5 -35t47.5 -86q0 -6 -2 -31zM791 1284l2 25v26q0 63 -99 64q-109 0 -114 -76l-2 -27v-22q0 -66 96 -66q111 0 117 76z" />
<glyph unicode="&#xe6;" horiz-adv-x="1613" d="M1583 764l-31 -252q-4 -29 -30 -29h-582l-29 -221q-4 -33 -4 -35q0 -131 223 -131q129 0 184.5 39t69.5 113l9 43q6 29 32 28h70q29 0 27 -28l-6 -47q-16 -127 -104.5 -193.5t-291.5 -66.5q-274 0 -332 143q-176 -143 -370 -143q-117 0 -194 53t-77 153q0 23 3 35l12 101 q12 100 88 167.5t207 67.5h352l22 187q4 33 5 40q0 131 -213 132q-129 0 -183.5 -39t-68.5 -115l-6 -33q-6 -33 -33 -33h-72q-35 0 -29 33l7 35q23 127 109.5 193.5t283.5 66.5q225 0 287 -110q90 111 323 110q344 0 344 -225q0 -27 -2 -39zM451 100q147 0 317 129l29 220 h-330q-76 0 -120 -40t-50 -104l-6 -61v-11l-2 -6q0 -127 162 -127zM973 760l-23 -168h477l23 168v24q0 131 -219 131q-238 1 -258 -155z" />
<glyph unicode="&#xe7;" horiz-adv-x="980" d="M494 -109h73q63 0 107.5 -35.5t44.5 -107.5q0 -92 -54.5 -136t-136.5 -44h-237q-29 0 -25 31l4 30q2 29 31 29h217q96 0 96 82q0 61 -77 61h-125q-51 0 -37 39l57 148q-268 20 -268 221q0 25 2 39l63 516q14 127 106.5 195.5t297.5 68.5q344 0 344 -225q0 -29 -2 -41 l-6 -37q-6 -31 -33 -31h-78q-27 0 -24 31l2 31q0 2 1 14t1 16q0 125 -213 125q-131 0 -187.5 -40t-66.5 -115l-62 -486q-2 -14 -2 -41q0 -63 49.5 -96t165.5 -33q131 0 187.5 40t66.5 118l6 45q2 31 33 31h76q31 0 27 -31l-7 -55q-14 -123 -101 -191.5t-280 -72.5z" />
<glyph unicode="&#xe8;" horiz-adv-x="1007" d="M977 764l-31 -252q-4 -29 -31 -29h-581l-29 -217q-2 -18 -2 -39q0 -131 219 -131q244 0 258 152l4 43q2 29 35 28h72q31 0 27 -28l-7 -43q-18 -129 -106 -196.5t-291 -67.5q-350 0 -350 225q0 27 2 39l63 516q14 127 107.5 195.5t298.5 68.5q344 0 344 -225q0 -27 -2 -39 zM369 760l-23 -168h475l23 160q2 14 2 32q0 131 -221 131q-236 1 -256 -155zM584 1182l-133 237q-16 31 20 31h86q23 0 37 -29l108 -229q12 -29 -18 -29h-66q-24 1 -34 19z" />
<glyph unicode="&#xe9;" horiz-adv-x="1007" d="M899 1419l-190 -237q-14 -18 -39 -19h-72q-33 0 -10 29l164 229q18 29 43 29h92q16 0 19 -9.5t-7 -21.5zM977 764l-31 -252q-4 -29 -31 -29h-581l-29 -217q-2 -18 -2 -39q0 -131 219 -131q244 0 258 152l4 43q2 29 35 28h72q31 0 27 -28l-7 -43q-18 -129 -106 -196.5 t-291 -67.5q-350 0 -350 225q0 27 2 39l63 516q14 127 107.5 195.5t298.5 68.5q344 0 344 -225q0 -27 -2 -39zM369 760l-23 -168h475l23 160q2 14 2 32q0 131 -221 131q-236 1 -256 -155z" />
<glyph unicode="&#xea;" horiz-adv-x="1007" d="M668 1360l-129 -168q-20 -29 -45 -29h-68q-33 0 -12 29l184 227q27 31 51 31h53q25 0 43 -29l132 -229q8 -12 2.5 -20.5t-21.5 -8.5h-63q-27 0 -41 29zM977 764l-31 -252q-4 -29 -31 -29h-581l-29 -217q-2 -18 -2 -39q0 -131 219 -131q244 0 258 152l4 43q2 29 35 28h72 q31 0 27 -28l-7 -43q-18 -129 -106 -196.5t-291 -67.5q-350 0 -350 225q0 27 2 39l63 516q14 127 107.5 195.5t298.5 68.5q344 0 344 -225q0 -27 -2 -39zM369 760l-23 -168h475l23 160q2 14 2 32q0 131 -221 131q-236 1 -256 -155z" />
<glyph unicode="&#xeb;" horiz-adv-x="1007" d="M610 1409l-24 -199q-2 -29 -33 -28h-49q-29 0 -27 28l25 199q2 31 33 31h51q28 0 24 -31zM829 1409l-22 -199q-2 -29 -35 -28h-49q-29 0 -27 28l25 199q4 31 33 31h51q26 0 24 -31zM977 764l-31 -252q-4 -29 -31 -29h-581l-29 -217q-2 -18 -2 -39q0 -131 219 -131 q244 0 258 152l4 43q2 29 35 28h72q31 0 27 -28l-7 -43q-18 -129 -106 -196.5t-291 -67.5q-350 0 -350 225q0 27 2 39l63 516q14 127 107.5 195.5t298.5 68.5q344 0 344 -225q0 -27 -2 -39zM369 760l-23 -168h475l23 160q2 14 2 32q0 131 -221 131q-236 1 -256 -155z" />
<glyph unicode="&#xec;" horiz-adv-x="464" d="M424 981l-117 -950q-4 -31 -33 -31h-84q-27 0 -24 31l117 950q4 31 32 31h82q29 0 27 -31zM301 1182l-133 237q-16 31 20 31h86q23 0 37 -29l109 -229q12 -29 -19 -29h-65q-25 1 -35 19z" />
<glyph unicode="&#xed;" horiz-adv-x="464" d="M631 1419l-191 -237q-14 -18 -39 -19h-71q-33 0 -11 29l164 229q18 29 43 29h92q16 0 19.5 -9.5t-6.5 -21.5zM424 981l-117 -950q-4 -31 -33 -31h-84q-27 0 -24 31l117 950q4 31 32 31h82q29 0 27 -31z" />
<glyph unicode="&#xee;" horiz-adv-x="464" d="M399 1360l-129 -168q-20 -29 -45 -29h-67q-35 0 -13 29l185 227q27 31 51 31h53q25 0 43 -29l131 -229q8 -12 3 -20.5t-21 -8.5h-64q-27 0 -41 29zM424 981l-117 -950q-4 -31 -33 -31h-84q-27 0 -24 31l117 950q4 31 32 31h82q29 0 27 -31z" />
<glyph unicode="&#xef;" horiz-adv-x="464" d="M354 1409l-24 -199q-2 -29 -33 -28h-49q-29 0 -27 28l25 199q4 31 33 31h51q26 0 24 -31zM573 1409l-22 -199q-2 -29 -35 -28h-49q-29 0 -27 28l25 199q2 31 33 31h51q28 0 24 -31zM424 981l-117 -950q-4 -31 -33 -31h-84q-27 0 -24 31l117 950q4 31 32 31h82 q29 0 27 -31z" />
<glyph unicode="&#xf0;" horiz-adv-x="1136" d="M717 1231l162 67q-49 49 -189 50h-182q-29 0 -27 26l4 45q2 31 35 31h185q215 0 296 -88l111 49q27 10 37 -10l10 -21q10 -25 -20 -39l-101 -45q10 -27 11 -65q0 -31 -2 -43l-115 -942q-31 -262 -408 -262q-184 0 -272 60t-88 167q0 23 2 35l63 520q31 262 314 262 q195 0 334 -123l32 256v21q0 27 -8 45l-156 -64q-31 -12 -38 11l-9 20q-10 27 19 37zM799 256l63 530q-131 119 -293 119q-94 0 -143 -44t-57 -113l-60 -492q0 -2 -1 -11t-1 -14q0 -133 228 -133q244 0 264 158z" />
<glyph unicode="&#xf1;" horiz-adv-x="1085" d="M315 1012h76q31 0 27 -31l-6 -78q166 125 360 125q123 0 191.5 -59.5t68.5 -157.5q0 -27 -2 -41l-90 -739q-2 -31 -35 -31h-82q-33 0 -26 31l88 706q0 6 1 18.5t1 16.5q0 129 -164 129t-324 -115l-90 -755q-2 -31 -35 -31h-84q-31 0 -24 31l119 950q1 31 30 31zM565 1317 q-31 0 -43 -17.5t-20 -66.5l-6 -29q-6 -29 -35 -28h-43q-29 0 -23 34l11 52q29 166 161 165q59 0 113 -41l84 -67q45 -33 65 -33q33 0 45.5 19.5t20.5 76.5l2 19q6 27 35 26h45q31 0 24 -32l-10 -49q-33 -166 -164 -166q-63 0 -114 41l-84 67q-39 29 -64 29z" />
<glyph unicode="&#xf2;" horiz-adv-x="1050" d="M166 248l63 516q31 264 416 264q182 0 270.5 -60.5t88.5 -166.5q0 -25 -3 -37l-63 -516q-31 -264 -416 -264q-182 0 -270 60t-88 167q0 25 2 37zM797 258l63 496v22q0 135 -225 135q-244 0 -264 -157l-62 -496q-2 -8 -2 -25q0 -133 228 -133q242 0 262 158zM584 1182 l-133 237q-16 31 20 31h86q23 0 37 -29l108 -229q12 -29 -18 -29h-66q-24 1 -34 19z" />
<glyph unicode="&#xf3;" horiz-adv-x="1050" d="M909 1419l-190 -237q-14 -18 -39 -19h-72q-33 0 -10 29l164 229q18 29 43 29h92q16 0 19 -9.5t-7 -21.5zM166 248l63 516q31 264 416 264q182 0 270.5 -60.5t88.5 -166.5q0 -25 -3 -37l-63 -516q-31 -264 -416 -264q-182 0 -270 60t-88 167q0 25 2 37zM797 258l63 496v22 q0 135 -225 135q-244 0 -264 -157l-62 -496q-2 -8 -2 -25q0 -133 228 -133q242 0 262 158z" />
<glyph unicode="&#xf4;" horiz-adv-x="1050" d="M686 1360l-129 -168q-20 -29 -45 -29h-68q-35 0 -12 29l184 227q27 31 52 31h53q25 0 43 -29l131 -229q8 -12 3 -20.5t-21 -8.5h-64q-27 0 -41 29zM166 248l63 516q31 264 416 264q182 0 270.5 -60.5t88.5 -166.5q0 -25 -3 -37l-63 -516q-31 -264 -416 -264 q-182 0 -270 60t-88 167q0 25 2 37zM797 258l63 496v22q0 135 -225 135q-244 0 -264 -157l-62 -496q-2 -8 -2 -25q0 -133 228 -133q242 0 262 158z" />
<glyph unicode="&#xf5;" horiz-adv-x="1050" d="M166 248l63 516q31 264 416 264q182 0 270.5 -60.5t88.5 -166.5q0 -25 -3 -37l-63 -516q-31 -264 -416 -264q-182 0 -270 60t-88 167q0 25 2 37zM797 258l63 496v22q0 135 -225 135q-244 0 -264 -157l-62 -496q-2 -8 -2 -25q0 -133 228 -133q242 0 262 158zM526 1317 q-31 0 -43 -17.5t-20 -66.5l-6 -29q-6 -29 -35 -28h-43q-29 0 -23 34l11 52q29 166 161 165q59 0 113 -41l84 -67q45 -33 66 -33q33 0 45 19.5t20 76.5l2 19q6 27 35 26h45q31 0 25 -32l-11 -49q-33 -166 -164 -166q-63 0 -114 41l-84 67q-39 29 -64 29z" />
<glyph unicode="&#xf6;" horiz-adv-x="1050" d="M629 1409l-25 -199q-2 -29 -33 -28h-49q-29 0 -26 28l24 199q4 31 33 31h51q27 0 25 -31zM848 1409l-23 -199q-2 -29 -34 -28h-50q-29 0 -26 28l24 199q2 31 33 31h51q29 0 25 -31zM166 248l63 516q31 264 416 264q182 0 270.5 -60.5t88.5 -166.5q0 -25 -3 -37l-63 -516 q-31 -264 -416 -264q-182 0 -270 60t-88 167q0 25 2 37zM797 258l63 496v22q0 135 -225 135q-244 0 -264 -157l-62 -496q-2 -8 -2 -25q0 -133 228 -133q242 0 262 158z" />
<glyph unicode="&#xf7;" horiz-adv-x="1204" d="M264 715h823q29 0 29 -29v-61q0 -31 -29 -31h-821q-31 0 -30 31v61q-1 29 28 29zM750 395v-159q0 -31 -31 -31h-84q-31 0 -31 31v159q0 31 31 31h84q31 0 31 -31zM750 1081v-159q0 -31 -31 -31h-84q-31 0 -31 31v159q0 31 31 31h84q31 0 31 -31z" />
<glyph unicode="&#xf8;" horiz-adv-x="1050" d="M166 248l63 516q31 264 416 264q137 0 227 -39l35 53q23 31 41 31h37q25 0 6 -31l-59 -88q72 -57 72 -153q0 -25 -3 -37l-63 -516q-31 -264 -416 -264q-139 0 -229 36l-33 -47q-20 -31 -43 -30h-35q-12 0 -12 10t6 20l57 84q-70 55 -69 154q0 25 2 37zM797 258l61 485 q4 25 4 33q0 35 -14 58l-481 -705q57 -29 168 -29q242 0 262 158zM307 233q0 -27 10 -53l480 701q-55 31 -162 30q-244 0 -264 -157l-62 -496q-2 -9 -2 -25z" />
<glyph unicode="&#xf9;" d="M776 31l4 73q-152 -121 -346 -120q-125 0 -192.5 58t-67.5 157q0 23 2 34l92 748q2 31 33 31h82q29 0 27 -31l-88 -715q-2 -10 -3 -30q0 -125 164 -125q156 0 312 112l90 758q4 31 35 31h84q29 0 24 -31l-117 -950q-2 -31 -32 -31h-76q-29 0 -27 31zM596 1182l-133 237 q-16 31 20 31h86q23 0 37 -29l109 -229q12 -29 -19 -29h-65q-25 1 -35 19z" />
<glyph unicode="&#xfa;" d="M911 1419l-190 -237q-14 -18 -39 -19h-72q-33 0 -10 29l164 229q18 29 43 29h92q16 0 19 -9.5t-7 -21.5zM776 31l4 73q-152 -121 -346 -120q-125 0 -192.5 58t-67.5 157q0 23 2 34l92 748q2 31 33 31h82q29 0 27 -31l-88 -715q-2 -10 -3 -30q0 -125 164 -125 q156 0 312 112l90 758q4 31 35 31h84q29 0 24 -31l-117 -950q-2 -31 -32 -31h-76q-29 0 -27 31z" />
<glyph unicode="&#xfb;" d="M684 1360l-129 -168q-20 -29 -45 -29h-68q-33 0 -12 29l184 227q27 31 52 31h53q25 0 43 -29l131 -229q8 -12 3 -20.5t-22 -8.5h-63q-27 0 -41 29zM776 31l4 73q-152 -121 -346 -120q-125 0 -192.5 58t-67.5 157q0 23 2 34l92 748q2 31 33 31h82q29 0 27 -31l-88 -715 q-2 -10 -3 -30q0 -125 164 -125q156 0 312 112l90 758q4 31 35 31h84q29 0 24 -31l-117 -950q-2 -31 -32 -31h-76q-29 0 -27 31z" />
<glyph unicode="&#xfc;" d="M639 1409l-25 -199q-2 -29 -32 -28h-50q-29 0 -26 28l24 199q2 31 33 31h51q29 0 25 -31zM858 1409l-22 -199q-2 -29 -35 -28h-49q-29 0 -27 28l25 199q4 31 32 31h52q26 0 24 -31zM776 31l4 73q-152 -121 -346 -120q-125 0 -192.5 58t-67.5 157q0 23 2 34l92 748 q2 31 33 31h82q29 0 27 -31l-88 -715q-2 -10 -3 -30q0 -125 164 -125q156 0 312 112l90 758q4 31 35 31h84q29 0 24 -31l-117 -950q-2 -31 -32 -31h-76q-29 0 -27 31z" />
<glyph unicode="&#xfd;" horiz-adv-x="884" d="M301 981l148 -680q20 -82 16 -123q31 90 45 119l317 684q14 31 37 31h78q41 0 25 -31l-637 -1374q-14 -31 -37 -31h-66q-39 0 -22 31l172 385l-219 989q-6 31 28 31h84q25 0 31 -31zM827 1419l-190 -237q-14 -18 -39 -19h-72q-33 0 -10 29l164 229q18 29 43 29h92 q16 0 19 -9.5t-7 -21.5z" />
<glyph unicode="&#xfe;" d="M475 1401l-61 -496q170 123 358 123q127 0 193.5 -59.5t66.5 -159.5q0 -20 -4 -53l-63 -510q-35 -262 -314 -262q-199 0 -336 120l-61 -497q-4 -31 -31 -31h-84q-29 0 -26 31l221 1794q2 31 33 31h82q30 0 26 -31zM823 264l60 473q4 33 4 39q0 129 -166 129 q-168 0 -320 -119l-71 -563q129 -117 293 -117q94 0 143 44t57 114z" />
<glyph unicode="&#xff;" horiz-adv-x="884" d="M301 981l148 -680q20 -82 16 -123q31 90 45 119l317 684q14 31 37 31h78q41 0 25 -31l-637 -1374q-14 -31 -37 -31h-66q-39 0 -22 31l172 385l-219 989q-6 31 28 31h84q25 0 31 -31zM539 1409l-25 -199q-2 -29 -33 -28h-49q-29 0 -26 28l24 199q4 31 33 31h51 q27 0 25 -31zM758 1409l-23 -199q-2 -29 -35 -28h-49q-29 0 -26 28l24 199q2 31 33 31h51q29 0 25 -31z" />
<glyph unicode="&#x152;" horiz-adv-x="1789" d="M197 289l100 821q35 299 457 299q201 0 309 -80l4 33q6 31 35 31h698q29 0 27 -29l-6 -64q-2 -29 -35 -28h-584l-57 -484h545q29 0 26 -26l-6 -62q-2 -29 -35 -28h-545l-69 -551h608q29 0 27 -29l-8 -61q-2 -31 -33 -31h-725q-29 0 -27 31l4 30q-119 -78 -305 -77 q-215 0 -312 69.5t-97 186.5q0 12 4 49zM936 301l31 242l69 567v10q0 168 -276 168q-295 0 -320 -201l-96 -776q-2 -14 -2 -39q0 -168 274 -168q295 0 320 197z" />
<glyph unicode="&#x153;" horiz-adv-x="1638" d="M1147 -16q-225 0 -307 94q-88 -94 -316 -94q-184 0 -272 60t-88 167q0 23 2 35l63 518q16 127 110.5 195.5t299.5 68.5q229 0 305 -102q96 102 324 102q344 0 344 -223q0 -27 -2 -41l-31 -246q-2 -29 -31 -29h-581l-31 -237q-2 -14 -2 -27q0 -133 221 -133q236 0 256 156 l6 41q4 31 35 30h70q27 0 26 -30l-6 -45q-14 -127 -103 -193.5t-292 -66.5zM797 256l63 500v22q0 135 -225 135q-244 0 -264 -157l-62 -500q-2 -8 -2 -25q0 -133 228 -133q246 0 262 158zM1454 586l23 174v24q0 135 -220 136q-238 0 -258 -160l-22 -174h477z" />
<glyph unicode="&#x178;" horiz-adv-x="1058" d="M365 1362l227 -594q14 -35 20 -78q23 49 41 78l381 594q18 31 41 31h90q39 0 17 -31l-510 -795l-66 -536q-4 -31 -33 -31h-86q-29 0 -26 31l63 520l-315 811q-12 31 24 31h99q23 0 33 -31zM670 1753l-25 -199q-2 -31 -33 -30h-51q-27 0 -24 30l22 199q2 29 35 29h51 q27 0 25 -29zM889 1753l-25 -199q-2 -31 -33 -30h-51q-27 0 -24 30l24 199q2 29 33 29h51q27 0 25 -29z" />
<glyph unicode="&#x2c6;" horiz-adv-x="710" d="M520 1360l-129 -168q-20 -29 -45 -29h-67q-33 0 -13 29l185 227q27 31 51 31h53q25 0 43 -29l131 -229q8 -12 3 -20.5t-21 -8.5h-64q-27 0 -41 29z" />
<glyph unicode="&#x2dc;" horiz-adv-x="864" d="M455 1317q-31 0 -43.5 -17.5t-20.5 -66.5l-6 -29q-6 -29 -35 -28h-43q-29 0 -22 34l10 52q29 166 162 165q59 0 112 -41l84 -67q45 -33 66 -33q33 0 45 19.5t20 76.5l2 19q6 27 35 26h45q31 0 25 -32l-10 -49q-33 -166 -164 -166q-63 0 -115 41l-84 67q-38 29 -63 29z " />
<glyph unicode="&#x2000;" horiz-adv-x="907" />
<glyph unicode="&#x2001;" horiz-adv-x="1816" />
<glyph unicode="&#x2002;" horiz-adv-x="907" />
<glyph unicode="&#x2003;" horiz-adv-x="1816" />
<glyph unicode="&#x2004;" horiz-adv-x="604" />
<glyph unicode="&#x2005;" horiz-adv-x="452" />
<glyph unicode="&#x2006;" horiz-adv-x="301" />
<glyph unicode="&#x2007;" horiz-adv-x="301" />
<glyph unicode="&#x2008;" horiz-adv-x="225" />
<glyph unicode="&#x2009;" horiz-adv-x="362" />
<glyph unicode="&#x200a;" horiz-adv-x="100" />
<glyph unicode="&#x2010;" horiz-adv-x="933" d="M258 651h549q31 0 31 -28v-60q0 -31 -31 -31h-549q-31 0 -31 31v60q0 28 31 28z" />
<glyph unicode="&#x2011;" horiz-adv-x="933" d="M258 651h549q31 0 31 -28v-60q0 -31 -31 -31h-549q-31 0 -31 31v60q0 28 31 28z" />
<glyph unicode="&#x2012;" horiz-adv-x="933" d="M258 651h549q31 0 31 -28v-60q0 -31 -31 -31h-549q-31 0 -31 31v60q0 28 31 28z" />
<glyph unicode="&#x2013;" horiz-adv-x="1118" d="M258 651h733q31 0 31 -28v-60q0 -31 -31 -31h-733q-31 0 -31 31v60q0 28 31 28z" />
<glyph unicode="&#x2014;" horiz-adv-x="1751" d="M258 651h1366q31 0 31 -28v-60q0 -31 -31 -31h-1366q-31 0 -31 31v60q0 28 31 28z" />
<glyph unicode="&#x2018;" horiz-adv-x="487" d="M449 1237l-17 -125q-2 -31 -33 -31h-86q-27 0 -24 31l16 131q20 184 236 250q27 8 34 -18l17 -60q6 -27 -25 -39q-61 -27 -86.5 -58.5t-31.5 -80.5z" />
<glyph unicode="&#x2019;" horiz-adv-x="487" d="M358 1337l17 125q2 31 33 31h86q27 0 24 -31l-16 -131q-20 -184 -236 -250q-27 -8 -35 19l-16 59q-6 27 25 39q61 27 86.5 58.5t31.5 80.5z" />
<glyph unicode="&#x201a;" horiz-adv-x="487" d="M195 66l16 124q2 31 33 31h86q27 0 24 -31l-16 -131q-20 -184 -236 -249q-27 -8 -34 18l-17 59q-6 27 25 39q61 27 87 59t32 81z" />
<glyph unicode="&#x201c;" horiz-adv-x="811" d="M772 1237l-16 -125q-2 -31 -33 -31h-86q-27 0 -25 31l17 131q20 184 235 250q27 8 35 -18l16 -60q6 -27 -24 -39q-61 -27 -87 -58.5t-32 -80.5zM449 1237l-17 -125q-2 -31 -33 -31h-86q-27 0 -24 31l16 131q20 184 236 250q27 8 34 -18l17 -60q6 -27 -25 -39 q-61 -27 -86.5 -58.5t-31.5 -80.5z" />
<glyph unicode="&#x201d;" horiz-adv-x="811" d="M682 1337l16 125q2 31 33 31h86q27 0 25 -31l-17 -131q-20 -184 -235 -250q-27 -8 -35 19l-16 59q-6 27 24 39q61 27 87 58.5t32 80.5zM358 1337l17 125q2 31 33 31h86q27 0 24 -31l-16 -131q-20 -184 -236 -250q-27 -8 -35 19l-16 59q-6 27 25 39q61 27 86.5 58.5 t31.5 80.5z" />
<glyph unicode="&#x201e;" horiz-adv-x="811" d="M518 66l17 124q2 31 32 31h86q27 0 25 -31l-16 -131q-20 -184 -236 -249q-27 -8 -35 18l-16 59q-6 27 24 39q61 27 87 59t32 81zM195 66l16 124q2 31 33 31h86q27 0 24 -31l-16 -131q-20 -184 -236 -249q-27 -8 -34 18l-17 59q-6 27 25 39q61 27 87 59t32 81z" />
<glyph unicode="&#x2022;" horiz-adv-x="514" d="M412 670l-33 -264q-2 -31 -35 -31h-84q-29 0 -27 31l33 264q2 31 35 30h84q29 1 27 -30z" />
<glyph unicode="&#x2026;" horiz-adv-x="1466" d="M319 190l-18 -159q-2 -31 -33 -31h-84q-29 0 -26 31l18 159q4 31 33 31h88q26 0 22 -31zM1333 190l-18 -159q-2 -31 -33 -31h-84q-29 0 -27 31l19 159q2 31 33 31h88q24 0 22 -31zM827 190l-18 -159q-2 -31 -33 -31h-84q-29 0 -26 31l18 159q4 31 33 31h88q26 0 22 -31z " />
<glyph unicode="&#x202f;" horiz-adv-x="362" />
<glyph unicode="&#x2039;" horiz-adv-x="815" d="M324 500l266 -215q29 -23 26 -45l-12 -86q-6 -35 -33 -17l-344 285q-23 18 -20 39l8 84q2 18 33 41l414 284q10 8 20 3t8 -19l-12 -92q-2 -23 -35 -45z" />
<glyph unicode="&#x203a;" horiz-adv-x="815" d="M573 506l-266 215q-29 23 -26 45l12 86q6 35 33 16l344 -284q23 -18 20 -39l-8 -84q-2 -18 -33 -41l-413 -285q-10 -8 -20.5 -3t-8.5 20l12 92q2 23 35 45z" />
<glyph unicode="&#x205f;" horiz-adv-x="452" />
<glyph unicode="&#x20ac;" horiz-adv-x="1175" d="M203 618h135l18 156h-135q-29 0 -26 31l4 37q2 29 32 28h136l30 240q37 299 465 299q403 0 404 -256q0 -16 -4 -49l-13 -98q-2 -33 -30 -33h-84q-31 0 -27 33l10 75q2 12 2 39q0 164 -266 164q-289 0 -313 -197l-27 -217h277q29 0 26 -28l-2 -37q-2 -31 -35 -31h-278 l-19 -156h277q29 0 26 -30l-4 -35q-2 -31 -32 -31h-279l-25 -209q-2 -14 -2 -41q0 -164 265 -163q291 0 315 196l12 109q4 31 33 30h82q31 0 27 -30l-15 -131q-33 -299 -467 -299q-401 0 -401 256q0 12 4 49l27 233h-136q-29 0 -26 31l4 35q2 30 35 30z" />
<glyph unicode="&#x2122;" horiz-adv-x="1830" d="M1761 1368l-98 -786q-4 -25 -27 -25h-69q-23 0 -21 25l70 577l-27 -53l-227 -397q-14 -25 -37 -25h-51q-27 0 -33 25l-137 401q-6 16 -10 55l-72 -583q-2 -25 -27 -25h-65q-25 0 -23 25l97 786q4 25 28 25h64q14 0 20 -17l180 -504q10 -27 17 -55l30 53l297 508 q10 14 27 15h72q26 0 22 -25zM328 1393h555q25 0 22 -25l-6 -53q-2 -25 -29 -25h-217l-86 -708q-2 -25 -26 -25h-74q-25 0 -23 25l86 708h-213q-27 0 -24 25l6 53q2 25 29 25z" />
<glyph unicode="&#xe000;" horiz-adv-x="1010" d="M0 1010h1010v-1010h-1010v1010z" />
<glyph unicode="&#xfb01;" horiz-adv-x="1107" d="M1081 977l-116 -946q-2 -31 -31 -31h-84q-31 0 -27 31l107 860h-461l-160 -1282q-2 -31 -30 -31h-82q-31 0 -29 31l160 1282h-127q-29 0 -27 31l4 49q2 29 33 30l113 7h18l18 159q31 264 406 265h299q35 0 29 -31l-9 -60q-6 -31 -32 -30h-291q-131 0 -190.5 -40 t-69.5 -118l-19 -145h572q28 0 26 -31z" />
<glyph unicode="&#xfb02;" horiz-adv-x="1126" d="M1133 1401l-168 -1370q-2 -31 -31 -31h-84q-31 0 -27 31l158 1280h-219q-131 0 -190.5 -40t-69.5 -118l-19 -145h222q31 0 28 -29l-8 -57q-4 -31 -33 -31h-223l-160 -1282q-2 -31 -30 -31h-82q-31 0 -29 31l160 1282h-127q-29 0 -27 31l4 49q2 29 33 30l113 7h18l18 159 q31 264 406 265h340q29 0 27 -31z" />
<glyph unicode="&#xfb03;" horiz-adv-x="1699" d="M330 1008h16l23 170q35 262 411 262h15q35 0 28 -31l-8 -57q-6 -29 -35 -29h-12q-238 0 -258 -160l-21 -155h461l19 161q31 262 407 263h299q33 0 27 -31l-8 -58q-2 -29 -33 -28h-291q-240 0 -260 -160l-18 -147h571q29 0 27 -31l-117 -946q-4 -31 -31 -31h-84 q-29 0 -26 31l106 862h-461l-157 -1286q-2 -29 -33 -29h-82q-31 0 -29 29l160 1286h-459l-160 -1286q-2 -29 -32 -29h-82q-29 0 -27 29l160 1286h-129q-31 0 -27 31l4 47q2 29 35 30z" />
<glyph unicode="&#xfb04;" horiz-adv-x="1734" d="M1743 1401l-170 -1370q-4 -31 -31 -31h-84q-29 0 -26 31l157 1284h-219q-240 0 -260 -160l-18 -147h223q29 0 26 -29l-8 -55q-2 -31 -33 -31h-223l-157 -1286q-2 -29 -33 -29h-82q-31 0 -29 29l160 1286h-461l-158 -1286q-2 -29 -34 -29h-82q-29 0 -27 29l160 1286h-129 q-29 0 -27 31l6 47q2 29 33 30l111 7h18l23 170q35 262 409 262h17q29 0 26 -31l-6 -57q-2 -29 -35 -29h-12q-240 0 -260 -160l-21 -155h463l19 161q31 262 407 263h338q31 0 29 -31z" />
<glyph horiz-adv-x="0" />
</font>
</defs>
</svg>
