<?xml version="1.0" standalone="no"?>
<!DOCTYPE svg PUBLIC "-//W3C//DTD SVG 1.1//EN" "http://www.w3.org/Graphics/SVG/1.1/DTD/svg11.dtd" >
<svg xmlns="http://www.w3.org/2000/svg">
<metadata>
This is a custom SVG webfont generated by Font Squirrel.
Copyright   : Copyright c 2009 by Eduardo Manso All rights reserved
Designer    : Eduardo Manso
Foundry     : Eduardo Manso
Foundry URL : httpwwwemtypenet
</metadata>
<defs>
<font id="webfont1amFVLmz" horiz-adv-x="1062" >
<font-face units-per-em="2048" ascent="1536" descent="-512" />
<missing-glyph horiz-adv-x="475" />
<glyph unicode=" "  horiz-adv-x="475" />
<glyph unicode="&#x09;" horiz-adv-x="475" />
<glyph unicode="&#xa0;" horiz-adv-x="475" />
<glyph unicode="!" horiz-adv-x="507" d="M309 799l-10 -453q0 -25 -25 -24h-43q-23 0 -22 24l-12 453v569q0 25 24 25h66q23 0 22 -25v-569zM307 182v-157q0 -25 -22 -25h-62q-25 0 -24 25v157q0 25 24 25h62q22 0 22 -25z" />
<glyph unicode="&#x22;" horiz-adv-x="716" d="M281 1368l-11 -354q0 -27 -22 -27h-41q-25 0 -25 27l-8 354q0 25 25 25h59q23 0 23 -25zM543 1368l-8 -354q0 -27 -25 -27h-41q-23 0 -23 27l-10 354q0 25 23 25h59q25 0 25 -25z" />
<glyph unicode="#" horiz-adv-x="1323" d="M203 553h174l67 244h-159q-25 0 -25 24v33q0 25 25 25h182l57 206q6 25 31 25h45q27 0 18 -25l-57 -206h328l59 206q6 25 29 25h45q27 0 18 -25l-59 -206h139q25 0 25 -25v-33q0 -25 -25 -24h-162l-67 -244h147q23 0 23 -25v-32q0 -25 -23 -25h-170l-55 -203 q-6 -25 -31 -24h-47q-23 0 -16 24l57 203h-330l-57 -203q-6 -25 -29 -24h-45q-25 0 -18 24l57 203h-151q-25 0 -25 25v32q0 25 25 25zM537 797l-68 -244h328l69 244h-329z" />
<glyph unicode="$" horiz-adv-x="1079" d="M784 930v63q0 141 -247 142q-244 0 -244 -142v-63q0 -47 34.5 -81t80.5 -46l319 -101q172 -55 172 -186v-121q0 -88 -74.5 -147.5t-224.5 -71.5v-151q0 -25 -22 -25h-60q-25 0 -24 25v149q-160 8 -238 68.5t-78 152.5v58q0 23 23 22h55q20 0 20 -22v-54q0 -66 67 -104.5 t194 -38.5q129 0 196.5 39t67.5 104v93q0 84 -129 124l-320 101q-61 20 -110 72.5t-49 121.5v82q0 92 72.5 152.5t228.5 68.5v154q0 25 24 25h60q23 0 22 -25v-154q145 -12 215 -72.5t70 -148.5v-63q0 -23 -25 -23h-53q-23 0 -23 23z" />
<glyph unicode="%" horiz-adv-x="1538" d="M178 993v228q0 184 266 184q264 0 265 -184v-228q0 -186 -265 -186q-266 0 -266 186zM616 995v224q0 113 -172 112q-174 0 -174 -112v-224q0 -111 174 -110q172 -1 172 110zM1268 170v223q0 111 -174 111t-174 -111v-223q0 -113 174 -113t174 113zM829 168v227 q0 186 265 187q266 0 266 -187v-227q0 -184 -266 -184q-265 0 -265 184zM1118 1368l-610 -1343q-10 -25 -35 -25h-53q-20 0 -10 25l612 1343q10 25 33 25h51q24 0 12 -25z" />
<glyph unicode="&#x26;" horiz-adv-x="1361" d="M598 788h651q25 0 25 -24v-45q0 -23 -25 -23h-162v-428q0 -129 -106.5 -206.5t-341.5 -77.5q-449 0 -449 282v240q0 98 41 155.5t154 81.5q-104 25 -142 80.5t-38 151.5v151q0 133 85 208t304 75t305 -76t86 -209v-39q0 -25 -22 -24h-60q-25 0 -24 24v27 q0 100 -62.5 152.5t-222.5 52.5t-221.5 -52.5t-61.5 -152.5v-123q0 -102 59.5 -151.5t227.5 -49.5zM639 76q342 0 342 205v415h-397q-168 0 -226.5 -50t-58.5 -152v-213q0 -205 340 -205z" />
<glyph unicode="'" horiz-adv-x="454" d="M281 1368l-11 -354q0 -27 -22 -27h-41q-25 0 -25 27l-8 354q0 25 25 25h59q23 0 23 -25z" />
<glyph unicode="(" horiz-adv-x="722" d="M190 -195v1393q0 252 367 252h12q25 0 25 -25v-43q0 -25 -25 -24h-12q-141 0 -198.5 -44t-57.5 -126v-1372q0 -82 57.5 -126t198.5 -44h12q25 0 25 -25v-43q0 -25 -25 -24h-12q-367 -1 -367 251z" />
<glyph unicode=")" horiz-adv-x="722" d="M530 1198v-1393q0 -252 -364 -251h-10q-25 0 -25 24v43q0 25 25 25h10q141 0 198.5 44t57.5 126v1372q0 82 -57.5 126t-198.5 44h-10q-25 0 -25 24v43q0 25 25 25h10q364 0 364 -252z" />
<glyph unicode="*" horiz-adv-x="1028" d="M498 754q-23 0 -23 26l8 269l-231 -150q-23 -16 -35 8l-14 29q-12 23 10 33l233 133l-233 135q-23 12 -10 33l14 26q12 23 35 11l231 -152l-8 275q0 25 25 24h30q23 0 23 -24l-8 -275l231 152q23 16 35 -11l14 -26q12 -20 -10 -33l-235 -135l235 -133q20 -10 10 -33 l-14 -29q-12 -23 -35 -8l-229 148l6 -267q0 -27 -23 -26h-32z" />
<glyph unicode="+" horiz-adv-x="1196" d="M551 295v354h-352q-25 0 -25 23v45q0 25 25 24h352v355q0 25 22 24h43q25 0 25 -24v-355h358q23 0 23 -24v-45q0 -23 -23 -23h-358v-354q0 -25 -25 -25h-43q-22 0 -22 25z" />
<glyph unicode="," horiz-adv-x="434" d="M164 61v121q0 25 22 25h62q25 0 24 -25v-125q0 -176 -180 -233q-23 -6 -31 14l-16 43q-8 20 14 31q105 49 105 149z" />
<glyph unicode="-" horiz-adv-x="946" d="M199 637h549q25 0 24 -23v-43q0 -25 -24 -24h-549q-25 0 -25 24v43q0 23 25 23z" />
<glyph unicode="." horiz-adv-x="436" d="M272 182v-157q0 -25 -24 -25h-60q-25 0 -24 25v157q0 25 24 25h60q24 0 24 -25z" />
<glyph unicode="/" horiz-adv-x="757" d="M662 1407l-451 -1686q-6 -25 -31 -24h-65q-25 0 -19 24l451 1686q6 25 31 25h65q25 0 19 -25z" />
<glyph unicode="0" horiz-adv-x="1097" d="M141 272v848q0 135 91.5 212t316.5 77q227 0 317 -77t90 -212v-848q0 -135 -90 -211.5t-317 -76.5q-225 0 -316.5 76.5t-91.5 211.5zM848 289v815q0 102 -65.5 156.5t-233.5 54.5t-232.5 -54.5t-64.5 -156.5v-815q0 -102 64.5 -156.5t232.5 -54.5t233.5 54.5t65.5 156.5z " />
<glyph unicode="1" horiz-adv-x="1097" d="M180 1286l426 111q23 4 23 -21v-1282h340q23 0 22 -24v-45q0 -25 -22 -25h-791q-25 0 -24 25v45q0 25 24 24h342v1182l-340 -88q-25 -6 -24 20v47q-1 25 24 31z" />
<glyph unicode="2" horiz-adv-x="1097" d="M289 94h657q25 0 25 -24v-45q0 -25 -25 -25h-743q-23 0 -23 25v399q0 129 176 186l371 111q129 41 129 151v234q0 104 -63.5 157.5t-231.5 53.5q-166 0 -229.5 -54.5t-63.5 -156.5v-100q0 -27 -22 -27h-60q-25 0 -24 27v114q0 135 87 212t312 77q227 0 315.5 -77 t88.5 -212v-246q0 -102 -58.5 -159.5t-122.5 -75.5l-350 -100q-145 -39 -145 -144v-301z" />
<glyph unicode="3" horiz-adv-x="1097" d="M356 788h179q168 0 226 49.5t58 151.5v123q0 100 -61.5 152.5t-221 52.5t-222 -52.5t-62.5 -152.5v-27q0 -25 -25 -24h-57q-25 0 -25 24v39q0 133 87 209t306.5 76t304.5 -74.5t85 -208.5v-151q0 -94 -39 -150.5t-144 -81.5q113 -25 154 -82t41 -155v-240 q0 -133 -89 -207.5t-312.5 -74.5t-313.5 75.5t-90 208.5v39q0 25 25 25h59q23 0 23 -25v-26q0 -100 66.5 -152.5t230.5 -52.5q162 0 227 52t65 153v213q0 104 -58 153t-226 49h-191q-25 0 -24 23v45q-1 24 24 24z" />
<glyph unicode="4" horiz-adv-x="1097" d="M520 1368l-301 -815h588v815q0 25 24 25h62q25 0 25 -25v-1343q0 -25 -25 -25h-62q-25 0 -24 25v434h-678q-25 0 -25 24v43q0 10 9 35l299 807q10 25 30 25h62q26 0 16 -25z" />
<glyph unicode="5" horiz-adv-x="1097" d="M217 1393h666q25 0 24 -25v-45q0 -25 -24 -25h-580v-460h244q193 0 293 -68t100 -192v-310q0 -137 -83 -210.5t-304 -73.5t-304 73.5t-83 210.5v39q0 25 24 25h58q25 0 24 -25v-26q0 -104 57.5 -154.5t223.5 -50.5q164 0 221 50t57 155v282q0 182 -286 182h-328 q-23 0 -22 25v598q-1 25 22 25z" />
<glyph unicode="6" horiz-adv-x="1097" d="M154 272v861q0 276 395 276q393 0 393 -276v-33q0 -25 -24 -25h-60q-23 0 -22 25v20q0 197 -287 197q-162 0 -224.5 -53.5t-62.5 -143.5v-409q66 113 303 112q219 0 305 -76.5t86 -211.5v-263q0 -135 -87 -211.5t-314 -76.5q-225 0 -313 76.5t-88 211.5zM848 285v237 q0 104 -62.5 156.5t-230.5 52.5q-160 0 -226.5 -50t-66.5 -142v-254q0 -102 63.5 -155.5t229.5 -53.5q168 0 230.5 53.5t62.5 155.5z" />
<glyph unicode="7" horiz-adv-x="1097" d="M137 1393h828q23 0 22 -25v-45q0 -10 -4 -23l-532 -1275q-10 -25 -31 -25h-72q-29 0 -18 25l534 1273h-727q-25 0 -24 25v45q-1 25 24 25z" />
<glyph unicode="8" horiz-adv-x="1097" d="M164 987v133q0 137 81 213t304 76q225 0 305 -76t80 -213v-133q0 -98 -42 -157.5t-153 -84.5q117 -25 163 -85t46 -156v-232q0 -135 -87 -211.5t-312 -76.5t-312 76.5t-87 211.5v232q0 96 46 156.5t162 84.5q-111 25 -152.5 84.5t-41.5 157.5zM842 285v204 q0 104 -62.5 157.5t-230.5 53.5q-166 0 -228.5 -53t-62.5 -158v-204q0 -102 62.5 -155.5t228.5 -53.5q168 0 230.5 53.5t62.5 155.5zM827 1001v107q0 104 -56 156.5t-222 52.5q-164 0 -220.5 -52.5t-56.5 -156.5v-107q0 -106 56.5 -158t220.5 -52q166 0 222 52t56 158z" />
<glyph unicode="9" horiz-adv-x="1097" d="M944 1120v-860q0 -276 -395 -276q-391 0 -391 276v33q0 25 24 24h60q23 0 22 -24v-21q0 -197 285 -196q164 0 225.5 53t61.5 143v408q-68 -111 -304 -111q-217 0 -304 77t-87 212v262q0 135 88 212t316 77q225 0 312 -77t87 -212zM836 1108q0 102 -62.5 155.5 t-228.5 53.5q-168 0 -231.5 -53.5t-63.5 -155.5v-238q0 -102 63.5 -155t231.5 -53q160 0 225.5 51t65.5 145v250z" />
<glyph unicode=":" horiz-adv-x="436" d="M272 182v-157q0 -25 -24 -25h-60q-25 0 -24 25v157q0 25 24 25h60q24 0 24 -25zM272 983v-158q0 -25 -24 -24h-60q-25 0 -24 24v158q0 27 24 27h60q24 0 24 -27z" />
<glyph unicode=";" horiz-adv-x="540" d="M379 983v-158q0 -25 -25 -24h-59q-25 0 -25 24v158q0 27 25 27h59q25 0 25 -27zM270 61v121q0 25 25 25h59q25 0 25 -25v-125q0 -170 -180 -233q-23 -6 -31 14l-16 43q-8 20 14 31q59 27 81.5 61.5t22.5 87.5z" />
<glyph unicode="&#x3c;" horiz-adv-x="1114" d="M915 979l-634 -283l634 -280q25 -10 25 -29v-59q0 -31 -25 -19l-718 328q-23 10 -23 29v63q0 18 23 29l718 327q25 10 25 -18v-59q0 -21 -25 -29z" />
<glyph unicode="=" horiz-adv-x="1208" d="M199 905h811q25 0 24 -24v-43q0 -25 -24 -25h-811q-25 0 -25 25v43q0 24 25 24zM199 555h811q25 0 24 -25v-43q0 -25 -24 -24h-811q-25 0 -25 24v43q0 25 25 25z" />
<glyph unicode="&#x3e;" horiz-adv-x="1112" d="M834 696l-635 283q-25 8 -25 27v61q0 33 25 20l719 -329q23 -10 22 -27v-67q0 -16 -22 -27l-719 -330q-25 -12 -25 21v59q0 18 25 29z" />
<glyph unicode="?" horiz-adv-x="1163" d="M508 346v166q0 131 137 199l131 65q111 59 111 168v162q0 102 -69.5 156.5t-237.5 54.5t-237 -54.5t-69 -156.5v-100q0 -27 -24 -27h-57q-25 0 -25 27v114q0 289 412 289q416 0 415 -289v-172q0 -170 -164 -252l-106 -53q-106 -53 -107 -154v-143q0 -25 -24 -24h-62 q-24 -1 -24 24zM618 182v-157q0 -25 -24 -25h-62q-25 0 -24 25v157q0 25 24 25h62q24 0 24 -25z" />
<glyph unicode="@" horiz-adv-x="1687" d="M1225 -231h-381q-193 0 -325 25.5t-199.5 73.5t-95 103.5t-27.5 126.5v834q0 74 27.5 129t96 102t199.5 73t324 26q190 0 322 -26t201 -73t96.5 -102t27.5 -129v-613q0 -252 -236 -251q-170 0 -208 133q-156 -133 -332 -133q-236 0 -236 208q0 27 2 41l37 369 q27 254 275 254q154 0 294 -121l13 80q2 25 26 25h52q23 0 20 -25l-57 -563q-8 -84 21.5 -135t99.5 -51q125 0 124 182v598q0 76 -44 127t-167.5 84t-330.5 33q-301 0 -422 -63.5t-121 -180.5v-828q0 -76 44 -127t168 -83.5t331 -32.5h381q25 0 24 -25v-41q1 -24 -24 -24z M621 670l-35 -338q0 -4 -1 -12.5t-1 -12.5q0 -63 41 -101t127 -38q129 0 280 108q0 23 2 37l43 416q-135 115 -260 115q-178 0 -196 -174z" />
<glyph unicode="A" d="M500 1393h63q25 0 31 -25l416 -1343q3 -6 2 -12q0 -13 -21 -13h-63q-23 0 -29 25l-125 397h-493l-121 -397q-6 -25 -29 -25h-59q-20 0 -21 14q0 4 2 11l416 1343q6 25 31 25zM750 510l-170 549q-23 76 -52 217q-16 -109 -47 -213l-174 -553h443z" />
<glyph unicode="B" horiz-adv-x="1185" d="M621 0h-400q-25 0 -24 25v1343q0 25 24 25h346q428 0 428 -281v-139q0 -186 -194 -244q248 -49 248 -254v-188q0 -287 -428 -287zM621 676h-316v-584h316q319 0 319 209v168q0 207 -319 207zM567 1300h-262v-536h285q297 0 297 211v123q0 98 -74 150t-246 52z" />
<glyph unicode="C" horiz-adv-x="1120" d="M1010 406v-134q0 -289 -418 -288.5t-418 288.5v848q0 289 418 289t418 -289v-106q0 -27 -23 -27h-59q-25 0 -25 27v90q0 100 -70.5 155.5t-240.5 55.5t-239.5 -54.5t-69.5 -156.5v-815q0 -102 69.5 -156.5t239.5 -54.5t240.5 55t70.5 156v117q0 23 25 22h59q23 1 23 -22z " />
<glyph unicode="D" horiz-adv-x="1226" d="M625 0h-406q-23 0 -22 25v1343q0 25 22 25h406q428 0 428 -289v-815q0 -289 -428 -289zM625 1298h-320v-1204h320q319 0 319 211v782q0 211 -319 211z" />
<glyph unicode="E" horiz-adv-x="1079" d="M944 0h-725q-23 0 -22 25v1343q0 25 24 25h699q25 0 24 -25v-45q0 -25 -24 -25h-615v-520h578q25 0 24 -24v-43q0 -25 -24 -25h-578v-592h639q25 0 25 -24v-45q0 -25 -25 -25z" />
<glyph unicode="F" horiz-adv-x="1087" d="M221 1393h752q25 0 24 -25v-45q0 -25 -24 -25h-668v-524h631q25 0 25 -24v-45q0 -25 -25 -25h-631v-655q0 -25 -22 -25h-62q-25 0 -24 25v1343q-1 25 24 25z" />
<glyph unicode="G" horiz-adv-x="1153" d="M610 653h375q25 0 25 -24v-357q0 -289 -418 -288.5t-418 288.5v848q0 289 418 289t418 -289v-102q0 -25 -23 -25h-59q-25 0 -25 25v86q0 100 -70.5 155.5t-240.5 55.5t-239.5 -54.5t-69.5 -156.5v-815q0 -102 69.5 -156.5t239.5 -54.5q311 0 311 207v274h-293 q-25 0 -24 25v45q-1 24 24 24z" />
<glyph unicode="H" horiz-adv-x="1249" d="M305 1368v-577h639v577q0 25 23 25h63q23 0 23 -25v-1343q0 -25 -23 -25h-63q-23 0 -23 25v671h-639v-671q0 -25 -22 -25h-62q-25 0 -24 25v1343q0 25 24 25h62q22 0 22 -25z" />
<glyph unicode="I" horiz-adv-x="501" d="M305 1368v-1343q0 -25 -22 -25h-62q-25 0 -24 25v1343q0 25 24 25h62q22 0 22 -25z" />
<glyph unicode="J" horiz-adv-x="1005" d="M176 356v-67q0 -102 59.5 -156.5t211 -54.5t209 54t57.5 157v1079q0 25 22 25h62q25 0 24 -25v-1096q0 -135 -83 -211.5t-291.5 -76.5t-292.5 76.5t-84 211.5v84q0 25 24 25h60q22 0 22 -25z" />
<glyph unicode="K" horiz-adv-x="1103" d="M469 707l592 -682q5 -5 5 -11q0 -3 -2 -6q-5 -8 -15 -8h-82q-14 0 -39 25l-551 630h-72v-630q0 -25 -22 -25h-62q-25 0 -24 25v1343q0 25 24 25h62q23 0 22 -25v-629h70l506 631q18 23 41 23h67q31 0 12 -25z" />
<glyph unicode="L" horiz-adv-x="1011" d="M305 1368v-1274h606q25 0 25 -24v-45q0 -25 -25 -25h-694q-20 0 -20 25v1343q0 25 24 25h62q22 0 22 -25z" />
<glyph unicode="M" horiz-adv-x="1474" d="M1278 1368v-1343q0 -25 -23 -25h-59q-25 0 -25 25v1132l-36 -106l-336 -813q-8 -25 -33 -25h-57q-20 0 -31 25l-348 827q-20 43 -31 90v-1130q0 -25 -23 -25h-55q-25 0 -24 25v1343q0 25 24 25h55q16 0 23 -15l406 -956l32 -96q20 59 35 94l402 960q4 12 22 13h59 q23 0 23 -25z" />
<glyph unicode="N" horiz-adv-x="1247" d="M1051 1368v-1343q0 -25 -23 -25h-55q-16 0 -23 12l-585 1043q-53 84 -66 123v-1153q0 -25 -23 -25h-55q-25 0 -24 25v1343q0 25 24 25h55q14 0 21 -11l592 -1050l59 -117v1153q0 25 25 25h55q23 0 23 -25z" />
<glyph unicode="O" horiz-adv-x="1202" d="M174 272v848q0 289 426 289q430 0 430 -289v-848q0 -289 -430 -288q-426 -1 -426 288zM920 289v815q0 211 -320 211q-317 0 -317 -211v-815q0 -211 317 -211q320 0 320 211z" />
<glyph unicode="P" horiz-adv-x="1153" d="M618 551h-313v-526q0 -25 -22 -25h-62q-25 0 -24 25v1343q0 25 22 25h399q428 0 429 -289v-264q-1 -289 -429 -289zM618 1298h-313v-653h313q319 0 320 211v231q-1 211 -320 211z" />
<glyph unicode="Q" horiz-adv-x="1200" d="M1030 1120v-848q0 -248 -313 -282l293 -269q18 -16 2 -32l-33 -35q-8 -10 -16 -10t-17 8l-356 332q-416 2 -416 288v848q0 289 426 289q430 0 430 -289zM283 1106v-819q0 -211 317 -211q319 0 320 211v819q0 211 -320 211q-317 0 -317 -211z" />
<glyph unicode="R" horiz-adv-x="1202" d="M618 578h-313v-553q0 -25 -22 -25h-62q-25 0 -24 25v1343q0 25 22 25h399q428 0 429 -289v-238q0 -227 -263 -276l281 -565q2 -6 2 -11q0 -14 -25 -14h-61q-20 0 -31 25l-270 555q-21 -2 -62 -2zM618 1298h-313v-628h313q319 0 320 211v206q-1 211 -320 211z" />
<glyph unicode="S" horiz-adv-x="1153" d="M889 1020v88q0 100 -68.5 154.5t-236.5 54.5t-236.5 -54.5t-68.5 -154.5v-76q0 -127 129 -174l393 -149q205 -78 205 -256v-181q0 -289 -424 -288q-426 0 -426 288v107q0 27 24 27h60q25 0 24 -27v-94q0 -209 316 -209q319 0 319 209v145q0 125 -170 191l-381 147 q-72 27 -124 90.5t-52 151.5v110q0 289 411.5 289t411.5 -289v-100q0 -25 -24 -25h-60q-22 0 -22 25z" />
<glyph unicode="T" horiz-adv-x="983" d="M66 1393h852q25 0 24 -25v-45q0 -25 -24 -25h-373v-1273q0 -25 -23 -25h-61q-25 0 -25 25v1273h-370q-25 0 -25 25v45q0 25 25 25z" />
<glyph unicode="U" horiz-adv-x="1224" d="M293 1368v-1079q0 -211 319.5 -211t319.5 211v1079q0 25 24 25h62q23 0 22 -25v-1096q0 -289 -428 -288.5t-428 288.5v1096q0 25 25 25h61q23 0 23 -25z" />
<glyph unicode="V" d="M563 0h-63q-25 0 -31 25l-416 1343q-2 6 -2 10q0 14 21 15h67q23 0 29 -25l319 -1034l45 -195q27 123 48 191l321 1038q6 25 29 25h61q20 0 21 -15q0 -4 -2 -10l-416 -1343q-6 -25 -31 -25z" />
<glyph unicode="W" horiz-adv-x="1619" d="M872 1368l265 -1036l30 -152q16 90 33 152l266 1036q6 25 29 25h53q22 0 22 -17q0 -4 -1 -8l-342 -1343q-6 -25 -31 -25h-61q-23 0 -29 25l-268 1052q-14 51 -27 131l-29 -131l-266 -1052q-6 -25 -31 -25h-61q-25 0 -31 25l-340 1343q-1 5 -1 9q0 16 20 16h63 q23 0 29 -25l262 -1036l33 -144q18 92 33 144l266 1036q6 25 28 25h58q22 0 28 -25z" />
<glyph unicode="X" horiz-adv-x="1118" d="M618 705l404 -680q6 -9 6 -15q0 -10 -18 -10h-74q-20 0 -37 25l-348 583l-340 -583q-16 -25 -35 -25h-67q-17 0 -18 11q0 6 5 16l398 682l-392 657q-14 27 11 27h75q20 0 35 -25l340 -569l326 569q14 25 35 25h67q27 0 13 -25z" />
<glyph unicode="Y" horiz-adv-x="1042" d="M162 1368l332 -631q18 -37 28 -67q0 6 31 67l336 631q14 25 31 25h59q23 0 23 -12q0 -5 -5 -13l-419 -790v-553q0 -25 -25 -25h-61q-23 0 -23 25v540l-422 803q-4 7 -4 13q0 12 20 12h68q19 0 31 -25z" />
<glyph unicode="Z" horiz-adv-x="1032" d="M174 1393h713q25 0 24 -25v-45q0 -10 -4 -18l-661 -1211h672q25 0 24 -24v-45q0 -25 -24 -25h-781q-23 0 -22 25v45q0 14 6 26l655 1202h-602q-25 0 -24 25v45q-1 25 24 25z" />
<glyph unicode="[" horiz-adv-x="733" d="M190 -408v1815q0 25 25 25h358q25 0 25 -25v-45q0 -25 -25 -25h-272v-1675h272q25 0 25 -24v-46q0 -25 -25 -24h-358q-25 -1 -25 24z" />
<glyph unicode="\" horiz-adv-x="757" d="M547 -279l-451 1686q-6 25 19 25h65q25 0 31 -25l451 -1686q6 -25 -19 -24h-65q-25 -1 -31 24z" />
<glyph unicode="]" horiz-adv-x="733" d="M541 1407v-1815q0 -25 -23 -24h-358q-23 0 -23 24v46q0 25 23 24h272v1675h-272q-23 0 -23 25v45q0 25 23 25h358q23 0 23 -25z" />
<glyph unicode="^" horiz-adv-x="1128" d="M846 649l-283 635l-280 -635q-10 -25 -29 -24h-59q-29 0 -19 24l328 721q12 23 26 23h66q14 0 27 -23l329 -721q10 -25 -18 -24h-60q-18 -1 -28 24z" />
<glyph unicode="_" horiz-adv-x="874" d="M72 -180h731q25 0 24 -23v-43q0 -25 -24 -24h-731q-25 0 -25 24v43q0 23 25 23z" />
<glyph unicode="`" horiz-adv-x="688" d="M377 1182l-166 243q-18 25 12 25h66q18 0 33 -20l147 -240q14 -23 -10 -23h-51q-23 1 -31 15z" />
<glyph unicode="a" horiz-adv-x="1028" d="M154 737v37q0 252 356 252q195 0 275.5 -65.5t80.5 -186.5v-749q0 -25 -22 -25h-51q-25 0 -25 25l-4 81q-156 -123 -348 -122q-137 0 -209 66.5t-72 170.5v105q0 104 66.5 170.5t189.5 66.5h371v203q0 82 -56.5 127t-197.5 45t-197.5 -44t-56.5 -126v-31q0 -25 -25 -24 h-53q-22 -1 -22 24zM438 74q170 0 324 121v282h-352q-170 0 -170 -164v-80q-1 -159 198 -159z" />
<glyph unicode="b" horiz-adv-x="1064" d="M250 0h-51q-25 0 -25 25v1382q0 25 25 25h57q25 0 25 -25v-506q158 125 352 125q141 0 210.5 -67.5t69.5 -184.5v-538q0 -117 -69.5 -184.5t-210.5 -67.5q-199 0 -357 125l-2 -84q1 -25 -24 -25zM809 250v510q0 76 -49 122t-152 46q-186 0 -327 -123v-604 q156 -121 327 -121q102 0 151.5 47t49.5 123z" />
<glyph unicode="c" horiz-adv-x="972" d="M510 1026q195 0 276.5 -66.5t81.5 -187.5v-39q0 -25 -24 -24h-53q-25 0 -25 24v33q0 82 -56.5 126t-199.5 44q-141 0 -197.5 -44t-56.5 -126v-522q0 -84 56.5 -127t197.5 -43q143 0 199.5 43t56.5 127v49q0 25 25 24h53q25 0 24 -24v-57q0 -121 -81.5 -186.5 t-278.5 -65.5q-358 0 -358 252v536q0 121 81.5 187.5t278.5 66.5z" />
<glyph unicode="d" horiz-adv-x="1064" d="M791 25l-5 84q-158 -125 -356 -125q-141 0 -210.5 67.5t-69.5 184.5v538q0 117 69.5 184.5t210.5 67.5q190 0 354 -125v506q0 25 23 25h59q25 0 25 -25v-1382q0 -25 -25 -25h-51q-24 0 -24 25zM256 760v-510q0 -76 49 -123t152 -47q164 0 327 121v604q-150 123 -327 123 q-102 0 -151.5 -46t-49.5 -122z" />
<glyph unicode="e" horiz-adv-x="1003" d="M874 772v-254q0 -23 -22 -22h-598v-254q0 -82 57.5 -126t202.5 -44t202.5 44t57.5 126v43q0 25 23 24h53q25 0 24 -24v-49q0 -252 -362 -252t-362 252v536q0 254 364 254q360 0 360 -254zM254 768v-190h520v190q0 170 -260 170t-260 -170z" />
<glyph unicode="f" horiz-adv-x="643" d="M199 1006h18v186q0 252 369 252h10q25 0 25 -25v-41q0 -27 -25 -26h-10q-143 0 -201.5 -44t-58.5 -126v-176h237q25 0 25 -23v-41q0 -25 -25 -24h-237v-893q0 -25 -25 -25h-59q-25 0 -25 25v893h-133q-23 0 -23 24v33q0 25 23 24z" />
<glyph unicode="g" horiz-adv-x="1064" d="M430 -16q-141 0 -210.5 67.5t-69.5 184.5v538q0 117 69.5 184.5t210.5 67.5q197 0 356 -127l5 84q0 27 24 27h51q25 0 25 -27v-1155q0 -254 -367 -254h-276q-25 0 -25 25v43q0 25 25 24h276q260 0 260 170v270q-159 -122 -354 -122zM256 760v-510q0 -76 49 -123t152 -47 q164 0 327 121v604q-150 123 -327 123q-102 0 -151.5 -46t-49.5 -122z" />
<glyph unicode="h" horiz-adv-x="1075" d="M281 1407v-506q152 125 352 125q139 0 209.5 -66.5t70.5 -179.5v-755q0 -25 -22 -25h-60q-23 0 -22 25v735q0 170 -201 170q-186 0 -327 -123v-782q0 -25 -25 -25h-57q-25 0 -25 25v1382q0 25 25 25h57q25 0 25 -25z" />
<glyph unicode="i" horiz-adv-x="452" d="M281 983v-958q0 -25 -25 -25h-57q-25 0 -25 25v958q0 27 25 27h57q25 0 25 -27zM281 1407v-195q0 -25 -25 -24h-57q-25 0 -25 24v195q0 25 25 25h57q25 0 25 -25z" />
<glyph unicode="j" horiz-adv-x="452" d="M281 1407v-195q0 -25 -25 -24h-59q-23 0 -23 24v195q0 25 23 25h59q25 0 25 -25zM281 983v-1155q0 -254 -367 -254h-12q-25 0 -25 25v43q0 25 25 24h12q260 0 260 170v1147q0 27 23 27h59q25 0 25 -27z" />
<glyph unicode="k" horiz-adv-x="921" d="M442 573l457 -548q5 -5 6 -11q0 -3 -2 -6q-4 -8 -14 -8h-68q-25 0 -43 25l-422 501h-75v-501q0 -25 -25 -25h-59q-23 0 -23 25v1382q0 25 23 25h59q25 0 25 -25v-797h73l373 375q25 25 41 25h68q12 0 15 -7.5t-5 -17.5z" />
<glyph unicode="l" horiz-adv-x="452" d="M281 1407v-1382q0 -25 -25 -25h-57q-25 0 -25 25v1382q0 25 25 25h57q25 0 25 -25z" />
<glyph unicode="m" horiz-adv-x="1685" d="M199 1010h51q25 0 24 -25l2 -84q147 125 345 125q201 0 262 -141q154 141 360 141q139 0 211 -66.5t72 -179.5v-755q0 -25 -25 -25h-57q-27 0 -27 25v735q0 170 -200 170q-172 0 -320 -125q4 -14 4 -45v-735q0 -25 -22 -25h-60q-23 0 -22 25v735q0 170 -201 170 q-180 0 -315 -123v-782q0 -25 -25 -25h-57q-25 0 -25 25v960q0 25 25 25z" />
<glyph unicode="n" horiz-adv-x="1075" d="M250 1010q25 0 24 -25l2 -86q154 127 357 127q139 0 209.5 -66.5t70.5 -179.5v-755q0 -25 -22 -25h-60q-23 0 -22 25v735q0 170 -201 170q-186 0 -327 -123v-782q0 -25 -25 -25h-57q-25 0 -25 25v960q0 25 25 25h51z" />
<glyph unicode="o" horiz-adv-x="1040" d="M150 236v536q0 254 370.5 254t370.5 -254v-536q0 -252 -370.5 -252t-370.5 252zM784 244v522q0 170 -264 170t-264 -170v-522q0 -170 264 -170t264 170z" />
<glyph unicode="p" horiz-adv-x="1064" d="M199 1010h51q25 0 24 -27l2 -84q160 127 357 127q141 0 210.5 -67.5t69.5 -184.5v-538q0 -117 -69.5 -184.5t-210.5 -67.5q-197 0 -352 122v-507q0 -25 -25 -25h-57q-25 0 -25 25v1384q0 27 25 27zM809 250v510q0 76 -49 122t-152 46q-186 0 -327 -123v-604 q156 -121 327 -121q102 0 151.5 47t49.5 123z" />
<glyph unicode="q" horiz-adv-x="1064" d="M786 899l5 84q0 27 24 27h51q25 0 25 -27v-1384q0 -25 -25 -25h-59q-23 0 -23 25v507q-160 -123 -354 -122q-141 0 -210.5 67.5t-69.5 184.5v538q0 117 69.5 184.5t210.5 67.5q196 0 356 -127zM256 760v-510q0 -76 49 -123t152 -47q164 0 327 121v604q-150 123 -327 123 q-102 0 -151.5 -46t-49.5 -122z" />
<glyph unicode="r" horiz-adv-x="690" d="M625 1024q27 0 26 -23v-49q0 -25 -26 -24q-102 -4 -196.5 -50.5t-147.5 -93.5v-759q0 -25 -25 -25h-57q-25 0 -25 25v960q0 25 25 25h51q25 0 24 -25l5 -111q166 150 346 150z" />
<glyph unicode="s" horiz-adv-x="950" d="M729 739v64q0 141 -248 141q-244 0 -243 -141v-64q0 -47 34.5 -80.5t79.5 -46.5l320 -100q172 -55 172 -186v-121q0 -96 -91 -158.5t-271.5 -62.5t-269.5 61t-89 160v57q0 23 22 23h56q20 0 20 -23v-53q0 -66 66.5 -104.5t193.5 -38.5q129 0 196.5 38.5t67.5 104.5v92 q0 84 -129 125l-319 100q-61 20 -110.5 72.5t-49.5 122.5v82q0 98 84 160.5t262 62.5q176 0 261 -62.5t85 -160.5v-64q0 -23 -24 -22h-53q-23 -1 -23 22z" />
<glyph unicode="t" horiz-adv-x="702" d="M319 1006h242q25 0 25 -23v-41q0 -25 -25 -24h-242v-656q0 -82 58.5 -126t200.5 -44h32q25 0 25 -24v-43q0 -25 -25 -25h-45q-197 0 -274.5 63.5t-77.5 188.5v666h-129q-25 0 -25 24v33q0 23 25 24l109 7h20v221q0 27 25 26h59q23 0 22 -26v-221z" />
<glyph unicode="u" d="M788 25l-4 81q-143 -123 -342 -122q-137 0 -208.5 66.5t-71.5 176.5v756q0 27 22 27h60q25 0 24 -27v-733q0 -170 201 -170q170 0 315 121v782q0 27 23 27h59q23 0 23 -27v-958q0 -25 -23 -25h-53q-25 0 -25 25z" />
<glyph unicode="v" horiz-adv-x="862" d="M461 0h-66q-18 0 -26 23l-326 962q-1 5 -1 9q0 16 19 16h64q23 0 29 -25l252 -739q4 -14 14 -57.5t12 -49.5q14 70 29 107l254 739q6 25 28 25h58q20 0 19 -16q0 -4 -1 -9l-332 -962q-8 -23 -26 -23z" />
<glyph unicode="w" horiz-adv-x="1308" d="M1268 985l-269 -962q-6 -23 -26 -23h-70q-18 0 -24 23l-201 749q-6 20 -21 94l-24 -96l-211 -747q-6 -23 -27 -23h-67q-20 0 -27 23l-258 962q-1 5 -1 8q0 16 21 17h60q20 0 27 -25l204 -762l19 -82l20 82l209 762q6 25 29 25h65q23 0 29 -25l199 -762q16 -74 18 -78 q0 6 21 78l206 762q6 25 27 25h51q22 0 22 -17q0 -3 -1 -8z" />
<glyph unicode="x" horiz-adv-x="944" d="M528 510l334 -485q6 -9 6 -15q0 -10 -20 -10h-66q-20 0 -37 25l-284 409l-277 -409q-16 -25 -37 -25h-57q-12 0 -16 8q-2 3 -2 7q0 5 4 10l332 487l-324 473q-18 25 12 25h68q20 0 37 -25l274 -397l266 397q16 25 35 25h60q31 0 12 -25z" />
<glyph unicode="y" horiz-adv-x="862" d="M152 985l251 -739q10 -31 29 -105q0 23 29 101l254 743q6 25 28 25h58q20 0 19 -16q0 -4 -1 -9l-473 -1386q-6 -25 -29 -25h-47q-25 0 -18 25l131 397l-340 989q-1 5 -1 9q0 16 19 16h62q23 0 29 -25z" />
<glyph unicode="z" horiz-adv-x="933" d="M154 1010h614q25 0 25 -25v-37q0 -14 -7 -22l-548 -836h557q25 0 24 -24v-41q0 -25 -24 -25h-666q-25 0 -25 25v41q0 12 7 20l546 834h-503q-25 0 -25 24v41q0 25 25 25z" />
<glyph unicode="{" horiz-adv-x="915" d="M383 725v473q0 252 367 252h10q25 0 24 -25v-43q0 -25 -24 -24h-10q-141 0 -199.5 -44t-58.5 -126v-471q0 -170 -177 -209q176 -37 177 -207v-485q0 -82 58 -126t200 -44h10q25 0 24 -25v-43q0 -25 -24 -24h-10q-367 0 -367 251v488q0 170 -240 170h-2q-25 0 -24 24v43 q0 25 24 25h2q240 0 240 170z" />
<glyph unicode="|" horiz-adv-x="501" d="M305 1407v-1815q0 -25 -22 -24h-62q-25 0 -24 24v1815q0 25 24 25h62q22 0 22 -25z" />
<glyph unicode="}" horiz-adv-x="915" d="M532 1198v-473q0 -170 240 -170h2q25 0 25 -25v-43q0 -25 -25 -24h-2q-240 0 -240 -170v-488q0 -252 -366 -251h-10q-25 0 -25 24v43q0 25 25 25h10q141 0 199.5 44t58.5 126v485q0 172 176 207q-176 39 -176 209v471q0 82 -58.5 126t-199.5 44h-10q-25 0 -25 24v43 q0 25 25 25h10q366 0 366 -252z" />
<glyph unicode="~" horiz-adv-x="985" d="M319 598q-39 0 -52 -22.5t-13 -86.5v-20q0 -23 -27 -23h-32q-20 0 -21 29l2 43q8 174 135 174q39 0 101 -33l172 -94q57 -29 84 -28q39 0 51 23.5t12 86.5v19q0 23 27 22h33q20 0 20 -26l-2 -46q-8 -174 -131 -174q-47 0 -111 35l-174 96q-45 25 -74 25z" />
<glyph unicode="&#xa1;" horiz-adv-x="507" d="M197 211l10 453q0 25 24 24h43q23 0 23 -24l12 -453v-569q0 -25 -24 -25h-66q-23 0 -22 25v569zM199 827v158q0 25 22 25h62q25 0 24 -25v-158q0 -25 -24 -24h-62q-22 -1 -22 24z" />
<glyph unicode="&#xa2;" horiz-adv-x="1075" d="M586 1368v-154q311 -14 311 -251v-39q0 -25 -25 -25h-53q-25 0 -24 25v32q0 82 -56.5 126t-199.5 44q-141 0 -197.5 -44t-56.5 -126v-522q0 -84 56 -127t198 -43q143 0 199.5 43t56.5 127v49q0 25 24 25h53q25 0 25 -25v-57q0 -236 -311 -252v-149q0 -25 -23 -25h-59 q-25 0 -25 25v151q-301 18 -301 250v537q0 233 301 251v154q0 25 25 25h59q23 0 23 -25z" />
<glyph unicode="&#xa3;" horiz-adv-x="1341" d="M432 745h340q25 0 25 -22v-43q0 -25 -25 -25h-340v-563h442q88 0 136.5 52.5t48.5 191.5v10q0 25 24 25h56q25 0 24 -25v-10q0 -193 -70.5 -264.5t-195.5 -71.5h-694q-25 0 -25 25v43q0 25 25 24h121v563h-121q-25 0 -25 25v43q0 23 25 22h121v390q0 135 81.5 204.5 t307 69.5t308.5 -69.5t83 -204.5v-56q0 -25 -23 -24h-59q-23 0 -23 24v41q0 102 -59 148.5t-227 46.5q-166 0 -223.5 -46t-57.5 -149v-375z" />
<glyph unicode="&#xa4;" horiz-adv-x="1327" d="M205 612h106v170h-106q-25 0 -25 25v27q0 23 25 22h106v264q0 289 418 289t418 -289v-106q0 -27 -23 -27h-59q-25 0 -25 27v90q0 100 -70.5 155.5t-240.5 55.5t-239.5 -54.5t-69.5 -156.5v-248h350q25 0 25 -22v-27q0 -25 -25 -25h-350v-170h350q25 0 25 -24v-27 q0 -23 -25 -22h-350v-250q0 -102 69.5 -156.5t239.5 -54.5t240.5 55t70.5 156v117q0 23 25 22h59q23 0 23 -22v-134q0 -289 -418 -288.5t-418 288.5v267h-106q-25 0 -25 22v27q0 24 25 24z" />
<glyph unicode="&#xa5;" horiz-adv-x="1316" d="M1038 557h-323v-532q0 -25 -25 -25h-61q-23 0 -23 25v532h-323q-25 0 -25 25v26q0 25 25 25h286l-88 170h-198q-25 0 -25 22v27q0 25 25 25h159l-258 491q-12 25 17 25h67q18 0 31 -25l332 -631q6 -12 16 -38.5t12 -28.5l31 67l336 631q14 25 31 25h59q33 0 19 -25 l-263 -491h166q25 0 25 -25v-27q0 -23 -25 -22h-204l-91 -170h295q25 0 25 -25v-26q0 -25 -25 -25z" />
<glyph unicode="&#xa6;" horiz-adv-x="452" d="M281 1368v-700q0 -25 -25 -25h-57q-25 0 -25 25v700q0 25 25 25h57q25 0 25 -25zM281 293v-701q0 -25 -25 -24h-57q-25 0 -25 24v701q0 25 25 24h57q25 1 25 -24z" />
<glyph unicode="&#xa7;" horiz-adv-x="1122" d="M909 557v-221q0 -25 -24 -25h-51q-25 0 -25 25v213q0 43 -25.5 74.5t-50 45t-51.5 19.5l-289 86q-197 59 -196 209v172q0 254 364 254q197 0 281 -64.5t84 -185.5v-29q0 -25 -25 -24h-51q-25 0 -25 24v33q0 82 -58 125t-201.5 43t-203 -43t-59.5 -125v-176 q0 -94 148 -133l278 -80q66 -18 123 -73.5t57 -143.5zM213 416v219q0 25 25 24h53q23 0 22 -24v-211q0 -59 42 -94t85 -47l289 -84q197 -59 197 -209v-172q0 -254 -365 -254q-197 0 -280.5 64.5t-83.5 185.5v28q0 25 24 25h51q25 0 25 -25v-32q0 -170 262 -170t262 170v176 q0 94 -147 133l-281 80q-66 18 -123 73.5t-57 143.5z" />
<glyph unicode="&#xa8;" horiz-adv-x="630" d="M258 1413v-201q0 -25 -25 -24h-36q-25 0 -25 24v201q0 25 25 25h36q25 0 25 -25zM459 1413v-201q0 -25 -25 -24h-37q-25 0 -24 24v201q0 25 24 25h37q25 0 25 -25z" />
<glyph unicode="&#xa9;" horiz-adv-x="1462" d="M1264 1075v-756q0 -74 -20.5 -129t-76 -105t-165 -75.5t-271.5 -25.5q-164 0 -273.5 25.5t-164.5 75.5t-75.5 105.5t-20.5 128.5v756q0 74 20.5 128t75.5 104.5t164.5 76t273.5 25.5q162 0 271.5 -25.5t165 -76t76 -104.5t20.5 -128zM1182 307v780q0 117 -101.5 182.5 t-349.5 65.5q-250 0 -350 -65.5t-100 -184.5v-778q0 -119 100 -184.5t350 -65.5q248 0 349.5 65.5t101.5 184.5zM731 1128q164 0 222.5 -61t58.5 -186v-35q0 -25 -25 -25h-47q-25 0 -25 25v33q0 88 -36.5 130t-147.5 42q-113 0 -147.5 -42t-34.5 -130v-367q0 -86 34.5 -128 t147.5 -42q111 0 147.5 42t36.5 128v49q0 25 25 25h47q25 0 25 -25v-51q0 -125 -58.5 -186.5t-222.5 -61.5q-162 0 -221 62.5t-59 185.5v371q0 123 59 185t221 62z" />
<glyph unicode="&#xaa;" horiz-adv-x="718" d="M145 1235v22q0 152 222 152q219 0 219 -154v-444q0 -18 -17 -18h-43q-14 0 -16 18l-4 45q-90 -74 -203 -74q-86 0 -128 40t-42 106v61q0 63 41 103.5t119 40.5h211v120q0 94 -139 95q-141 0 -142 -93v-20q0 -16 -16 -16h-45q-17 0 -17 16zM324 846q104 0 180 69v158h-197 q-92 0 -92 -90v-47q0 -90 109 -90z" />
<glyph unicode="&#xab;" horiz-adv-x="1191" d="M991 737l-315 -235l315 -234q25 -20 25 -39v-63q0 -12 -8.5 -15.5t-16.5 3.5l-381 286q-23 14 -22 33v57q0 18 22 33l381 289q8 6 16.5 3t8.5 -15v-68q0 -15 -25 -35zM580 737l-316 -235l316 -234q25 -20 24 -39v-63q0 -12 -8 -15.5t-16 3.5l-381 286q-23 14 -23 33v57 q0 18 23 33l381 289q8 6 16 3t8 -15v-68q1 -15 -24 -35z" />
<glyph unicode="&#xac;" horiz-adv-x="763" d="M158 641q0 92 64.5 157.5t156.5 65.5q94 0 159.5 -65.5t65.5 -157.5q0 -94 -65.5 -158.5t-159.5 -64.5q-92 0 -156.5 64.5t-64.5 158.5z" />
<glyph unicode="&#xad;" horiz-adv-x="946" d="M199 637h549q25 0 24 -23v-43q0 -25 -24 -24h-549q-25 0 -25 24v43q0 23 25 23z" />
<glyph unicode="&#xae;" horiz-adv-x="1261" d="M1065 1143v-363q0 -266 -432 -266q-436 0 -436 266v363q0 266 436 266q432 0 432 -266zM989 772v377q0 188 -356 188q-358 0 -359 -188v-375q0 -190 359 -190q356 0 356 188zM653 885h-133v-185q0 -18 -16 -18h-45q-16 0 -17 18v506q0 18 17 19h194q195 0 195 -146v-49 q0 -102 -105 -135l84 -195q8 -18 -16 -18h-47q-10 0 -19 18l-77 185h-15zM645 1163h-125v-217h125q61 0 93 25.5t32 62.5v41q0 37 -31 62.5t-94 25.5z" />
<glyph unicode="&#xaf;" horiz-adv-x="858" d="M166 1323h526q25 0 25 -25v-36q0 -25 -25 -25h-526q-25 0 -25 25v36q0 25 25 25z" />
<glyph unicode="&#xb0;" horiz-adv-x="813" d="M137 1022v199q0 90 61.5 137t209 47t208 -47t60.5 -137v-199q0 -184 -268 -184q-147 0 -209 48t-62 136zM584 1026v193q0 113 -176 112q-178 0 -179 -112v-193q0 -113 179 -113q176 0 176 113z" />
<glyph unicode="&#xb1;" horiz-adv-x="1196" d="M551 465v268h-352q-25 0 -25 25v43q0 23 25 22h352v269q0 25 22 24h43q25 0 25 -24v-269h358q23 0 23 -22v-43q0 -25 -23 -25h-358v-268q0 -27 -25 -27h-43q-22 0 -22 27zM199 313h800q23 0 23 -24v-43q0 -25 -23 -25h-800q-25 0 -25 25v43q0 24 25 24z" />
<glyph unicode="&#xb2;" horiz-adv-x="757" d="M225 635h387q18 0 19 -19v-34q0 -18 -19 -19h-454q-16 0 -17 19v233q0 35 20.5 61.5t37 34t45.5 17.5l225 73q74 25 74 86v132q0 121 -166 120q-92 0 -128 -30.5t-36 -89.5v-58q0 -18 -18 -18h-50q-16 0 -16 18v70q0 178 248 178q250 0 250 -178v-139q0 -111 -109 -148 l-215 -70q-78 -27 -78 -71v-168z" />
<glyph unicode="&#xb3;" horiz-adv-x="755" d="M272 1042h101q94 0 128 28t34 87v68q0 57 -35 86.5t-123 29.5q-90 0 -125 -29.5t-35 -86.5v-15q0 -16 -16 -16h-49q-18 0 -19 16v25q0 84 53.5 130t192.5 46q135 0 188.5 -46t53.5 -128v-90q0 -57 -23 -90t-84 -47q113 -27 113 -144v-137q0 -174 -248 -174 q-250 0 -250 176v25q0 16 16 16h50q18 0 18 -16v-15q0 -117 166 -116q164 0 164 116v117q0 59 -34 87t-126 28h-111q-18 0 -18 18v33q0 18 18 18z" />
<glyph unicode="&#xb4;" horiz-adv-x="688" d="M475 1425l-166 -243q-10 -14 -28 -15h-52q-25 0 -12 23l148 240q14 20 32 20h66q26 0 12 -25z" />
<glyph unicode="&#xb5;" d="M788 25l-4 81q-143 -123 -342 -122q-125 0 -182 67l8 -450q0 -27 -24 -27h-60q-23 0 -22 27v1382q0 27 22 27h60q25 0 24 -27v-733q0 -170 201 -170q170 0 315 121v782q0 27 23 27h59q23 0 23 -27v-958q0 -25 -23 -25h-53q-23 0 -25 25z" />
<glyph unicode="&#xb6;" horiz-adv-x="1292" d="M805 1370v-1769q0 -27 -23 -27h-61q-25 0 -25 27v977h-104q-219 0 -307 69.5t-88 198.5v278q0 129 88 199t307 70h190q23 0 23 -23zM1096 1368v-1767q0 -27 -23 -27h-61q-25 0 -25 27v1767q0 25 25 25h61q23 0 23 -25z" />
<glyph unicode="&#xb7;" horiz-adv-x="436" d="M272 614v-157q0 -25 -24 -25h-60q-25 0 -24 25v157q0 25 24 25h60q24 0 24 -25z" />
<glyph unicode="&#xb8;" horiz-adv-x="335" d="M168 -111h80q70 0 119 -37.5t49 -121.5t-49.5 -123t-118.5 -39h-242q-25 0 -24 24v23q0 25 24 25h230q98 0 98 90q0 88 -98 88h-121q-20 0 -28.5 8t-4.5 22l45 160q8 23 27 21l30 -4q23 -4 15 -31z" />
<glyph unicode="&#xb9;" horiz-adv-x="770" d="M147 1343l265 64q6 2 11 -2t5 -14v-752h197q16 0 16 -18v-33q0 -18 -16 -19h-478q-18 0 -18 19v33q0 18 18 18h195v680l-195 -45q-18 -4 -18 12v37q0 16 18 20z" />
<glyph unicode="&#xba;" horiz-adv-x="724" d="M131 938v315q0 156 231.5 156t231.5 -156v-315q0 -156 -231.5 -156t-231.5 156zM510 946v301q0 96 -147.5 96t-147.5 -96v-301q0 -96 147.5 -96t147.5 96z" />
<glyph unicode="&#xbb;" horiz-adv-x="1189" d="M610 283l316 235l-316 234q-25 20 -24 39v63q0 12 8 15t16 -3l381 -286q23 -14 23 -33v-58q0 -18 -23 -32l-381 -289q-8 -6 -16 -3t-8 15v68q-1 15 24 35zM201 283l315 235l-315 234q-25 20 -25 39v63q0 12 8.5 15t16.5 -3l381 -286q23 -14 22 -33v-58q0 -18 -22 -32 l-381 -289q-8 -6 -16.5 -3t-8.5 15v68q0 15 25 35z" />
<glyph unicode="&#xbc;" horiz-adv-x="1677" d="M1307 817l-172 -479h327v479q0 18 19 19h49q18 0 18 -19v-799q0 -18 -18 -18h-49q-18 0 -19 18v250h-399q-20 0 -21 17v28q0 10 5 19l174 485q6 18 22 19h51q21 -1 13 -19zM147 1343l265 64q6 2 11 -2t5 -14v-752h197q16 0 16 -18v-33q0 -18 -16 -19h-478q-18 0 -18 19 v33q0 18 18 18h195v682l-195 -47q-18 -4 -18 12v37q0 16 18 20zM1130 1475l-413 -1557q-6 -18 -19 -18h-53q-20 0 -14 18l411 1557q6 18 23 18h53q18 0 12 -18z" />
<glyph unicode="&#xbd;" horiz-adv-x="1716" d="M147 1343l265 64q6 2 11 -2t5 -14v-752h197q16 0 16 -18v-33q0 -18 -16 -19h-478q-18 0 -18 19v33q0 18 18 18h195v686l-195 -51q-18 -4 -18 12v37q0 16 18 20zM1116 1475l-411 -1557q-6 -18 -21 -18h-51q-20 0 -15 18l412 1557q6 18 23 18h53q16 0 10 -18zM1182 72h389 q16 0 16 -19v-35q0 -18 -16 -18h-457q-14 0 -14 18v234q0 82 100 113l227 73q74 25 74 86v131q0 121 -168 121q-90 0 -127 -30.5t-37 -90.5v-57q0 -18 -16 -18h-49q-18 0 -19 18v70q0 178 248 178q252 0 252 -178v-140q0 -113 -110 -147l-215 -70q-78 -25 -78 -71v-168z" />
<glyph unicode="&#xbe;" horiz-adv-x="1675" d="M272 1040h101q94 0 128 28t34 87v68q0 57 -35 86.5t-123 29.5q-90 0 -125 -29.5t-35 -86.5v-15q0 -16 -16 -16h-49q-18 0 -19 16v25q0 84 53.5 130t192.5 46q135 0 188.5 -46t53.5 -128v-90q0 -57 -23 -90t-84 -47q113 -27 113 -144v-137q0 -174 -248 -174 q-250 0 -250 176v25q0 16 16 16h50q18 0 18 -16v-15q0 -117 166 -116q164 0 164 116v117q0 59 -34 87t-126 28h-111q-18 0 -18 18v33q0 18 18 18zM1130 1475l-411 -1557q-6 -18 -21 -18h-51q-20 0 -14 18l411 1557q6 18 23 18h53q16 0 10 -18zM1305 817l-172 -479h327v479 q0 18 19 19h49q18 0 18 -19v-799q0 -18 -18 -18h-49q-18 0 -19 18v250h-399q-20 0 -21 17v28q0 10 4 19l175 485q6 18 22 19h51q21 -1 13 -19z" />
<glyph unicode="&#xbf;" horiz-adv-x="1163" d="M655 664v-166q0 -129 -137 -199l-131 -66q-111 -59 -111 -167v-162q0 -102 70 -156.5t238 -54.5t236.5 54t68.5 157v100q0 27 24 27h58q25 0 24 -27v-115q0 -289 -411 -288q-416 0 -416 288v172q0 170 164 252l106 54q106 53 107 153v144q0 25 24 24h62q24 1 24 -24z M545 827v158q0 25 24 25h62q25 0 24 -25v-158q0 -25 -24 -24h-62q-24 -1 -24 24z" />
<glyph unicode="&#xc0;" d="M500 1393h63q25 0 31 -25l416 -1343q10 -25 -19 -25h-63q-23 0 -29 25l-125 397h-493l-121 -397q-6 -25 -29 -25h-59q-27 0 -19 25l416 1343q6 25 31 25zM750 510l-170 549q-35 115 -52 215q-23 -123 -47 -211l-174 -553h443zM475 1530l-166 244q-16 25 10 24h66 q18 0 33 -22l147 -238q16 -25 -10 -25h-51q-19 1 -29 17z" />
<glyph unicode="&#xc1;" d="M500 1393h63q25 0 31 -25l416 -1343q10 -25 -19 -25h-63q-23 0 -29 25l-125 397h-493l-121 -397q-6 -25 -29 -25h-59q-27 0 -19 25l416 1343q6 25 31 25zM750 510l-170 549q-35 115 -52 215q-23 -123 -47 -211l-174 -553h443zM752 1774l-166 -244q-10 -14 -29 -14h-51 q-29 0 -12 22l149 240q14 20 31 20h65q31 1 13 -24z" />
<glyph unicode="&#xc2;" d="M500 1393h63q25 0 31 -25l416 -1343q10 -25 -19 -25h-63q-23 0 -29 25l-125 397h-493l-121 -397q-6 -25 -29 -25h-59q-27 0 -19 25l416 1343q6 25 31 25zM750 510l-170 549q-35 115 -52 215q-23 -123 -47 -211l-174 -553h443zM530 1729l-122 -189q-14 -25 -35 -24h-47 q-31 0 -13 24l160 234q18 25 37 24h41q23 0 37 -22l162 -236q18 -25 -13 -24h-49q-14 0 -33 24z" />
<glyph unicode="&#xc3;" d="M500 1393h63q25 0 31 -25l416 -1343q10 -25 -19 -25h-63q-23 0 -29 25l-125 397h-493l-121 -397q-6 -25 -29 -25h-59q-27 0 -19 25l416 1343q6 25 31 25zM750 510l-170 549q-35 115 -52 215q-23 -123 -47 -211l-174 -553h443zM397 1696q-39 0 -51 -21.5t-12 -89.5v-18 q0 -23 -27 -23h-35q-20 0 -20 29l2 41q8 166 137 166q59 0 107 -39l94 -76q43 -35 74 -35q39 0 51 22.5t12 88.5v18q0 23 27 23h32q23 0 23 -27l-2 -41q-8 -168 -139 -168q-53 0 -107 41l-92 74q-47 35 -74 35z" />
<glyph unicode="&#xc4;" d="M500 1393h63q25 0 31 -25l416 -1343q10 -25 -19 -25h-63q-23 0 -29 25l-125 397h-493l-121 -397q-6 -25 -29 -25h-59q-27 0 -19 25l416 1343q6 25 31 25zM750 510l-170 549q-35 115 -52 215q-23 -123 -47 -211l-174 -553h443zM473 1755v-201q0 -25 -22 -24h-37 q-25 0 -25 24v201q0 25 25 25h37q22 0 22 -25zM674 1755v-201q0 -25 -23 -24h-37q-25 0 -24 24v201q0 25 24 25h37q23 0 23 -25z" />
<glyph unicode="&#xc5;" d="M500 1393h63q25 0 31 -25l416 -1343q10 -25 -19 -25h-63q-23 0 -29 25l-125 397h-493l-121 -397q-6 -25 -29 -25h-59q-27 0 -19 25l416 1343q6 25 31 25zM750 510l-170 549q-35 115 -52 215q-23 -123 -47 -211l-174 -553h443zM719 1661v-31q0 -68 -46 -108.5t-143 -40.5 q-186 0 -186 149v31q0 150 186 149q96 0 142.5 -40.5t46.5 -108.5zM649 1638v15q0 96 -119 96q-117 0 -116 -96v-15q0 -96 116 -96q119 0 119 96z" />
<glyph unicode="&#xc6;" horiz-adv-x="1720" d="M870 1393h691q25 0 24 -23v-45q0 -23 -24 -22h-615v-525h578q25 0 24 -24v-41q0 -25 -24 -25h-578v-596h639q25 0 25 -24v-43q0 -25 -25 -25h-711q-33 0 -32 25v397h-453l-227 -397q-16 -25 -29 -25h-57q-35 0 -21 25l781 1343q14 25 34 25zM774 1085l-332 -575h400v698 q-45 -86 -68 -123z" />
<glyph unicode="&#xc7;" horiz-adv-x="1120" d="M555 -111h80q70 0 119 -37.5t49 -121.5t-49 -123t-119 -39h-242q-25 0 -24 24v23q0 25 24 25h230q98 0 98 90q0 88 -98 88h-121q-20 0 -28.5 8t-4.5 22l39 140q-334 23 -334 284v848q0 289 418 289t418 -289v-106q0 -27 -23 -27h-59q-25 0 -25 27v90q0 100 -70.5 155.5 t-240.5 55.5t-239.5 -54.5t-69.5 -156.5v-815q0 -102 69.5 -156.5t239.5 -54.5t240.5 55t70.5 156v117q0 23 25 22h59q23 0 23 -22v-134q0 -289 -418 -288h-10z" />
<glyph unicode="&#xc8;" horiz-adv-x="1079" d="M557 1530l-166 244q-16 25 10 24h66q18 0 33 -22l147 -238q16 -25 -10 -25h-51q-19 1 -29 17zM944 0h-725q-23 0 -22 25v1343q0 25 24 25h699q25 0 24 -25v-45q0 -25 -24 -25h-615v-520h578q25 0 24 -24v-43q0 -25 -24 -25h-578v-592h639q25 0 25 -24v-45q0 -25 -25 -25z " />
<glyph unicode="&#xc9;" horiz-adv-x="1079" d="M944 0h-725q-23 0 -22 25v1343q0 25 24 25h699q25 0 24 -25v-45q0 -25 -24 -25h-615v-520h578q25 0 24 -24v-43q0 -25 -24 -25h-578v-592h639q25 0 25 -24v-45q0 -25 -25 -25zM770 1774l-166 -244q-10 -14 -29 -14h-51q-29 0 -12 22l150 240q14 20 30 20h66q30 1 12 -24z " />
<glyph unicode="&#xca;" horiz-adv-x="1079" d="M539 1729l-123 -189q-14 -25 -35 -24h-47q-31 0 -12 24l159 234q18 25 37 24h41q23 0 37 -22l162 -236q18 -25 -13 -24h-49q-14 0 -32 24zM944 0h-725q-23 0 -22 25v1343q0 25 24 25h699q25 0 24 -25v-45q0 -25 -24 -25h-615v-520h578q25 0 24 -24v-43q0 -25 -24 -25 h-578v-592h639q25 0 25 -24v-45q0 -25 -25 -25z" />
<glyph unicode="&#xcb;" horiz-adv-x="1079" d="M944 0h-725q-23 0 -22 25v1343q0 25 24 25h699q25 0 24 -25v-45q0 -25 -24 -25h-615v-520h578q25 0 24 -24v-43q0 -25 -24 -25h-578v-592h639q25 0 25 -24v-45q0 -25 -25 -25zM516 1755v-201q0 -25 -22 -24h-37q-25 0 -25 24v201q0 25 25 25h37q22 0 22 -25zM717 1755 v-201q0 -25 -23 -24h-37q-25 0 -24 24v201q0 25 24 25h37q23 0 23 -25z" />
<glyph unicode="&#xcc;" horiz-adv-x="501" d="M305 1368v-1343q0 -25 -22 -25h-62q-25 0 -24 25v1343q0 25 24 25h62q22 0 22 -25zM197 1530l-166 244q-16 25 10 24h65q18 0 33 -22l148 -238q16 -25 -11 -25h-51q-18 1 -28 17z" />
<glyph unicode="&#xcd;" horiz-adv-x="501" d="M305 1368v-1343q0 -25 -22 -25h-62q-25 0 -24 25v1343q0 25 24 25h62q22 0 22 -25zM467 1774l-166 -244q-10 -14 -29 -14h-51q-29 0 -12 22l149 240q14 20 31 20h66q30 1 12 -24z" />
<glyph unicode="&#xce;" horiz-adv-x="501" d="M305 1368v-1343q0 -25 -22 -25h-62q-25 0 -24 25v1343q0 25 24 25h62q22 0 22 -25zM250 1729l-123 -189q-14 -25 -35 -24h-47q-31 0 -12 24l160 234q18 25 36 24h41q23 0 37 -22l162 -236q18 -25 -12 -24h-49q-14 0 -33 24z" />
<glyph unicode="&#xcf;" horiz-adv-x="501" d="M305 1368v-1343q0 -25 -22 -25h-62q-25 0 -24 25v1343q0 25 24 25h62q22 0 22 -25zM193 1755v-201q0 -25 -23 -24h-37q-25 0 -24 24v201q0 25 24 25h37q23 0 23 -25zM393 1755v-201q0 -25 -22 -24h-37q-25 0 -25 24v201q0 25 25 25h37q22 0 22 -25z" />
<glyph unicode="&#xd0;" horiz-adv-x="1226" d="M625 0h-406q-23 0 -22 25v639h-148q-25 0 -24 24v37q0 23 24 23h148v620q0 25 22 25h406q428 0 428 -289v-815q0 -289 -428 -289zM625 1298h-320v-550h293q25 0 25 -23v-37q0 -25 -25 -24h-293v-570h320q319 0 319 211v782q0 211 -319 211z" />
<glyph unicode="&#xd1;" horiz-adv-x="1247" d="M1051 1368v-1343q0 -25 -23 -25h-55q-16 0 -23 12l-585 1043q-57 88 -66 121v-1151q0 -25 -23 -25h-55q-25 0 -24 25v1343q0 25 24 25h55q14 0 21 -11l592 -1050l59 -117v1153q0 25 25 25h55q23 0 23 -25zM489 1696q-39 0 -51 -21.5t-12 -89.5v-18q0 -23 -27 -23h-34 q-20 0 -21 29l2 41q8 166 137 166q59 0 107 -39l94 -76q43 -35 74 -35q39 0 51 22.5t12 88.5v18q0 23 27 23h33q23 0 22 -27l-2 -41q-8 -168 -139 -168q-53 0 -107 41l-92 74q-47 35 -74 35z" />
<glyph unicode="&#xd2;" horiz-adv-x="1202" d="M547 1530l-166 244q-16 25 10 24h66q18 0 32 -22l148 -238q14 -25 -10 -25h-52q-18 1 -28 17zM174 272v848q0 289 426 289q430 0 430 -289v-848q0 -289 -430 -288q-426 -1 -426 288zM920 289v815q0 211 -320 211q-317 0 -317 -211v-815q0 -211 317 -211q320 0 320 211z " />
<glyph unicode="&#xd3;" horiz-adv-x="1202" d="M801 1774l-166 -244q-10 -14 -29 -14h-51q-29 0 -12 22l149 240q14 20 31 20h65q31 1 13 -24zM174 272v848q0 289 426 289q430 0 430 -289v-848q0 -289 -430 -288q-426 -1 -426 288zM920 289v815q0 211 -320 211q-317 0 -317 -211v-815q0 -211 317 -211q320 0 320 211z " />
<glyph unicode="&#xd4;" horiz-adv-x="1202" d="M600 1729l-123 -189q-14 -25 -35 -24h-47q-31 0 -12 24l160 234q18 25 37 24h41q23 0 36 -22l162 -236q18 -25 -12 -24h-49q-14 0 -33 24zM174 272v848q0 289 426 289q430 0 430 -289v-848q0 -289 -430 -288q-426 -1 -426 288zM920 289v815q0 211 -320 211 q-317 0 -317 -211v-815q0 -211 317 -211q320 0 320 211z" />
<glyph unicode="&#xd5;" horiz-adv-x="1202" d="M174 272v848q0 289 426 289q430 0 430 -289v-848q0 -289 -430 -288q-426 -1 -426 288zM920 289v815q0 211 -320 211q-317 0 -317 -211v-815q0 -211 317 -211q320 0 320 211zM467 1696q-39 0 -51.5 -21.5t-12.5 -89.5v-18q0 -23 -26 -23h-35q-20 0 -20 29l2 41 q8 166 137 166q59 0 106 -39l95 -76q43 -35 73 -35q39 0 51.5 22.5t12.5 88.5v18q0 23 26 23h33q23 0 23 -27l-2 -41q-8 -168 -140 -168q-53 0 -106 41l-92 74q-47 35 -74 35z" />
<glyph unicode="&#xd6;" horiz-adv-x="1202" d="M174 272v848q0 289 426 289q430 0 430 -289v-848q0 -289 -430 -288q-426 -1 -426 288zM920 289v815q0 211 -320 211q-317 0 -317 -211v-815q0 -211 317 -211q320 0 320 211zM543 1755v-201q0 -25 -23 -24h-37q-25 0 -24 24v201q0 25 24 25h37q23 0 23 -25zM743 1755v-201 q0 -25 -22 -24h-37q-25 0 -25 24v201q0 25 25 25h37q22 0 22 -25z" />
<glyph unicode="&#xd7;" horiz-adv-x="1116" d="M717 324l-176 307l-308 -176q-25 -12 -34 10l-19 37q-10 23 8 33l308 176l-179 307q-12 20 9 33l36 22q20 14 33 -10l178 -307l310 178q23 12 32 -8l21 -37q12 -20 -10 -35l-308 -178l177 -305q14 -23 -9 -35l-36 -21q-21 -11 -33 9z" />
<glyph unicode="&#xd8;" horiz-adv-x="1202" d="M174 272v846q0 291 426 291q178 0 289 -53l26 55q20 35 39 35h23q27 0 8 -35l-45 -90q90 -70 90 -203v-846q0 -289 -430 -288q-188 0 -289 53l-26 -55q-18 -35 -39 -35h-23q-27 0 -8 35l43 90q-84 69 -84 200zM920 287v817q0 61 -31 110l-531 -1083q78 -55 242 -55 q320 0 320 211zM283 287q0 -66 28 -109l531 1082q-82 55 -242 55q-317 0 -317 -211v-817z" />
<glyph unicode="&#xd9;" horiz-adv-x="1226" d="M567 1530l-166 244q-16 25 11 24h65q18 0 33 -22l147 -238q14 -25 -10 -25h-51q-19 1 -29 17zM293 1368v-1079q0 -211 319.5 -211t319.5 211v1079q0 25 24 25h62q23 0 22 -25v-1096q0 -289 -428 -288.5t-428 288.5v1096q0 25 25 25h61q23 0 23 -25z" />
<glyph unicode="&#xda;" horiz-adv-x="1226" d="M293 1368v-1079q0 -211 319.5 -211t319.5 211v1079q0 25 24 25h62q23 0 22 -25v-1096q0 -289 -428 -288.5t-428 288.5v1096q0 25 25 25h61q23 0 23 -25zM823 1774l-166 -244q-10 -14 -28 -14h-51q-29 0 -13 22l150 240q14 20 30 20h66q30 1 12 -24z" />
<glyph unicode="&#xdb;" horiz-adv-x="1226" d="M612 1729l-123 -189q-14 -25 -34 -24h-47q-31 0 -13 24l160 234q18 25 37 24h41q23 0 37 -22l161 -236q18 -25 -12 -24h-49q-14 0 -33 24zM293 1368v-1079q0 -211 319.5 -211t319.5 211v1079q0 25 24 25h62q23 0 22 -25v-1096q0 -289 -428 -288.5t-428 288.5v1096 q0 25 25 25h61q23 0 23 -25z" />
<glyph unicode="&#xdc;" horiz-adv-x="1226" d="M293 1368v-1079q0 -211 319.5 -211t319.5 211v1079q0 25 24 25h62q23 0 22 -25v-1096q0 -289 -428 -288.5t-428 288.5v1096q0 25 25 25h61q23 0 23 -25zM555 1755v-201q0 -25 -23 -24h-36q-25 0 -25 24v201q0 25 25 25h36q23 0 23 -25zM756 1755v-201q0 -25 -23 -24h-37 q-25 0 -24 24v201q0 25 24 25h37q23 0 23 -25z" />
<glyph unicode="&#xdd;" horiz-adv-x="1042" d="M162 1368l332 -631q18 -37 28 -67q0 6 31 67l336 631q14 25 31 25h59q33 0 18 -25l-419 -790v-553q0 -25 -25 -25h-61q-23 0 -23 25v540l-422 803q-12 25 16 25h68q19 0 31 -25zM750 1774l-166 -244q-10 -14 -29 -14h-51q-29 0 -12 22l149 240q14 20 31 20h65 q31 1 13 -24z" />
<glyph unicode="&#xde;" horiz-adv-x="1153" d="M305 1368v-358h313q428 0 429 -289v-219q0 -289 -429 -289h-313v-188q0 -25 -22 -25h-62q-25 0 -24 25v1343q0 25 24 25h62q22 0 22 -25zM618 918h-313v-613h313q319 0 320 213v187q-1 213 -320 213z" />
<glyph unicode="&#xdf;" horiz-adv-x="1212" d="M326 1190v-1165q0 -25 -25 -25h-59q-25 0 -25 25v893h-133q-23 0 -23 24v33q0 25 23 24l115 7h18v192q0 252 383 252q381 0 381 -252v-78q0 -76 -50 -116.5t-110 -57.5l-129 -35q-119 -33 -119 -102v-12q0 -84 123 -129l244 -90q190 -70 190 -201v-144q0 -121 -72.5 -185 t-260.5 -64q-186 0 -255 62.5t-69 184.5v25q0 25 25 25h41q25 0 24 -25v-29q0 -82 49.5 -125t184.5 -43t185 43t50 125v131q0 84 -141 134l-238 88q-174 63 -174 206v27q0 123 162 166l115 31q125 35 125 125v55q0 174 -277 174q-278 0 -278 -174z" />
<glyph unicode="&#xe0;" horiz-adv-x="1028" d="M154 737v37q0 252 356 252q195 0 275.5 -65.5t80.5 -186.5v-749q0 -25 -22 -25h-51q-25 0 -25 25l-4 81q-156 -123 -348 -122q-137 0 -209 66.5t-72 170.5v105q0 104 66.5 170.5t189.5 66.5h371v203q0 82 -56.5 127t-197.5 45t-197.5 -44t-56.5 -126v-31q0 -25 -25 -24 h-53q-22 -1 -22 24zM438 74q170 0 324 121v282h-352q-170 0 -170 -164v-80q-1 -159 198 -159zM504 1182l-166 243q-18 25 12 25h66q18 0 33 -20l147 -240q14 -23 -10 -23h-51q-23 1 -31 15z" />
<glyph unicode="&#xe1;" horiz-adv-x="1028" d="M154 737v37q0 252 356 252q195 0 275.5 -65.5t80.5 -186.5v-749q0 -25 -22 -25h-51q-25 0 -25 25l-4 81q-156 -123 -348 -122q-137 0 -209 66.5t-72 170.5v105q0 104 66.5 170.5t189.5 66.5h371v203q0 82 -56.5 127t-197.5 45t-197.5 -44t-56.5 -126v-31q0 -25 -25 -24 h-53q-22 -1 -22 24zM438 74q170 0 324 121v282h-352q-170 0 -170 -164v-80q-1 -159 198 -159zM686 1425l-166 -243q-10 -14 -28 -15h-52q-23 0 -12 23l147 240q14 20 33 20h66q26 0 12 -25z" />
<glyph unicode="&#xe2;" horiz-adv-x="1028" d="M154 737v37q0 252 356 252q195 0 275.5 -65.5t80.5 -186.5v-749q0 -25 -22 -25h-51q-25 0 -25 25l-4 81q-156 -123 -348 -122q-137 0 -209 66.5t-72 170.5v105q0 104 66.5 170.5t189.5 66.5h371v203q0 82 -56.5 127t-197.5 45t-197.5 -44t-56.5 -126v-31q0 -25 -25 -24 h-53q-22 -1 -22 24zM438 74q170 0 324 121v282h-352q-170 0 -170 -164v-80q-1 -159 198 -159zM514 1380l-125 -188q-14 -25 -33 -25h-49q-31 0 -12 25l160 233q18 25 37 25h40q25 0 39 -23l160 -235q18 -25 -12 -25h-47q-16 0 -35 25z" />
<glyph unicode="&#xe3;" horiz-adv-x="1028" d="M154 737v37q0 252 356 252q195 0 275.5 -65.5t80.5 -186.5v-749q0 -25 -22 -25h-51q-25 0 -25 25l-4 81q-156 -123 -348 -122q-137 0 -209 66.5t-72 170.5v105q0 104 66.5 170.5t189.5 66.5h371v203q0 82 -56.5 127t-197.5 45t-197.5 -44t-56.5 -126v-31q0 -25 -25 -24 h-53q-22 -1 -22 24zM438 74q170 0 324 121v282h-352q-170 0 -170 -164v-80q-1 -159 198 -159zM379 1339q-39 0 -51.5 -22.5t-12.5 -89.5v-17q0 -23 -26 -22h-33q-23 0 -23 26l3 41q8 168 137 168q55 0 106 -41l94 -75q43 -35 74 -35q39 0 51.5 22.5t12.5 87.5v19q0 23 26 22 h33q23 0 23 -26l-2 -41q-8 -168 -138 -168q-57 0 -106 41l-94 74q-45 36 -74 36z" />
<glyph unicode="&#xe4;" horiz-adv-x="1028" d="M154 737v37q0 252 356 252q195 0 275.5 -65.5t80.5 -186.5v-749q0 -25 -22 -25h-51q-25 0 -25 25l-4 81q-156 -123 -348 -122q-137 0 -209 66.5t-72 170.5v105q0 104 66.5 170.5t189.5 66.5h371v203q0 82 -56.5 127t-197.5 45t-197.5 -44t-56.5 -126v-31q0 -25 -25 -24 h-53q-22 -1 -22 24zM438 74q170 0 324 121v282h-352q-170 0 -170 -164v-80q-1 -159 198 -159zM455 1413v-201q0 -25 -25 -24h-37q-25 0 -24 24v201q0 25 24 25h37q25 0 25 -25zM655 1413v-201q0 -25 -24 -24h-37q-25 0 -25 24v201q0 25 25 25h37q24 0 24 -25z" />
<glyph unicode="&#xe5;" horiz-adv-x="1028" d="M154 737v37q0 252 356 252q195 0 275.5 -65.5t80.5 -186.5v-749q0 -25 -22 -25h-51q-25 0 -25 25l-4 81q-156 -123 -348 -122q-137 0 -209 66.5t-72 170.5v105q0 104 66.5 170.5t189.5 66.5h371v203q0 82 -56.5 127t-197.5 45t-197.5 -44t-56.5 -126v-31q0 -25 -25 -24 h-53q-22 -1 -22 24zM438 74q170 0 324 121v282h-352q-170 0 -170 -164v-80q-1 -159 198 -159zM700 1323v-39q0 -145 -184 -145t-184 145v39q0 145 184 145t184 -145zM635 1294v19q0 94 -119 94q-117 0 -117 -94v-19q0 -94 117 -94q119 0 119 94z" />
<glyph unicode="&#xe6;" horiz-adv-x="1615" d="M1487 774v-252q0 -23 -23 -22h-598v-267q0 -82 58.5 -123.5t201.5 -41.5q260 0 260 172v45q0 23 23 22h51q25 0 25 -22v-49q0 -252 -359 -252q-287 0 -342 147q-176 -147 -368 -147q-141 0 -211 65.5t-70 171.5v86q0 104 66.5 171t189.5 67h371v239q0 160 -254 160 q-141 0 -197.5 -44t-56.5 -126v-37q0 -25 -25 -24h-53q-25 0 -24 24v39q0 119 81.5 184.5t276.5 65.5q242 0 303 -125q70 125 313 125q361 0 361 -252zM438 70q162 0 324 141v256h-356q-82 0 -124 -45t-42 -119v-70q0 -74 51 -118.5t147 -44.5zM866 770v-192h520v192 q0 172 -260 172q-143 0 -201.5 -45t-58.5 -127z" />
<glyph unicode="&#xe7;" horiz-adv-x="974" d="M469 -111h80q70 0 119 -37.5t49 -121.5t-49.5 -123t-118.5 -39h-242q-25 0 -24 24v23q0 25 24 25h230q98 0 98 90q0 88 -98 88h-121q-20 0 -28.5 8t-4.5 22l39 140q-272 27 -272 248v536q0 121 81.5 187.5t278.5 66.5q195 0 276.5 -66.5t81.5 -187.5v-39q0 -25 -24 -24 h-53q-25 0 -25 24v33q0 82 -56.5 126t-199.5 44q-141 0 -197.5 -44t-56.5 -126v-522q0 -84 56.5 -127t197.5 -43q143 0 199.5 43t56.5 127v49q0 25 25 24h53q25 0 24 -24v-57q0 -121 -81.5 -186.5t-278.5 -65.5h-12z" />
<glyph unicode="&#xe8;" horiz-adv-x="1003" d="M874 772v-254q0 -23 -22 -22h-598v-254q0 -82 57.5 -126t202.5 -44t202.5 44t57.5 126v43q0 25 23 24h53q25 0 24 -24v-49q0 -252 -362 -252t-362 252v536q0 254 364 254q360 0 360 -254zM254 768v-190h520v190q0 170 -260 170t-260 -170zM475 1182l-166 243 q-18 25 13 25h65q18 0 33 -20l147 -240q14 -23 -10 -23h-51q-23 1 -31 15z" />
<glyph unicode="&#xe9;" horiz-adv-x="1003" d="M705 1425l-166 -243q-10 -14 -29 -15h-51q-25 0 -13 23l148 240q14 20 33 20h65q27 0 13 -25zM874 772v-254q0 -23 -22 -22h-598v-254q0 -82 57.5 -126t202.5 -44t202.5 44t57.5 126v43q0 25 23 24h53q25 0 24 -24v-49q0 -252 -362 -252t-362 252v536q0 254 364 254 q360 0 360 -254zM254 768v-190h520v190q0 170 -260 170t-260 -170z" />
<glyph unicode="&#xea;" horiz-adv-x="1003" d="M514 1380l-125 -188q-14 -25 -33 -25h-49q-31 0 -12 25l160 233q18 25 37 25h40q25 0 39 -23l160 -235q18 -25 -12 -25h-47q-16 0 -35 25zM874 772v-254q0 -23 -22 -22h-598v-254q0 -82 57.5 -126t202.5 -44t202.5 44t57.5 126v43q0 25 23 24h53q25 0 24 -24v-49 q0 -252 -362 -252t-362 252v536q0 254 364 254q360 0 360 -254zM254 768v-190h520v190q0 170 -260 170t-260 -170z" />
<glyph unicode="&#xeb;" horiz-adv-x="1003" d="M455 1413v-201q0 -25 -25 -24h-37q-25 0 -24 24v201q0 25 24 25h37q25 0 25 -25zM655 1413v-201q0 -25 -24 -24h-37q-25 0 -25 24v201q0 25 25 25h37q24 0 24 -25zM874 772v-254q0 -23 -22 -22h-598v-254q0 -82 57.5 -126t202.5 -44t202.5 44t57.5 126v43q0 25 23 24h53 q25 0 24 -24v-49q0 -252 -362 -252t-362 252v536q0 254 364 254q360 0 360 -254zM254 768v-190h520v190q0 170 -260 170t-260 -170z" />
<glyph unicode="&#xec;" horiz-adv-x="452" d="M281 985v-960q0 -25 -25 -25h-59q-23 0 -23 25v960q0 25 23 25h59q25 0 25 -25zM170 1182l-166 243q-18 25 12 25h66q18 0 33 -20l147 -240q14 -23 -10 -23h-51q-25 1 -31 15z" />
<glyph unicode="&#xed;" horiz-adv-x="452" d="M440 1425l-166 -243q-10 -14 -28 -15h-51q-23 0 -13 23l148 240q14 20 32 20h66q26 0 12 -25zM281 985v-960q0 -25 -25 -25h-59q-23 0 -23 25v960q0 25 23 25h59q25 0 25 -25z" />
<glyph unicode="&#xee;" horiz-adv-x="452" d="M229 1380l-125 -188q-14 -25 -32 -25h-49q-31 0 -13 25l160 233q18 25 37 25h41q25 0 39 -23l159 -235q18 -25 -12 -25h-47q-16 0 -35 25zM281 985v-960q0 -25 -25 -25h-59q-23 0 -23 25v960q0 25 23 25h59q25 0 25 -25z" />
<glyph unicode="&#xef;" horiz-adv-x="452" d="M170 1413v-201q0 -25 -25 -24h-36q-25 0 -25 24v201q0 25 25 25h36q25 0 25 -25zM371 1413v-201q0 -25 -25 -24h-37q-25 0 -24 24v201q0 25 24 25h37q25 0 25 -25zM281 985v-960q0 -25 -25 -25h-59q-23 0 -23 25v960q0 25 23 25h59q25 0 25 -25z" />
<glyph unicode="&#xf0;" horiz-adv-x="1130" d="M567 1243l170 72q-61 55 -213 55h-178q-25 0 -24 25v30q0 25 24 25h178q219 0 301 -88l111 49q20 10 31 -8l8 -17q10 -20 -12 -30l-101 -47q25 -47 25 -111v-962q0 -252 -367 -252q-371 0 -370 252v538q0 117 70.5 184.5t211.5 67.5q188 0 352 -125v281q0 43 -20 75 l-168 -71q-25 -12 -33 10l-6 14q-13 23 10 33zM784 244v565q-150 123 -327 123q-102 0 -151.5 -47t-49.5 -123v-518q0 -172 264 -172t264 172z" />
<glyph unicode="&#xf1;" horiz-adv-x="1075" d="M250 1010q25 0 24 -25l2 -86q154 127 357 127q139 0 209.5 -66.5t70.5 -179.5v-755q0 -25 -22 -25h-60q-23 0 -22 25v735q0 170 -201 170q-186 0 -327 -123v-782q0 -25 -25 -25h-57q-25 0 -25 25v960q0 25 25 25h51zM397 1346q-39 0 -51 -23t-12 -90v-16q0 -23 -27 -23 h-33q-23 0 -22 27l2 41q8 168 137 168q55 0 107 -41l94 -76q43 -35 74 -35q39 0 51 22.5t12 88.5v18q0 23 27 23h32q23 0 23 -27l-2 -41q-8 -168 -137 -168q-57 0 -107 41l-94 74q-45 37 -74 37z" />
<glyph unicode="&#xf2;" horiz-adv-x="1040" d="M150 236v536q0 254 370.5 254t370.5 -254v-536q0 -252 -370.5 -252t-370.5 252zM784 244v522q0 170 -264 170t-264 -170v-522q0 -170 264 -170t264 170zM475 1182l-166 243q-18 25 13 25h65q18 0 33 -20l147 -240q14 -23 -10 -23h-51q-23 1 -31 15z" />
<glyph unicode="&#xf3;" horiz-adv-x="1040" d="M729 1425l-166 -243q-10 -14 -28 -15h-52q-25 0 -12 23l147 240q14 20 33 20h66q26 0 12 -25zM150 236v536q0 254 370.5 254t370.5 -254v-536q0 -252 -370.5 -252t-370.5 252zM784 244v522q0 170 -264 170t-264 -170v-522q0 -170 264 -170t264 170z" />
<glyph unicode="&#xf4;" horiz-adv-x="1040" d="M522 1380l-125 -188q-14 -25 -32 -25h-50q-31 0 -12 25l160 233q18 25 37 25h41q25 0 39 -23l159 -235q18 -25 -12 -25h-47q-16 0 -35 25zM150 236v536q0 254 370.5 254t370.5 -254v-536q0 -252 -370.5 -252t-370.5 252zM784 244v522q0 170 -264 170t-264 -170v-522 q0 -170 264 -170t264 170z" />
<glyph unicode="&#xf5;" horiz-adv-x="1040" d="M150 236v536q0 254 370.5 254t370.5 -254v-536q0 -252 -370.5 -252t-370.5 252zM784 244v522q0 170 -264 170t-264 -170v-522q0 -170 264 -170t264 170zM387 1339q-39 0 -51 -22.5t-12 -89.5v-17q0 -23 -27 -22h-33q-23 0 -22 26l2 41q8 168 137 168q55 0 106 -41l95 -75 q43 -35 73 -35q39 0 51.5 22.5t12.5 87.5v19q0 23 26 22h33q23 0 23 -26l-2 -41q-8 -168 -137 -168q-57 0 -107 41l-94 74q-45 36 -74 36z" />
<glyph unicode="&#xf6;" horiz-adv-x="1040" d="M463 1413v-201q0 -25 -25 -24h-37q-25 0 -24 24v201q0 25 24 25h37q25 0 25 -25zM664 1413v-201q0 -25 -25 -24h-37q-25 0 -24 24v201q0 25 24 25h37q25 0 25 -25zM150 236v536q0 254 370.5 254t370.5 -254v-536q0 -252 -370.5 -252t-370.5 252zM784 244v522 q0 170 -264 170t-264 -170v-522q0 -170 264 -170t264 170z" />
<glyph unicode="&#xf7;" horiz-adv-x="1208" d="M197 713h815q25 0 24 -23v-43q0 -25 -24 -24h-813q-25 0 -25 24v43q0 23 23 23zM659 414v-158q0 -25 -24 -25h-60q-25 0 -24 25v158q0 25 24 24h60q24 1 24 -24zM659 1085v-157q0 -25 -24 -25h-60q-25 0 -24 25v157q0 25 24 25h60q24 0 24 -25z" />
<glyph unicode="&#xf8;" horiz-adv-x="1040" d="M150 236v536q0 254 370 254q147 0 236 -41l26 47q18 35 39 35h27q23 0 4 -35l-43 -78q82 -63 82 -182v-536q0 -252 -371 -252q-143 0 -239 41l-25 -43q-18 -35 -39 -35h-22q-29 0 -9 35l43 75q-79 60 -79 179zM784 244v522q0 59 -28 96l-428 -753q63 -35 192 -35 q264 0 264 170zM256 244q0 -55 27 -94l424 751q-63 35 -187 35q-264 0 -264 -170v-522z" />
<glyph unicode="&#xf9;" d="M788 25l-4 81q-143 -123 -342 -122q-137 0 -208.5 66.5t-71.5 176.5v756q0 27 22 27h60q25 0 24 -27v-733q0 -170 201 -170q170 0 315 121v782q0 27 23 27h59q23 0 23 -27v-958q0 -25 -23 -25h-53q-25 0 -25 25zM502 1182l-166 243q-18 25 12 25h66q18 0 32 -20l148 -240 q14 -23 -10 -23h-52q-24 1 -30 15z" />
<glyph unicode="&#xfa;" d="M729 1425l-166 -243q-10 -14 -28 -15h-52q-25 0 -12 23l147 240q14 20 33 20h66q26 0 12 -25zM788 25l-4 81q-143 -123 -342 -122q-137 0 -208.5 66.5t-71.5 176.5v756q0 27 22 27h60q25 0 24 -27v-733q0 -170 201 -170q170 0 315 121v782q0 27 23 27h59q23 0 23 -27 v-958q0 -25 -23 -25h-53q-25 0 -25 25z" />
<glyph unicode="&#xfb;" d="M528 1380l-125 -188q-14 -25 -32 -25h-49q-31 0 -13 25l160 233q18 25 37 25h41q25 0 39 -23l159 -235q18 -25 -12 -25h-47q-16 0 -35 25zM788 25l-4 81q-143 -123 -342 -122q-137 0 -208.5 66.5t-71.5 176.5v756q0 27 22 27h60q25 0 24 -27v-733q0 -170 201 -170 q170 0 315 121v782q0 27 23 27h59q23 0 23 -27v-958q0 -25 -23 -25h-53q-25 0 -25 25z" />
<glyph unicode="&#xfc;" d="M475 1413v-201q0 -25 -24 -24h-37q-25 0 -25 24v201q0 25 25 25h37q24 0 24 -25zM676 1413v-201q0 -25 -25 -24h-37q-25 0 -24 24v201q0 25 24 25h37q25 0 25 -25zM788 25l-4 81q-143 -123 -342 -122q-137 0 -208.5 66.5t-71.5 176.5v756q0 27 22 27h60q25 0 24 -27v-733 q0 -170 201 -170q170 0 315 121v782q0 27 23 27h59q23 0 23 -27v-958q0 -25 -23 -25h-53q-25 0 -25 25z" />
<glyph unicode="&#xfd;" horiz-adv-x="862" d="M152 985l251 -739q10 -31 29 -105q0 23 29 101l254 743q6 25 28 25h58q25 0 18 -25l-473 -1386q-6 -25 -29 -25h-47q-25 0 -18 25l131 397l-340 989q-6 25 18 25h62q23 0 29 -25zM647 1425l-166 -243q-10 -14 -28 -15h-52q-25 0 -12 23l148 240q14 20 32 20h66 q26 0 12 -25z" />
<glyph unicode="&#xfe;" horiz-adv-x="1064" d="M281 1407v-506q152 125 352 125q141 0 211.5 -67.5t70.5 -184.5v-538q0 -117 -70.5 -184.5t-211.5 -67.5q-203 0 -352 122v-507q0 -25 -25 -25h-59q-23 0 -23 25v1808q0 25 23 25h59q25 0 25 -25zM809 248v514q0 76 -50 123t-153 47q-176 0 -325 -123v-610 q147 -121 325 -121q102 0 152.5 47t50.5 123z" />
<glyph unicode="&#xff;" horiz-adv-x="862" d="M152 985l251 -739q10 -31 29 -105q0 23 29 101l254 743q6 25 28 25h58q25 0 18 -25l-473 -1386q-6 -25 -29 -25h-47q-25 0 -18 25l131 397l-340 989q-6 25 18 25h62q23 0 29 -25zM381 1413v-201q0 -25 -25 -24h-37q-25 0 -24 24v201q0 25 24 25h37q25 0 25 -25zM582 1413 v-201q0 -25 -25 -24h-37q-25 0 -24 24v201q0 25 24 25h37q25 0 25 -25z" />
<glyph unicode="&#x152;" horiz-adv-x="1802" d="M174 272v848q0 289 426 289q213 0 320 -92v51q0 25 24 25h698q25 0 25 -23v-45q0 -25 -25 -25h-612v-522h576q25 0 24 -24v-41q0 -25 -24 -25h-576v-596h639q25 0 25 -22v-45q0 -25 -25 -25h-727q-23 0 -22 25v51q-106 -92 -320 -92q-426 -1 -426 288zM600 76 q313 0 320 200v838q-6 203 -320 203q-317 0 -317 -211v-819q0 -211 317 -211z" />
<glyph unicode="&#x153;" horiz-adv-x="1638" d="M150 236v538q0 252 370 252q236 0 309 -106q80 106 320 106q360 0 360 -252v-252q0 -23 -22 -22h-598v-260q0 -172 260 -172t260 172v45q0 23 25 22h49q25 0 24 -22v-49q0 -252 -358 -252q-242 0 -320 104q-72 -104 -309 -104q-370 0 -370 252zM784 244v522 q0 172 -264 172t-264 -172v-522q0 -172 264 -172t264 172zM889 770v-192h520v192q0 172 -260 172t-260 -172z" />
<glyph unicode="&#x178;" horiz-adv-x="1042" d="M162 1368l332 -631q18 -37 28 -67q0 6 31 67l336 631q14 25 31 25h59q33 0 18 -25l-419 -790v-553q0 -25 -25 -25h-61q-23 0 -23 25v540l-422 803q-12 25 16 25h68q19 0 31 -25zM463 1755v-201q0 -25 -23 -24h-37q-25 0 -24 24v201q0 25 24 25h37q23 0 23 -25zM664 1755 v-201q0 -25 -23 -24h-37q-25 0 -24 24v201q0 25 24 25h37q23 0 23 -25z" />
<glyph unicode="&#x2c6;" horiz-adv-x="706" d="M352 1380l-125 -188q-14 -25 -32 -25h-50q-31 0 -12 25l160 233q18 25 37 25h41q25 0 39 -23l159 -235q18 -25 -12 -25h-47q-16 0 -35 25z" />
<glyph unicode="&#x2dc;" horiz-adv-x="872" d="M301 1339q-39 0 -51 -22.5t-12 -89.5v-17q0 -23 -27 -22h-33q-23 0 -22 26l2 41q8 168 137 168q55 0 106 -41l95 -75q43 -35 73 -35q39 0 51.5 22.5t12.5 87.5v19q0 23 26 22h33q23 0 23 -26l-2 -41q-8 -168 -138 -168q-57 0 -106 41l-94 74q-45 36 -74 36z" />
<glyph unicode="&#x2000;" horiz-adv-x="905" />
<glyph unicode="&#x2001;" horiz-adv-x="1810" />
<glyph unicode="&#x2002;" horiz-adv-x="905" />
<glyph unicode="&#x2003;" horiz-adv-x="1810" />
<glyph unicode="&#x2004;" horiz-adv-x="602" />
<glyph unicode="&#x2005;" horiz-adv-x="452" />
<glyph unicode="&#x2006;" horiz-adv-x="301" />
<glyph unicode="&#x2007;" horiz-adv-x="301" />
<glyph unicode="&#x2008;" horiz-adv-x="225" />
<glyph unicode="&#x2009;" horiz-adv-x="360" />
<glyph unicode="&#x200a;" horiz-adv-x="100" />
<glyph unicode="&#x2010;" horiz-adv-x="946" d="M199 637h549q25 0 24 -23v-43q0 -25 -24 -24h-549q-25 0 -25 24v43q0 23 25 23z" />
<glyph unicode="&#x2011;" horiz-adv-x="946" d="M199 637h549q25 0 24 -23v-43q0 -25 -24 -24h-549q-25 0 -25 24v43q0 23 25 23z" />
<glyph unicode="&#x2012;" horiz-adv-x="946" d="M199 637h549q25 0 24 -23v-43q0 -25 -24 -24h-549q-25 0 -25 24v43q0 23 25 23z" />
<glyph unicode="&#x2013;" horiz-adv-x="1126" d="M199 637h729q25 0 24 -23v-43q0 -25 -24 -24h-729q-25 0 -25 24v43q0 23 25 23z" />
<glyph unicode="&#x2014;" horiz-adv-x="1757" d="M199 637h1362q25 0 24 -23v-43q0 -25 -24 -24h-1362q-25 0 -25 24v43q0 23 25 23z" />
<glyph unicode="&#x2018;" horiz-adv-x="436" d="M262 1241v-121q0 -25 -22 -24h-62q-25 0 -24 24v125q0 176 180 234q23 6 31 -15l16 -43q8 -20 -14 -30q-105 -50 -105 -150z" />
<glyph unicode="&#x2019;" horiz-adv-x="434" d="M172 1333v121q0 25 23 25h61q25 0 25 -25v-125q0 -176 -181 -233q-23 -6 -30 14l-17 43q-8 20 15 31q104 49 104 149z" />
<glyph unicode="&#x201a;" horiz-adv-x="434" d="M172 61v121q0 25 23 25h61q25 0 25 -25v-125q0 -176 -181 -233q-23 -6 -30 14l-17 43q-8 20 15 31q104 49 104 149z" />
<glyph unicode="&#x201c;" horiz-adv-x="722" d="M551 1241v-121q0 -25 -23 -24h-61q-25 0 -25 24v125q0 176 181 234q23 6 30 -15l17 -43q8 -20 -15 -30q-104 -50 -104 -150zM262 1241v-121q0 -25 -22 -24h-62q-25 0 -24 24v125q0 176 180 234q23 6 31 -15l16 -43q8 -20 -14 -30q-105 -50 -105 -150z" />
<glyph unicode="&#x201d;" horiz-adv-x="722" d="M461 1333v121q0 25 22 25h62q25 0 24 -25v-125q0 -176 -180 -233q-23 -6 -31 14l-16 43q-8 20 14 31q105 49 105 149zM172 1333v121q0 25 23 25h61q25 0 25 -25v-125q0 -176 -181 -233q-23 -6 -30 14l-17 43q-8 20 15 31q104 49 104 149z" />
<glyph unicode="&#x201e;" horiz-adv-x="722" d="M461 61v121q0 25 22 25h62q25 0 24 -25v-125q0 -176 -180 -233q-23 -6 -31 14l-16 43q-8 20 14 31q105 49 105 149zM172 61v121q0 25 23 25h61q25 0 25 -25v-125q0 -176 -181 -233q-23 -6 -30 14l-17 43q-8 20 15 31q104 49 104 149z" />
<glyph unicode="&#x2022;" horiz-adv-x="501" d="M305 659v-256q0 -23 -22 -22h-62q-25 0 -24 22v256q0 25 24 25h62q22 0 22 -25z" />
<glyph unicode="&#x2026;" horiz-adv-x="1449" d="M272 182v-157q0 -25 -24 -25h-60q-25 0 -24 25v157q0 25 24 25h60q24 0 24 -25zM1286 182v-157q0 -25 -24 -25h-60q-25 0 -24 25v157q0 25 24 25h60q24 0 24 -25zM780 182v-157q0 -25 -24 -25h-60q-25 0 -24 25v157q0 25 24 25h60q24 0 24 -25z" />
<glyph unicode="&#x202f;" horiz-adv-x="360" />
<glyph unicode="&#x2039;" horiz-adv-x="780" d="M580 737l-316 -235l316 -234q25 -20 24 -39v-63q0 -12 -8 -15.5t-16 3.5l-381 286q-23 14 -23 33v57q0 18 23 33l381 289q8 6 16 3t8 -15v-68q1 -15 -24 -35z" />
<glyph unicode="&#x203a;" horiz-adv-x="780" d="M516 502l-315 235q-25 20 -25 35v68q0 12 8.5 15t16.5 -3l381 -289q23 -14 22 -33v-57q0 -18 -22 -33l-381 -286q-6 -4 -11.5 -5.5t-9.5 4t-4 13.5v63q0 18 25 39z" />
<glyph unicode="&#x205f;" horiz-adv-x="452" />
<glyph unicode="&#x20ac;" horiz-adv-x="1323" d="M203 612h104v170h-104q-25 0 -25 25v27q0 23 25 22h104v264q0 289 418 289t418 -289v-106q0 -27 -23 -27h-59q-25 0 -25 27v90q0 100 -70.5 155.5t-240.5 55.5t-239.5 -54.5t-69.5 -156.5v-248h350q25 0 25 -22v-27q0 -25 -25 -25h-350v-170h350q25 0 25 -24v-27 q0 -23 -25 -22h-350v-250q0 -102 69.5 -156.5t239.5 -54.5t240.5 55t70.5 156v117q0 23 25 22h59q23 0 23 -22v-134q0 -289 -418 -288.5t-418 288.5v267h-104q-25 0 -25 22v27q0 24 25 24z" />
<glyph unicode="&#x2122;" horiz-adv-x="1816" d="M1620 1372v-794q0 -20 -21 -21h-51q-20 0 -20 21v632q0 -2 -3 -10t-7.5 -21.5t-8.5 -21.5l-206 -452q-10 -20 -27 -21h-41q-16 0 -27 21l-211 456q-4 6 -18 51v-634q0 -20 -18 -21h-50q-18 0 -18 21v794q0 20 18 21h50q14 0 18 -11l256 -542l20 -56q0 6 21 54l254 544 q4 10 18 11h51q21 -1 21 -21zM217 1393h555q20 0 21 -19v-41q0 -18 -21 -18h-231v-737q0 -20 -19 -21h-55q-20 0 -21 21v737h-229q-20 0 -20 18v41q0 19 20 19z" />
<glyph unicode="&#xe000;" horiz-adv-x="1010" d="M0 1010h1010v-1010h-1010v1010z" />
<glyph unicode="&#xfb01;" horiz-adv-x="1093" d="M920 981v-956q0 -25 -23 -25h-59q-25 0 -25 25v893h-487v-893q0 -25 -25 -25h-59q-23 0 -23 25v893h-133q-25 0 -25 24v33q0 25 25 24l113 7h20v174q0 252 367 252h262q25 0 24 -25v-43q0 -25 -24 -25h-262q-260 0 -260 -170v-163h569q25 0 25 -25z" />
<glyph unicode="&#xfb02;" horiz-adv-x="1093" d="M920 1407v-1382q0 -25 -23 -25h-59q-25 0 -25 25v1314h-227q-260 0 -260 -170v-163h237q25 0 25 -23v-41q0 -25 -25 -24h-237v-893q0 -25 -25 -25h-59q-23 0 -23 25v893h-133q-25 0 -25 24v33q0 25 25 24l113 7h20v174q0 252 367 252h309q25 0 25 -25z" />
<glyph unicode="&#xfb03;" horiz-adv-x="1693" d="M205 1006h20v182q0 252 367 252h10q25 0 25 -25v-43q0 -25 -25 -24h-10q-260 0 -260 -170v-172h487v174q0 252 367 252h262q27 0 27 -25v-43q0 -25 -27 -25h-262q-260 0 -260 -170v-163h569q27 0 27 -25v-956q0 -25 -23 -25h-59q-25 0 -25 25v893h-489v-893 q0 -25 -23 -25h-59q-25 0 -25 25v893h-487v-893q0 -25 -23 -25h-59q-25 0 -25 25v893h-133q-25 0 -24 24v33q0 25 24 24z" />
<glyph unicode="&#xfb04;" horiz-adv-x="1693" d="M205 1006h20v182q0 252 367 252h10q25 0 25 -25v-43q0 -25 -25 -24h-10q-260 0 -260 -170v-172h487v174q0 252 369 252h307q27 0 27 -25v-1382q0 -25 -23 -25h-59q-25 0 -25 25v1314h-227q-143 0 -201.5 -44t-58.5 -126v-163h237q25 0 25 -23v-41q0 -25 -25 -24h-237 v-893q0 -25 -25 -25h-59q-25 0 -25 25v893h-487v-893q0 -25 -23 -25h-59q-25 0 -25 25v893h-133q-25 0 -24 24v33q0 25 24 24z" />
<glyph horiz-adv-x="0" />
</font>
</defs>
</svg>
